<svg width="11" height="14" viewBox="0 0 11 14" xmlns="http://www.w3.org/2000/svg">
<path d="M5.74552 8.31495C5.78615 8.42351 5.82364 8.52371 5.86427 8.63227C5.80856 8.60552 5.75774 8.56741 5.71005 8.53766C5.73777 8.66057 5.73777 8.66057 5.70624 8.79613C5.61086 8.73662 5.62146 8.61841 5.55013 8.54991C5.4788 8.4814 5.42038 8.39855 5.35081 8.31034C5.32499 8.33904 5.31521 8.36174 5.29429 8.37909C5.28627 8.38209 5.27825 8.38509 5.27513 8.37674C5.19578 8.31123 5.09062 8.27443 5.02105 8.18622C4.94836 8.08966 4.87078 8.00446 4.75135 7.95395C4.70678 7.93255 4.66086 7.88309 4.62608 7.83899C4.54537 7.74543 4.46154 7.64352 4.37771 7.54162C4.30814 7.45341 4.2466 7.3622 4.1432 7.3057C4.09551 7.27594 4.06249 7.21214 4.01657 7.16268C3.97866 7.11023 3.93586 7.06913 3.89795 7.01667C3.84891 6.95887 3.78029 6.94647 3.70814 6.97346C3.6292 6.86021 3.55828 6.74395 3.47445 6.64204C3.43967 6.59794 3.40488 6.55383 3.36208 6.51273C3.27961 6.43887 3.20828 6.37037 3.16766 6.26181C3.13328 6.16995 3.09809 6.1736 2.97784 6.2186C2.92879 6.1608 2.87975 6.10299 2.8307 6.04519C2.77852 5.97903 2.71833 5.91588 2.65814 5.85272C2.60909 5.79492 2.5311 5.75746 2.53681 5.65061C2.56711 5.65831 2.58627 5.66066 2.60855 5.67136C2.6451 5.69576 2.68478 5.72852 2.72445 5.76127C2.74809 5.80002 2.77975 5.83577 2.80652 5.88288C2.80964 5.89123 2.83369 5.88223 2.84171 5.87923C2.8466 5.86788 2.84837 5.84818 2.84524 5.83983C2.80869 5.81542 2.76413 5.79402 2.72758 5.76962C2.69008 5.66941 2.62364 5.58956 2.52337 5.5414C2.48641 5.56475 2.44945 5.5881 2.40447 5.61445C2.31493 5.6194 2.23518 5.60164 2.16874 5.52179C2.11344 5.44728 2.02431 5.40448 1.98993 5.31262C2.00597 5.30662 2.01398 5.30362 2.03002 5.29762L2.04116 5.30297L2.03002 5.29762C1.95733 5.20106 1.88464 5.10451 1.81996 5.00495C1.8057 4.99125 1.79632 4.9662 1.78206 4.95249C1.61399 4.79643 1.44279 4.63202 1.27472 4.47595C1.24619 4.44855 1.21453 4.4128 1.186 4.3854C1.13382 4.31924 1.06698 4.28714 0.995235 4.26638C0.922954 4.12207 0.800807 4.01546 0.699584 3.8915C0.569829 3.74014 0.456108 3.58278 0.33437 3.42842C0.400269 3.38472 0.428393 3.45987 0.4716 3.45322C0.476492 3.44187 0.492525 3.43587 0.4894 3.42752C0.466577 3.29327 0.471469 3.28191 0.58465 3.31572C0.61495 3.32342 0.645249 3.33112 0.675549 3.33882C0.741857 3.24737 0.741856 3.24737 0.846072 3.20837C0.802324 3.09147 0.703818 3.02361 0.624878 2.91035C0.651104 2.8339 0.599339 2.71999 0.735621 2.66899C0.716871 2.61889 0.698122 2.56878 0.687389 2.51568C0.66864 2.46558 0.657907 2.41247 0.647175 2.35937C0.713074 2.31567 0.775849 2.26362 0.857781 2.21392C0.988354 2.26978 1.13496 2.31964 1.25887 2.40654C1.30969 2.44465 1.36852 2.47975 1.42423 2.5065C1.44964 2.52556 1.48972 2.51056 1.52002 2.51826C1.55738 2.44716 1.49543 2.4037 1.4847 2.3506C1.59747 2.43216 1.70222 2.51671 1.815 2.59827C1.85155 2.62268 1.89924 2.65243 1.93755 2.65713C2.02533 2.67188 2.10685 2.66994 2.20753 2.67034C2.21242 2.65899 2.23022 2.63329 2.24001 2.61059C2.28457 2.63199 2.32914 2.65339 2.36569 2.67779C2.4468 2.7236 2.52615 2.78911 2.6286 2.76981C2.66379 2.76616 2.70346 2.79891 2.73689 2.81496C2.77031 2.83102 2.80197 2.86677 2.83539 2.88282C2.92765 2.93398 3.02969 2.96243 3.12766 2.90673C3.05945 2.84658 2.99926 2.78342 2.96489 2.69156C3.03527 2.68427 3.07807 2.72537 3.12888 2.76347C3.34193 2.89319 3.54831 3.05395 3.77603 3.14962C3.83976 3.17337 3.88881 3.23117 3.94275 3.27763C4.10946 3.40564 4.12862 3.40799 4.30852 3.30259C4.31653 3.29959 4.32455 3.29659 4.33569 3.30194C4.3611 3.32099 4.38963 3.3484 4.4342 3.3698C4.50105 3.4019 4.5679 3.43401 4.64589 3.47146C4.76926 3.43481 4.83081 3.52602 4.91015 3.59153C5.01804 3.68443 5.12592 3.77734 5.24847 3.8362C5.35989 3.88971 5.44548 3.97191 5.50214 4.07447C5.43977 4.07877 5.37334 3.99891 5.31192 4.07901C5.34045 4.10642 5.36409 4.14517 5.39263 4.17257C5.53665 4.33764 5.68067 4.5027 5.82469 4.66776C5.90227 4.75297 5.97007 4.86088 6.08148 4.91438L6.06993 4.95679L6.05879 4.95144C5.97537 4.80177 5.88705 4.66346 5.80363 4.5138C5.77374 4.45835 5.73583 4.4059 5.70594 4.35044C5.75988 4.3969 5.81872 4.432 5.85975 4.4928C6.06219 4.74072 6.26464 4.98864 6.46708 5.23656C6.60309 5.40463 6.74398 5.56134 6.87197 5.7324C7.10431 6.03578 7.32862 6.34215 7.56898 6.64252C7.65906 6.76113 7.77006 6.86239 7.88107 6.96365C8.02373 7.10066 8.14547 7.25502 8.32686 7.34898C8.40797 7.39479 8.4793 7.4633 8.52482 7.5605C8.55471 7.61596 8.61178 7.67076 8.66572 7.71722C8.77047 7.80177 8.88501 7.86363 8.94615 8.00259C8.95865 8.03599 8.99832 8.06874 9.02686 8.09615C9.01531 8.13855 9.00865 8.1696 8.9971 8.212C9.12644 8.41112 9.37686 8.46973 9.52536 8.67119C9.51028 8.753 9.53351 8.8395 9.58391 8.92536C9.60756 8.96411 9.61204 9.00051 9.62766 9.04227C9.64329 9.08402 9.65089 9.12877 9.67943 9.15617C9.73785 9.23903 9.80918 9.30754 9.81149 9.41139C9.81461 9.41974 9.82086 9.43644 9.83513 9.45014C9.9301 9.5574 9.98187 9.67131 9.97262 9.81757C9.96773 9.82892 9.97398 9.84562 9.98023 9.86232C10.0771 10.1212 10.1998 10.3514 10.469 10.4601C10.5243 10.5346 10.5795 10.6091 10.6397 10.6722C10.6776 10.7247 10.7459 10.7848 10.8457 10.8808C10.774 10.86 10.7468 10.8606 10.7325 10.8469C10.6358 10.7594 10.5359 10.6635 10.4441 10.5646C10.3839 10.5014 10.3219 10.458 10.2391 10.4319C10.1531 10.3974 10.0688 10.3432 9.9877 10.2974C9.94802 10.2647 9.90033 10.2349 9.86066 10.2022C9.81786 10.1611 9.7684 10.151 9.71228 10.172C9.70114 10.1667 9.69802 10.1583 9.68688 10.153C9.69802 10.1583 9.70916 10.1637 9.7203 10.169C9.69095 10.2371 9.64149 10.2271 9.58089 10.2117C9.54299 10.1592 9.5866 10.1048 9.58389 10.0487C9.49204 9.94981 9.43375 10.0383 9.37097 10.0903C9.30236 10.0779 9.2707 10.0422 9.24883 9.9837C9.19706 9.8698 9.18592 9.86445 9.06078 9.92079C8.99882 9.87734 8.93687 9.83389 8.86377 9.78508C8.86472 9.86088 8.91907 9.85959 8.93958 9.88999C8.96322 9.92874 8.97572 9.96214 8.99936 10.0009C8.98958 10.0236 8.98469 10.0349 8.97491 10.0576C8.962 10.072 8.95221 10.0947 8.93441 10.1204C8.88985 10.099 8.84216 10.0692 8.78781 10.0705C8.72232 10.0665 8.69555 10.0194 8.65275 9.97828C8.64161 9.97293 8.62734 9.95923 8.61933 9.96223C8.56009 9.97488 8.50261 9.96783 8.44378 9.93272C8.3912 9.91432 8.33862 9.89592 8.29093 9.86617C8.27978 9.86082 8.25261 9.86146 8.23658 9.86746C8.2041 9.92722 8.28386 9.94497 8.28345 9.99272C8.27543 9.99572 8.26252 10.0101 8.25138 10.0047C8.20505 10.003 8.1685 9.97862 8.16089 9.93387C8.14527 9.89211 8.1488 9.85271 8.1412 9.80796C8.13807 9.79961 8.14609 9.79661 8.14296 9.78826C8.14296 9.78826 8.13984 9.77991 8.13671 9.77156C8.13984 9.77991 8.13495 9.79126 8.1412 9.80796C8.02801 9.77415 7.94065 9.71165 7.87108 9.62344C7.85369 9.60139 7.8363 9.57934 7.81089 9.56028C7.75695 9.51383 7.69635 9.49843 7.6897 9.52948C7.67325 9.58323 7.71782 9.60463 7.74635 9.63204C7.79228 9.68149 7.84133 9.73929 7.88725 9.78875C7.92203 9.83285 7.89934 9.8699 7.86551 9.9016C7.72243 9.81234 7.58738 9.72009 7.45232 9.62783C7.40463 9.59807 7.36183 9.55697 7.30259 9.56962C7.24417 9.48676 7.19689 9.40926 7.10287 9.3778C7.07121 9.34205 7.05735 9.28059 6.98384 9.27954C7.028 9.3487 7.028 9.3487 7.10287 9.3778C7.10422 9.40585 7.1136 9.4309 7.11496 9.45896C6.96482 9.4485 6.92827 9.4241 6.8511 9.29114C6.86577 9.25709 6.85327 9.22369 6.81985 9.20763L6.82297 9.21598C6.80069 9.20528 6.78153 9.20293 6.76726 9.18923L6.77528 9.18623C6.75925 9.19223 6.74321 9.19823 6.7352 9.20123C6.65055 9.19483 6.58058 9.15437 6.52039 9.09122C6.40001 8.96491 6.27963 8.8386 6.15123 8.71529C6.01346 8.56692 5.88995 8.43226 5.74552 8.31495C5.72677 8.26485 5.70802 8.21474 5.63628 8.19399C5.65327 8.2638 5.69294 8.29655 5.74552 8.31495ZM3.18451 6.1603C3.17337 6.15495 3.17337 6.15495 3.16222 6.1496C3.17337 6.15495 3.17649 6.1633 3.18451 6.1603C3.20992 6.17936 3.23043 6.20976 3.25584 6.22881C3.2822 6.32367 3.32146 6.40417 3.4235 6.43263C3.37622 6.35512 3.33695 6.27462 3.25584 6.22881C3.23043 6.20976 3.20502 6.19071 3.18451 6.1603ZM2.2519 5.32883C2.24877 5.32048 2.24877 5.32048 2.24565 5.31213L2.23451 5.30678C2.23763 5.31513 2.24877 5.32048 2.2519 5.32883ZM1.47255 4.51616C1.46943 4.50781 1.46141 4.51081 1.45828 4.50246C1.46141 4.51081 1.46943 4.50781 1.47255 4.51616C1.47255 4.51616 1.47567 4.52451 1.4788 4.53286C1.48192 4.54121 1.48192 4.54121 1.48994 4.53821C1.48682 4.52986 1.47567 4.52451 1.47255 4.51616ZM0.812225 3.80175C0.786817 3.7827 0.769426 3.76065 0.740894 3.73325C0.715486 3.71419 0.698095 3.69214 0.672687 3.67309C0.698095 3.69214 0.715486 3.71419 0.740894 3.73325C0.769426 3.76065 0.786817 3.7827 0.812225 3.80175C0.837633 3.8208 0.858149 3.85121 0.87554 3.87326C0.92418 3.97882 0.998637 4.05567 1.09089 4.10683C1.04225 4.00127 0.962905 3.93576 0.87554 3.87326C0.858149 3.85121 0.832741 3.83215 0.812225 3.80175ZM5.1553 7.81231C5.15843 7.82066 5.17269 7.83436 5.17582 7.84271C5.17894 7.85106 5.18696 7.84806 5.19498 7.84506C5.19185 7.83671 5.19185 7.83671 5.18071 7.83136C5.17759 7.82301 5.16644 7.81766 5.1553 7.81231ZM2.15529 5.41258C2.16956 5.42628 2.18382 5.43998 2.19496 5.44533C2.19985 5.43398 2.20787 5.43098 2.20475 5.42263C2.18559 5.42028 2.17445 5.41493 2.15529 5.41258ZM1.78736 4.89339C1.79755 4.82294 1.74809 4.81289 1.71956 4.78548C1.71644 4.77713 1.69239 4.78613 1.68124 4.78078C1.67635 4.79213 1.67459 4.81183 1.68573 4.81718C1.72228 4.84159 1.74768 4.86064 1.78736 4.89339ZM4.73437 7.88415C4.74768 7.82204 4.73695 7.76894 4.66032 7.75954C4.68708 7.80664 4.71073 7.84539 4.73437 7.88415ZM3.74633 6.80686C3.74456 6.82656 3.73165 6.84091 3.73478 6.84926C3.74904 6.86296 3.76018 6.86831 3.78247 6.87901C3.78736 6.86766 3.80516 6.84196 3.79402 6.83661C3.78777 6.81991 3.75747 6.81221 3.74633 6.80686ZM4.12173 7.19949C4.11684 7.21084 4.11997 7.21919 4.11507 7.23054C4.12309 7.22754 4.13111 7.22454 4.13111 7.22454C4.136 7.21319 4.12486 7.20784 4.12173 7.19949Z" fill="#222121"/>
<path d="M7.54189 4.00679C7.4795 4.03743 7.41711 4.06807 7.36364 4.09871C7.34581 4.10637 7.31907 4.11403 7.30125 4.12169C7.29233 4.12169 7.28342 4.11403 7.28342 4.11403L7.28342 4.10637C7.29233 4.09105 7.31016 4.08339 7.31907 4.07573C7.45276 4.00679 7.56863 3.92254 7.6934 3.84594C7.72014 3.83062 7.74688 3.8153 7.77362 3.79998C7.80927 3.78467 7.83601 3.76169 7.84492 3.73105C7.85383 3.69275 7.88948 3.67743 7.92513 3.67743C8.00535 3.67743 8.04991 3.63913 8.10339 3.59318C8.13012 3.56254 8.16578 3.5319 8.19251 3.50126C8.20143 3.4936 8.21034 3.47828 8.21925 3.47828C8.30838 3.4553 8.37077 3.40169 8.45098 3.37105C8.47772 3.36339 8.50446 3.34041 8.53119 3.31743C8.58467 3.27913 8.62923 3.24084 8.68271 3.21786C8.82531 3.14126 8.96791 3.07998 9.1016 2.99573C9.14617 2.96509 9.19964 2.94211 9.24421 2.91913C9.26203 2.91147 9.29768 2.90381 9.29768 2.8885C9.32442 2.83488 9.38681 2.81956 9.44029 2.79658C9.48485 2.78126 9.5205 2.75828 9.55615 2.7353C9.58289 2.68935 9.65419 2.68169 9.60963 2.61275L9.61854 2.59743C9.63636 2.58977 9.64528 2.57445 9.6631 2.56679C9.69875 2.53616 9.77005 2.53615 9.77897 2.47488C9.72549 2.46722 9.68093 2.50552 9.63636 2.52084C9.52941 2.56679 9.42246 2.62807 9.32442 2.67403C9.33333 2.65105 9.35116 2.63573 9.3779 2.62041C9.51159 2.55147 9.64528 2.48254 9.77897 2.42126C9.91266 2.35233 10.0463 2.29105 10.1711 2.21445C10.3405 2.12254 10.5276 2.06126 10.7148 1.99998C10.7326 2.02296 10.7059 2.03062 10.697 2.03828C10.6078 2.0919 10.5187 2.13786 10.4296 2.19147C10.4118 2.19913 10.4118 2.21445 10.4029 2.22977C10.3583 2.21445 10.3048 2.22211 10.2602 2.24509C10.2513 2.25275 10.2246 2.26041 10.2424 2.27573C10.3048 2.26041 10.3494 2.24509 10.4029 2.22977C10.4385 2.21445 10.4742 2.19913 10.5187 2.19147C10.5544 2.18381 10.5811 2.13786 10.6257 2.1685C10.5989 2.19147 10.5722 2.20679 10.5455 2.22977C10.5276 2.24509 10.5009 2.26041 10.4831 2.28339L10.492 2.29871C10.5187 2.29871 10.5365 2.29871 10.5633 2.29105C10.6168 2.26807 10.6613 2.24509 10.7148 2.22211C10.7504 2.20679 10.795 2.19913 10.8307 2.22977C10.8396 2.23743 10.8752 2.23743 10.893 2.22977C10.9287 2.22977 10.9554 2.21445 10.9911 2.20679C10.9911 2.21445 11 2.22977 11 2.22977C10.9822 2.26041 10.9554 2.29105 10.9287 2.32169C10.9198 2.32935 10.893 2.32935 10.8752 2.33701C10.8574 2.34467 10.8307 2.35233 10.8217 2.35998C10.7594 2.42892 10.6881 2.46722 10.59 2.47488C10.5098 2.48254 10.4385 2.52084 10.3672 2.54381C10.3405 2.55147 10.3137 2.55147 10.3048 2.59743C10.3405 2.59743 10.3761 2.59743 10.4029 2.58977C10.4831 2.55147 10.5811 2.53615 10.6702 2.5285C10.7059 2.5285 10.7415 2.51318 10.7772 2.51318C10.795 2.51318 10.8217 2.52084 10.8485 2.52084C10.8396 2.56679 10.795 2.56679 10.7772 2.59743C10.7594 2.62807 10.7415 2.65105 10.7148 2.67403C10.6881 2.69701 10.6613 2.71998 10.6346 2.74296C10.5811 2.78892 10.5365 2.83488 10.5276 2.90381C10.5187 2.97275 10.4652 3.01871 10.4029 3.05701C10.3672 3.07998 10.3316 3.0953 10.3405 3.14126C10.3405 3.15658 10.3226 3.1719 10.3048 3.18722C10.2602 3.22552 10.2068 3.26381 10.1622 3.30211C10.0463 3.38637 9.97504 3.50126 9.87701 3.60084C9.85918 3.61615 9.85918 3.63913 9.88592 3.64679C9.91266 3.65445 9.92157 3.66977 9.90374 3.69275C9.85918 3.73105 9.81462 3.76169 9.76114 3.79233C9.72549 3.8153 9.69875 3.83828 9.67201 3.86892C9.64528 3.8919 9.64528 3.90722 9.68984 3.91488C9.69875 3.91488 9.69875 3.9302 9.69875 3.93786C9.68984 3.98381 9.68093 4.02211 9.62745 4.05275C9.56506 4.09105 9.50267 4.13701 9.44029 4.18296C9.42246 4.19828 9.40463 4.22126 9.38681 4.23658C9.3779 4.24424 9.38681 4.25956 9.39572 4.26722C9.39572 4.27488 9.41355 4.27488 9.42246 4.27488C9.4492 4.26722 9.47594 4.25956 9.50267 4.2519C9.52941 4.27488 9.51159 4.29786 9.49376 4.32084C9.46702 4.35147 9.44029 4.37445 9.41355 4.40509C9.38681 4.42807 9.39572 4.44339 9.41355 4.46637C9.42246 4.47403 9.42246 4.49701 9.41355 4.51233C9.35116 4.60424 9.33333 4.70381 9.32442 4.80339C9.32442 4.82637 9.31551 4.84935 9.28877 4.86467C9.19964 4.95658 9.1016 5.04084 8.99465 5.12509C8.95009 5.15573 8.92335 5.19403 8.8877 5.23233C8.87879 5.24764 8.86096 5.26296 8.86988 5.27062C8.8877 5.32424 8.84314 5.35488 8.80749 5.37786C8.70945 5.44679 8.6025 5.51573 8.53119 5.6153C8.51337 5.63828 8.48663 5.64594 8.46881 5.66126C8.38859 5.71488 8.31729 5.77616 8.24599 5.84509C8.1836 5.91403 8.10339 5.98296 8.02317 6.0519C7.90731 6.15913 7.79144 6.26637 7.67558 6.36594C7.58645 6.44254 7.49733 6.51913 7.41711 6.60339C7.37255 6.64935 7.31016 6.67999 7.25668 6.72594C7.21212 6.76424 7.15865 6.80254 7.11408 6.84084C7.08734 6.86381 7.06061 6.88679 7.04278 6.91743C6.99822 7.00169 6.93583 7.07062 6.86453 7.1319C6.62389 7.35403 6.38324 7.57616 6.12478 7.78296C6.00891 7.87488 5.90196 7.97445 5.7861 8.07403C5.75045 8.10467 5.71479 8.14296 5.68806 8.18126C5.67023 8.20424 5.65241 8.21956 5.61676 8.22722C5.59002 8.23488 5.56328 8.25786 5.54545 8.28084C5.46524 8.40339 5.34938 8.4953 5.24242 8.59488C5.12656 8.70211 5.02852 8.81701 4.91266 8.92424C4.88592 8.95488 4.85918 8.98552 4.83244 9.0085C4.69875 9.09275 4.60963 9.2153 4.5205 9.3302C4.48485 9.37615 4.45811 9.41445 4.41355 9.45275C4.3779 9.48339 4.35116 9.52169 4.31551 9.55233C4.27986 9.59062 4.24421 9.62892 4.19964 9.6519C4.16399 9.67488 4.13725 9.69786 4.11052 9.7285C4.1016 9.73616 4.07487 9.75147 4.06595 9.75147C4.00356 9.72084 3.959 9.75147 3.91444 9.78211C3.90553 9.78977 3.89661 9.79743 3.8877 9.80509C3.84314 9.85105 3.78075 9.87403 3.71836 9.88169C3.65597 9.88169 3.6025 9.90467 3.55793 9.94296C3.52228 9.9736 3.47772 10.0119 3.42424 10.0272C3.38859 10.0349 3.36185 10.0655 3.33512 10.0808C3.27273 10.1115 3.22816 10.1574 3.14795 10.1574C3.12121 10.1574 3.09447 10.1728 3.07665 10.1881C2.9697 10.28 2.82709 10.3183 2.70232 10.3719C2.65775 10.3949 2.61319 10.4102 2.56863 10.4332C2.50624 10.4638 2.43494 10.4638 2.38146 10.4945C2.32799 10.5251 2.2656 10.5634 2.18538 10.5634C2.17647 10.5634 2.15864 10.5787 2.14973 10.5787C2.13191 10.5864 2.14082 10.6247 2.09626 10.617C2.05169 10.6093 2.05169 10.6553 2.03387 10.6706C2.00713 10.6859 1.9893 10.7013 1.97148 10.7166C1.95365 10.7319 1.92692 10.7472 1.90909 10.7625C1.88235 10.7932 1.85561 10.8085 1.81105 10.7932C1.75758 10.7855 1.72192 10.8008 1.69519 10.8391C1.67736 10.8621 1.64171 10.8851 1.62389 10.9081C1.59715 10.931 1.57041 10.954 1.54367 10.9847C1.52585 10.9464 1.4902 10.9157 1.53476 10.8774C1.53476 10.8774 1.52585 10.8545 1.51693 10.8468C1.49911 10.8468 1.46346 10.8391 1.45455 10.8468C1.42781 10.8698 1.40998 10.8928 1.38324 10.9234C1.36542 10.9387 1.35651 10.954 1.32977 10.931C1.31194 10.9234 1.29412 10.931 1.2852 10.9464C1.27629 10.9617 1.25847 10.977 1.24064 10.9923C1.19608 10.9693 1.23173 10.9464 1.23173 10.9234C1.23173 10.9004 1.24064 10.8851 1.24955 10.8621C1.24955 10.8545 1.24064 10.8468 1.24064 10.8468C1.23173 10.8468 1.22282 10.8545 1.22282 10.8621C1.20499 10.8928 1.19608 10.9234 1.18717 10.954C1.17825 10.9693 1.16934 10.977 1.15152 10.9923C1.1426 11 1.13369 11 1.12478 11C1.11586 11 1.10695 10.9923 1.10695 10.9847C1.10695 10.9387 1.11586 10.8851 1.11586 10.8391C1.11586 10.8238 1.11586 10.8008 1.09804 10.7932C1.0713 10.7779 1.05348 10.8008 1.04456 10.8162C1.03565 10.8238 1.02674 10.8391 1.01783 10.8468C1.01783 10.8468 1 10.8391 1 10.8315C1 10.8085 1 10.7855 1.00891 10.7625C1.08913 10.617 1.17825 10.4638 1.25847 10.3183C1.2852 10.2647 1.31194 10.2034 1.26738 10.1498C1.25847 10.1421 1.26738 10.1191 1.26738 10.1038C1.27629 10.0808 1.27629 10.0655 1.25847 10.0425C1.24064 10.0119 1.26738 9.98126 1.30303 9.96594C1.31194 9.96594 1.32086 9.96594 1.32086 9.9736L1.32086 9.98126C1.32086 10.0196 1.29412 10.0502 1.31194 10.0885C1.32977 10.1191 1.32977 10.1498 1.33868 10.1957C1.38324 10.1191 1.39216 10.0425 1.40998 9.9736C1.35651 9.91233 1.45455 9.85871 1.41889 9.80509C1.4902 9.76679 1.47237 9.70552 1.4902 9.64424C1.50802 9.59062 1.52585 9.53701 1.54367 9.48339C1.55258 9.46807 1.5615 9.43743 1.57041 9.42977C1.67736 9.39147 1.68627 9.29956 1.73084 9.23062C1.7754 9.14637 1.81105 9.05445 1.85561 8.96254C1.88235 8.90892 1.89126 8.8553 1.87344 8.79403C1.86453 8.77871 1.86453 8.76339 1.87344 8.74807C1.90018 8.66381 1.94474 8.57956 2.00713 8.51062C2.06061 8.44935 2.14082 8.40339 2.21212 8.34977C2.22995 8.34211 2.23886 8.32679 2.24777 8.31913C2.27451 8.30381 2.27451 8.2502 2.32798 8.25786C2.34581 8.29616 2.31016 8.31913 2.30125 8.34977C2.29233 8.38041 2.24777 8.41105 2.29233 8.43403C2.31907 8.44935 2.3369 8.40339 2.36364 8.38041C2.39037 8.34977 2.4082 8.31913 2.43494 8.2885C2.45276 8.27318 2.46168 8.2502 2.4795 8.24254C2.55971 8.2119 2.59536 8.15062 2.63102 8.08935C2.73797 7.93615 2.85383 7.79062 2.99643 7.66041C3.05882 7.59913 3.1123 7.5302 3.16577 7.46892C3.30838 7.31573 3.45098 7.16254 3.59358 7.00935C3.64706 6.94807 3.70053 6.88679 3.77184 6.84084C3.78075 6.83318 3.78966 6.83318 3.78966 6.82552C3.94118 6.62637 4.15508 6.47318 4.34225 6.29701C4.47594 6.17445 4.60963 6.06722 4.75223 5.95233C4.77005 5.93701 4.8057 5.92935 4.8057 5.92935C4.85027 5.96764 4.877 5.94467 4.91266 5.91403C5.01961 5.82977 5.11765 5.75318 5.2246 5.66892C5.24242 5.6536 5.26025 5.63828 5.27807 5.63062C5.39394 5.56935 5.48307 5.47743 5.59002 5.4085C5.67023 5.35488 5.75045 5.2936 5.83066 5.23998C5.86631 5.21701 5.90196 5.18637 5.93761 5.16339C6 5.12509 6.02674 5.05616 6.11586 5.02552C6.18717 5.00254 6.24064 4.95658 6.30303 4.92594C6.32977 4.91062 6.36542 4.88764 6.39216 4.87233C6.54367 4.76509 6.69519 4.65786 6.8467 4.54296C6.88235 4.51233 6.92692 4.48935 6.96257 4.45871C7.00713 4.42041 7.05169 4.38211 7.11408 4.35913C7.14973 4.34381 7.17647 4.32084 7.1943 4.29786C7.22995 4.2519 7.2656 4.2136 7.3369 4.20594C7.34581 4.20594 7.35472 4.19828 7.36364 4.19062C7.42602 4.11403 7.4795 4.06041 7.54189 4.00679C7.55971 3.99147 7.58645 3.99147 7.61319 3.97615C7.6221 3.97615 7.61319 3.95318 7.6221 3.94552C7.61319 3.94552 7.60428 3.94552 7.59537 3.94552C7.56863 3.9685 7.5508 3.98381 7.54189 4.00679ZM7.30125 4.3285C7.23886 4.33615 7.23886 4.33615 7.22103 4.38211C7.24777 4.35913 7.27451 4.34381 7.30125 4.3285C7.39929 4.28254 7.39929 4.28254 7.42602 4.2136C7.36364 4.24424 7.31016 4.26722 7.30125 4.3285ZM9.93048 2.48254C9.87701 2.50552 9.82353 2.52084 9.77897 2.54381C9.76114 2.55147 9.7344 2.55913 9.75223 2.58977C9.82353 2.56679 9.91266 2.56679 9.93048 2.48254C9.95722 2.49786 9.98396 2.50552 10.0196 2.4902C10.0553 2.47488 10.0909 2.45956 10.1266 2.44424C10.1533 2.43658 10.1711 2.42892 10.1711 2.39828C10.1266 2.4136 10.0731 2.42126 10.0285 2.43658C10.0107 2.44424 9.99287 2.44424 9.97504 2.4519C9.96613 2.46722 9.94831 2.47488 9.93048 2.48254ZM6.67736 4.72679C6.71301 4.70381 6.74866 4.68084 6.79323 4.65786L6.79323 4.64254C6.79323 4.64254 6.78431 4.63488 6.78431 4.64254C6.73084 4.6502 6.69519 4.68084 6.67736 4.72679ZM5.17112 5.79913C5.18004 5.79147 5.18895 5.78381 5.19786 5.77616L5.19786 5.7685C5.18895 5.77616 5.17112 5.78381 5.16221 5.79147L5.16221 5.79913C5.16221 5.79913 5.16221 5.79913 5.17112 5.79913ZM10.2959 2.35998C10.287 2.35998 10.2781 2.35998 10.2692 2.36764C10.2692 2.36764 10.2692 2.3753 10.2781 2.3753C10.287 2.36764 10.2959 2.36764 10.2959 2.35998ZM6.88235 4.59658C6.89127 4.58892 6.89127 4.58892 6.90018 4.58126C6.89127 4.58126 6.89127 4.5736 6.88235 4.5736C6.88235 4.58126 6.87344 4.58126 6.87344 4.58892C6.87344 4.59658 6.87344 4.59658 6.88235 4.59658ZM8.13904 3.69275L8.13904 3.70041L8.14795 3.70041C8.14795 3.69275 8.14795 3.68509 8.14795 3.68509C8.14795 3.68509 8.13904 3.68509 8.13904 3.69275Z"/>
</svg>