<svg width="49" height="4" viewBox="0 0 49 4" xmlns="http://www.w3.org/2000/svg">
<path d="M6.62745 0.580268C6.68149 0.59318 6.74229 0.606093 6.80308 0.599637C6.91791 0.586724 7.02598 0.59318 7.14082 0.606093C7.23538 0.612549 7.3367 0.612549 7.43127 0.612549C7.56636 0.612549 7.6947 0.638375 7.8298 0.638375C7.85006 0.638375 7.89059 0.638375 7.89059 0.6642C7.89059 0.696482 7.86357 0.722307 7.82305 0.715851C7.76225 0.709394 7.70146 0.709394 7.64067 0.709394C7.5461 0.709394 7.45153 0.702938 7.36372 0.702938C7.22187 0.709394 7.08678 0.651287 6.94493 0.644831C6.87063 0.638375 6.80308 0.631918 6.72878 0.644831C6.60719 0.657744 6.4856 0.6642 6.37753 0.599637C6.36402 0.586724 6.337 0.586724 6.31674 0.586724C6.0533 0.560899 5.78987 0.54153 5.52643 0.54153C5.24949 0.54153 4.9793 0.515704 4.70911 0.47051C4.60778 0.457597 4.50646 0.464054 4.40514 0.457597C4.24303 0.444685 4.08767 0.438228 3.92555 0.438228C4.01337 0.489879 4.12144 0.489879 4.19574 0.547986C4.1282 0.573811 4.1282 0.573811 4.16873 0.625462C4.16197 0.631918 4.15522 0.638374 4.14846 0.638374C4.08767 0.631918 4.03363 0.59318 3.97959 0.580267C3.93906 0.567355 3.87152 0.612549 3.81748 0.606093C3.76344 0.599636 3.71616 0.580267 3.66887 0.567355C3.64186 0.586724 3.66212 0.599636 3.67563 0.612549C3.69589 0.651287 3.67563 0.6642 3.6351 0.6642C3.60133 0.6642 3.55404 0.625462 3.54729 0.644831C3.49325 0.748132 3.40544 0.683569 3.33789 0.702938C3.31087 0.709394 3.28385 0.709394 3.28385 0.748132C3.28385 0.78687 3.25683 0.793326 3.22306 0.793326C3.16227 0.799783 3.09472 0.812695 3.03393 0.78687C3.00015 0.773957 2.96638 0.767501 2.91234 0.793326C3.03393 0.825608 3.13525 0.851433 3.22306 0.922453C3.20955 0.948278 3.17578 0.941822 3.15551 0.941822C3.14876 0.941822 3.142 0.935365 3.12849 0.941822C2.93936 0.954734 2.91234 0.941822 2.97314 1.14197C2.95287 1.17425 2.92585 1.16134 2.89883 1.16134C2.87181 1.16134 2.84479 1.14842 2.81778 1.16134C2.64891 1.24527 2.47328 1.24527 2.29091 1.21944C2.22336 1.20653 2.14906 1.20653 2.08826 1.2259C1.9937 1.26464 1.90588 1.23881 1.82483 1.19362C1.75728 1.15488 1.75728 1.16134 1.71675 1.23236C1.67622 1.30983 1.62218 1.33566 1.52762 1.32274C1.46683 1.31629 1.40603 1.29046 1.37901 1.3744C1.37226 1.40022 1.33849 1.40022 1.31147 1.39376C1.13584 1.34857 0.993993 1.43896 0.845389 1.48415C0.81837 1.49061 0.798105 1.52289 0.757577 1.49707C0.744067 1.48415 0.588708 1.59391 0.588708 1.61328C0.588708 1.67784 0.554934 1.66493 0.521161 1.6391C0.507651 1.62619 0.487387 1.61328 0.467123 1.61328C0.446858 1.61328 0.433349 1.61974 0.426594 1.63265C0.419839 1.64556 0.426594 1.65202 0.433349 1.66493C0.487387 1.73595 0.487387 1.73595 0.419839 1.7876C0.379311 1.81988 0.379311 1.85862 0.359047 1.89736C0.338782 1.92964 0.338782 1.97483 0.305009 2.00066C0.284744 2.02003 0.257725 2.04585 0.230706 2.02648C0.190178 1.98775 0.176668 2.01357 0.163159 2.04585C0.12263 2.12979 0.13614 2.14915 0.230706 2.14915C0.203687 2.27182 0.183423 2.40095 0.109121 2.51716C0.0956113 2.53653 0.0956114 2.56882 0.0618376 2.54945C0.0348186 2.53653 0.0145544 2.53653 0.0077996 2.56882C0.00104485 2.58818 -0.0057099 2.61401 0.0077996 2.63338C0.0550828 2.7044 0.169914 2.69794 0.210442 2.62047C0.230706 2.58818 0.237461 2.54945 0.250971 2.51071C0.27799 2.4526 0.311763 2.39449 0.40633 2.37513C0.365801 2.45906 0.365801 2.53653 0.291499 2.59464C0.27799 2.60755 0.27799 2.62047 0.284744 2.63983C0.298254 2.6592 0.311763 2.64629 0.325273 2.64629C0.419839 2.62692 0.521161 2.62047 0.608972 2.56882C0.649501 2.54299 0.696784 2.56882 0.730558 2.60755C0.750822 2.62692 0.764332 2.66566 0.80486 2.6592C0.872408 2.65275 0.892672 2.69794 0.899427 2.74959C0.960219 2.74959 0.966974 2.7044 0.987238 2.67857C1.04128 2.62047 1.09531 2.56236 1.19664 2.60755C1.24392 2.62692 1.27769 2.62047 1.2912 2.5559C1.29796 2.51717 1.39252 2.48488 1.43305 2.50425C1.46683 2.51717 1.48034 2.54945 1.46683 2.58173C1.44656 2.62692 1.41279 2.67212 1.35199 2.67212C1.31822 2.67212 1.28445 2.67212 1.25743 2.67212C1.18988 2.67212 1.12233 2.68503 1.0683 2.73668C1.02777 2.77542 0.973729 2.79479 0.9332 2.82707C0.885917 2.85935 0.845389 2.83352 0.811615 2.78833C0.757577 2.87872 0.81837 2.93037 0.831879 2.98848C0.865653 2.98848 0.858898 2.9562 0.879162 2.9562C0.987238 2.9562 1.07505 2.88518 1.17637 2.86581C1.21015 2.85935 1.23716 2.83998 1.25743 2.87872C1.27094 2.90454 1.23041 2.96265 1.18988 2.9562C1.1426 2.94974 1.11558 2.98202 1.07505 2.97556C1.04803 2.96911 1.02777 2.98848 1.02777 3.0143C1.02777 3.05304 1.05479 3.05304 1.08856 3.05304C1.13584 3.05304 1.18313 3.07241 1.23041 3.04013C1.24392 3.03367 1.26418 3.03367 1.27769 3.04013C1.35199 3.07887 1.41954 3.04658 1.49384 3.04013C1.46683 2.911 1.56815 2.88518 1.65596 2.84644C1.68298 2.83352 1.70324 2.84644 1.71675 2.87226C1.73702 2.911 1.74377 2.94974 1.75053 2.99493C1.75728 3.04658 1.79105 3.07241 1.83834 3.09178C1.94641 3.14343 2.06124 3.18217 2.18283 3.19508C2.18958 3.19508 2.18958 3.19508 2.19634 3.19508C2.47328 3.33712 2.77725 3.30484 3.07446 3.30484C3.29061 3.30484 3.51352 3.28547 3.72967 3.29838C3.85801 3.30484 3.9931 3.34357 4.12144 3.34357C4.31058 3.35003 4.49295 3.41459 4.68884 3.38877C4.76314 3.37586 4.8442 3.37586 4.9185 3.38231C5.14141 3.40168 5.36432 3.36294 5.58722 3.39523C5.68179 3.40814 5.77636 3.40168 5.86417 3.38877C6.03304 3.3694 6.20191 3.38877 6.37077 3.38877C6.53964 3.38877 6.70176 3.38877 6.87063 3.39523C7.12731 3.39523 7.39074 3.38231 7.64742 3.40168C7.9041 3.42105 8.16754 3.39523 8.42422 3.43396C8.44448 3.44042 8.46475 3.44042 8.48501 3.43396C8.70116 3.41459 8.91056 3.43396 9.12671 3.39523C9.18075 3.38231 9.24154 3.39523 9.29558 3.38877C9.4712 3.38231 9.65358 3.37586 9.82921 3.36294C9.87649 3.36294 9.91702 3.35003 9.95755 3.33712C10.0116 3.31775 10.0589 3.31129 10.1129 3.33712C10.1602 3.36294 10.2142 3.36294 10.2615 3.33066C10.2818 3.31775 10.302 3.30484 10.3291 3.31775C10.4034 3.35003 10.4777 3.33712 10.552 3.30484C10.5857 3.29192 10.6263 3.29192 10.66 3.29838C10.7614 3.31775 10.8627 3.31129 10.964 3.31129C11.0113 3.31129 11.0518 3.29838 11.0923 3.27901C11.1869 3.22736 11.2815 3.20799 11.3693 3.29192C11.3963 3.31775 11.4368 3.31129 11.4706 3.31129C11.5922 3.31129 11.7138 3.31129 11.8354 3.31129C12.0313 3.30484 12.2339 3.33066 12.4298 3.34358C12.5176 3.35003 12.5987 3.33712 12.6865 3.33066C13.1188 3.31775 13.5443 3.36294 13.9766 3.35003C14.0915 3.35003 14.213 3.33066 14.3279 3.34358C14.5575 3.35649 14.7804 3.31775 15.0033 3.33712C15.1925 3.35649 15.3816 3.33712 15.5707 3.35649C15.6045 3.36294 15.645 3.36294 15.6788 3.34358C15.7531 3.29838 15.8207 3.29838 15.895 3.34358C15.949 3.3694 16.0098 3.38231 16.0706 3.38231C16.2867 3.39523 16.5097 3.42105 16.7258 3.40814C16.942 3.39523 17.1649 3.44042 17.381 3.42751C17.4351 3.42751 17.5094 3.45333 17.5364 3.3694C17.5431 3.35649 17.5634 3.35649 17.5837 3.35649C17.6985 3.35649 17.8133 3.34358 17.9214 3.38877C17.9889 3.41459 18.0497 3.42751 18.124 3.42105C18.2051 3.42105 18.2862 3.42105 18.3672 3.42105C18.3807 3.42105 18.401 3.42751 18.4145 3.42105C18.6171 3.33712 18.8198 3.43396 19.0157 3.45333C19.0967 3.45979 19.1778 3.47916 19.2588 3.46625C19.3399 3.45333 19.3939 3.51144 19.4682 3.5179C19.529 3.44688 19.6101 3.48561 19.6844 3.48561C19.8465 3.49207 20.0086 3.48561 20.1707 3.48561C20.2248 3.48561 20.2518 3.44042 20.2923 3.42751C20.3261 3.41459 20.3261 3.49207 20.3869 3.48561C20.522 3.47916 20.6638 3.48561 20.7989 3.47916C20.8259 3.47916 20.8597 3.47916 20.8732 3.45333C20.8935 3.39523 20.9408 3.39523 20.9948 3.40168C21.0421 3.40814 21.0894 3.40814 21.1367 3.40168C21.1704 3.39523 21.2042 3.39523 21.2245 3.42751C21.2515 3.46625 21.2785 3.46625 21.3123 3.43396C21.3731 3.36294 21.4676 3.38231 21.569 3.36294C21.5082 3.31129 21.4609 3.32421 21.4136 3.33712C21.3596 3.35003 21.2988 3.34358 21.2447 3.34358C21.1907 3.34358 21.1434 3.35649 21.0894 3.31775C21.1367 3.29838 21.1839 3.29838 21.238 3.29838C21.3866 3.31129 21.5284 3.31775 21.677 3.28547C21.7041 3.27901 21.7311 3.27901 21.7648 3.27901C22.0013 3.31129 22.2377 3.27256 22.4809 3.27901C22.7713 3.27901 23.0618 3.25964 23.3522 3.25319C23.4265 3.25319 23.5008 3.22736 23.5819 3.23382C23.5684 3.19508 23.5278 3.22736 23.5143 3.19508C23.5886 3.19508 23.6629 3.18862 23.7372 3.22091C23.8115 3.25964 23.9061 3.25319 23.9872 3.21445C24.0682 3.17571 24.1425 3.16925 24.2236 3.18217C24.4262 3.22091 24.6289 3.20799 24.8248 3.22091C24.8383 3.22091 24.845 3.22736 24.8585 3.23382C24.845 3.2661 24.818 3.25964 24.7977 3.25319C24.541 3.24673 24.2776 3.28547 24.0209 3.28547C23.9804 3.28547 23.9399 3.27901 23.9129 3.31775C23.9061 3.32421 23.9061 3.33712 23.9129 3.33712C23.9534 3.3694 23.9872 3.33712 24.0209 3.32421C24.0277 3.32421 24.0344 3.32421 24.0615 3.31775C23.9601 3.44688 23.8318 3.37586 23.717 3.40168C23.7035 3.33712 23.7778 3.35003 23.798 3.29838C23.6089 3.27901 23.4333 3.27256 23.2306 3.31775C23.3657 3.3694 23.4873 3.32421 23.5954 3.35649C23.5413 3.39523 23.4806 3.38877 23.4265 3.40814C23.4468 3.44042 23.4806 3.42751 23.5076 3.42751C23.8183 3.42751 24.129 3.42751 24.4465 3.42751C24.5208 3.42751 24.5883 3.43396 24.6424 3.36294C24.6694 3.33066 24.7167 3.33712 24.7504 3.34358C24.764 3.38231 24.7099 3.36294 24.7099 3.39523C24.7167 3.42751 24.7437 3.42751 24.7707 3.42751C25.1692 3.42751 25.5745 3.43396 25.9731 3.42751C26.1082 3.42751 26.2432 3.40814 26.3783 3.38877C26.0811 3.38877 25.7772 3.37586 25.48 3.3694C25.4935 3.33712 25.5137 3.34358 25.534 3.34358C25.8109 3.34358 26.0811 3.30484 26.3581 3.31775C26.3919 3.31775 26.4324 3.32421 26.4662 3.33066C26.4797 3.33066 26.4999 3.34358 26.5134 3.33712C26.6485 3.27256 26.7836 3.31775 26.9187 3.31775C27.0538 3.31775 27.1957 3.30484 27.3308 3.31775C27.3578 3.32421 27.3848 3.31775 27.4186 3.31775C27.4321 3.31775 27.4456 3.31129 27.4591 3.33712C27.4794 3.38231 27.4929 3.38877 27.5199 3.36294C27.5739 3.31129 27.6415 3.31129 27.7158 3.31775C27.7293 3.31775 27.7563 3.31775 27.7631 3.32421C27.8104 3.4146 27.8914 3.37586 27.9657 3.38231C28.1008 3.38877 28.2359 3.38231 28.3642 3.40168C28.371 3.40168 28.3777 3.40814 28.3913 3.40814C28.5871 3.39523 28.7763 3.43396 28.9722 3.43396C29.087 3.43396 29.1951 3.40814 29.3099 3.4146C29.4518 3.42105 29.5936 3.44042 29.7355 3.42105C29.776 3.4146 29.8098 3.42105 29.8435 3.44042C29.8908 3.46625 29.9449 3.4727 29.9921 3.47916C30.0597 3.48561 30.1272 3.44688 30.188 3.44042C30.2488 3.43396 30.3029 3.48561 30.3704 3.47916C30.3974 3.47916 30.4244 3.46625 30.4515 3.45333C30.4785 3.43396 30.5122 3.42751 30.5393 3.4146C30.5933 3.39523 30.6271 3.47916 30.6811 3.43396C30.7216 3.40168 30.7757 3.40168 30.8162 3.40168C30.9918 3.4146 31.1742 3.37586 31.3498 3.37586C31.4444 3.37586 31.5457 3.36295 31.6403 3.35649C31.6673 3.35649 31.6943 3.35649 31.7146 3.31129C31.6335 3.29193 31.566 3.33066 31.4984 3.33066C31.4309 3.33066 31.3633 3.33066 31.2823 3.28547C31.5727 3.22736 31.8564 3.24673 32.1334 3.20154C31.8835 3.18862 31.6335 3.22091 31.3836 3.20799C31.1337 3.19508 30.8838 3.24027 30.6203 3.20154C30.6541 3.14989 30.7014 3.16926 30.7284 3.1628C31.0391 3.14343 31.3498 3.12406 31.6606 3.11115C31.8092 3.10469 31.951 3.10469 32.0996 3.11115C32.255 3.1176 32.4171 3.08532 32.5724 3.10469C32.5995 3.11115 32.6265 3.09824 32.6535 3.09178C32.8426 3.05304 33.0318 3.04013 33.2209 3.05304C33.3965 3.06595 33.5654 3.06595 33.741 3.07887C34.0247 3.09824 34.3084 3.11115 34.5921 3.12406C34.788 3.13052 34.9839 3.14989 35.173 3.12406C35.4094 3.09178 35.6391 3.13697 35.8755 3.13697C36.0579 3.13052 36.2403 3.14343 36.4227 3.15634C36.7672 3.18217 37.1116 3.18862 37.4561 3.17571C37.7331 3.1628 38.0033 3.16926 38.2802 3.13697C38.395 3.12406 38.5166 3.13052 38.6315 3.13052C38.9016 3.13052 39.1651 3.12406 39.4353 3.13052C39.6177 3.13697 39.8 3.14989 39.9824 3.15634C40.0297 3.15634 40.077 3.15634 40.1243 3.15634C40.1175 3.1176 40.0837 3.13697 40.0837 3.11115C40.1986 3.11115 40.3201 3.10469 40.435 3.12406C40.4958 3.13697 40.5633 3.13052 40.6309 3.13697C40.7119 3.14343 40.793 3.13697 40.874 3.18862C40.9348 3.22736 41.0226 3.22091 41.0969 3.22736C41.3874 3.24673 41.6779 3.29838 41.9683 3.31775C41.9278 3.31775 41.8805 3.31775 41.84 3.31775C41.4144 3.31129 40.9889 3.29193 40.5633 3.27901C40.3269 3.2661 40.0837 3.27901 39.8473 3.2661C39.6379 3.25964 39.4285 3.24673 39.2191 3.23382C38.9962 3.22091 38.7666 3.22736 38.5369 3.22736C38.5031 3.22736 38.4626 3.23382 38.4086 3.2661C38.753 3.27901 39.084 3.25964 39.4218 3.27256C39.3812 3.33066 39.334 3.29838 39.2867 3.33712C39.4555 3.33066 39.6041 3.35003 39.7528 3.37586C39.7392 3.4146 39.7122 3.39523 39.692 3.39523C39.5434 3.39523 39.3947 3.38877 39.2461 3.38877C39.1448 3.38877 39.0503 3.40168 38.9489 3.39523C38.9287 3.39523 38.9016 3.40168 38.9016 3.42105C38.9016 3.44688 38.9219 3.45333 38.9422 3.45333C39.0503 3.44688 39.1516 3.4727 39.2597 3.46625C39.3677 3.45979 39.4758 3.4727 39.5839 3.48562C39.7325 3.50498 39.8743 3.50498 40.0229 3.50498C40.2323 3.51144 40.4417 3.5179 40.6511 3.50498C40.6782 3.50498 40.7119 3.51144 40.7457 3.47916C40.5903 3.42751 40.4282 3.44688 40.2796 3.42105C40.3404 3.40814 40.408 3.4146 40.462 3.38231C40.4823 3.3694 40.5093 3.3694 40.5295 3.37586C40.6444 3.40168 40.766 3.38877 40.8808 3.39523C41.0091 3.40168 41.1375 3.40168 41.2658 3.40168C41.3739 3.39523 41.4685 3.44688 41.5765 3.44688C41.6508 3.44688 41.7184 3.47916 41.7927 3.44042C41.7994 3.43396 41.8062 3.43396 41.8197 3.44042C42.0561 3.50498 42.2925 3.42105 42.5289 3.46625C42.556 3.4727 42.583 3.46625 42.61 3.4727C42.6438 3.47916 42.6708 3.49853 42.6438 3.53727C42.6168 3.58246 42.6505 3.59537 42.6843 3.59537C42.7451 3.60183 42.8059 3.60183 42.8667 3.59537C42.8937 3.58892 42.9275 3.58246 42.9275 3.55018C42.9207 3.45979 42.995 3.4727 43.0423 3.4727C43.245 3.46625 43.4476 3.46625 43.6502 3.46625C43.9069 3.46625 44.1704 3.45979 44.427 3.44688C44.5959 3.44042 44.7648 3.44042 44.9336 3.44688C45.0282 3.44688 45.116 3.42751 45.2106 3.42751C45.3254 3.42105 45.4065 3.46625 45.4605 3.55664C45.4943 3.60829 45.5281 3.63411 45.5956 3.62765C45.6564 3.6212 45.7239 3.62765 45.7915 3.6212C45.8185 3.61474 45.8523 3.61474 45.8726 3.62765C45.9333 3.65994 46.0009 3.67285 46.0684 3.67285C46.082 3.67285 46.0955 3.68576 46.1022 3.71804C46.0212 3.75678 45.9401 3.75678 45.8523 3.75033C45.8185 3.74387 45.7915 3.73741 45.7577 3.73741C45.6969 3.73741 45.6767 3.75678 45.6834 3.81489C45.6834 3.85363 45.7037 3.873 45.7442 3.86008C45.8861 3.82134 46.0076 3.84717 46.1022 3.95693C46.1495 4.00858 46.1968 4.00212 46.2643 3.99567C46.3927 3.98275 46.5007 3.89236 46.6426 3.91819C46.6831 3.92465 46.7304 3.91173 46.6899 3.85363C46.6831 3.84071 46.7034 3.82134 46.7169 3.82134C46.7912 3.83426 46.8655 3.82134 46.9263 3.78261C46.9601 3.82134 46.933 3.82134 46.9195 3.83426C46.906 3.84717 46.8925 3.85363 46.906 3.873C46.9195 3.88591 46.9331 3.88591 46.9466 3.87945C47.0276 3.84071 47.1154 3.83426 47.2032 3.82134C47.2303 3.81489 47.2843 3.82134 47.2303 3.76969C47.2168 3.75678 47.2303 3.74387 47.2438 3.74387C47.2843 3.73741 47.3248 3.7245 47.3586 3.75678C47.4397 3.8278 47.514 3.82134 47.6153 3.79552C47.7639 3.75678 47.9125 3.69867 48.0746 3.71804C48.1151 3.7245 48.1422 3.69867 48.1759 3.67931C48.2367 3.64702 48.2975 3.61474 48.3718 3.62765C48.4056 3.63411 48.4394 3.62766 48.4596 3.60183C48.4866 3.56955 48.5272 3.55018 48.5609 3.54372C48.7231 3.53081 48.8446 3.4146 49 3.38231C48.8514 3.32421 48.7095 3.4146 48.5609 3.40168C48.6352 3.37586 48.6758 3.30484 48.7636 3.27256C48.7095 3.25964 48.6555 3.25964 48.615 3.2661C48.4934 3.29193 48.3718 3.29193 48.2502 3.28547C48.1557 3.27901 48.0678 3.32421 47.9733 3.32421C47.9192 3.32421 47.8585 3.33066 47.8044 3.30484C47.7774 3.29193 47.7436 3.29193 47.7098 3.29838C47.6693 3.30484 47.6288 3.32421 47.622 3.25319C47.622 3.22736 47.5545 3.24673 47.5207 3.21445C47.5612 3.17571 47.622 3.20799 47.6626 3.18217C47.6423 3.14989 47.6085 3.16926 47.5815 3.1628C47.5612 3.15634 47.541 3.15634 47.5342 3.13052C47.5275 3.09824 47.568 3.10469 47.5815 3.08532C47.5072 3.0595 47.4261 3.05304 47.3451 3.06595C47.1019 3.09178 46.8587 3.08532 46.6156 3.04659C46.6696 3.0143 46.7777 2.99493 46.9601 3.00139C47.0817 3.00139 47.2032 2.99493 47.3248 3.00139C47.4464 3.00785 47.5748 3.00139 47.7031 2.99493C47.8247 2.98848 47.9463 2.99494 48.0678 2.98202C48.1894 2.96911 48.311 2.99494 48.4461 2.96911C48.4056 2.93683 48.3718 2.94328 48.3448 2.94328C48.0408 2.94328 47.7369 2.94328 47.4329 2.94328C47.3789 2.94328 47.3181 2.9562 47.2775 2.92392C47.2167 2.85935 47.1492 2.84644 47.0614 2.82707C46.9128 2.80125 46.8993 2.78188 46.7912 2.80125C46.6899 2.82061 46.5953 2.83353 46.4872 2.82061C46.3521 2.8077 46.2103 2.80125 46.0752 2.8077C46.0144 2.8077 45.9536 2.83998 45.8928 2.85935C45.8523 2.87226 45.805 2.88518 45.7645 2.87226C45.6699 2.8529 45.5821 2.83353 45.4875 2.8529C45.4673 2.8529 45.4403 2.8529 45.4403 2.82707C45.4335 2.79479 45.4605 2.78833 45.4875 2.78833C45.6429 2.76251 45.7983 2.71731 45.9671 2.75605C46.0009 2.76251 46.0347 2.76896 46.0617 2.74959C46.1968 2.66566 46.3521 2.69794 46.5007 2.69794C46.5278 2.69794 46.5615 2.7044 46.5886 2.69794C46.7101 2.67212 46.8317 2.69149 46.9533 2.7044C46.9601 2.7044 46.9668 2.71086 46.9736 2.71086C47.3113 2.63984 47.6558 2.69149 48.0003 2.67212C48.0273 2.67212 48.0678 2.68503 48.0949 2.63984C47.7841 2.65275 47.4869 2.63984 47.1897 2.62692C47.2573 2.58819 47.3383 2.62047 47.4194 2.58173C47.2978 2.53654 47.1897 2.57527 47.0817 2.53654C47.156 2.53654 47.2303 2.53654 47.3113 2.53654C46.9466 2.51071 46.5818 2.49134 46.217 2.44615C46.3184 2.40095 46.4332 2.44615 46.5278 2.40741C46.5345 2.36867 46.4872 2.38158 46.4805 2.35576C46.4805 2.3493 46.4872 2.34285 46.494 2.34285C46.5615 2.33639 46.6291 2.34285 46.6966 2.36867C46.7777 2.40095 46.8587 2.43323 46.9263 2.34285C46.9331 2.33639 46.9533 2.32993 46.9601 2.33639C47.0681 2.40095 47.1492 2.2912 47.2573 2.30411C47.3586 2.32348 47.4599 2.28474 47.5612 2.27828C47.5747 2.27828 47.5815 2.27183 47.5815 2.246C47.4464 2.23955 47.3046 2.28474 47.1762 2.23309C47.2303 2.20726 47.2911 2.20081 47.3518 2.20081C47.4734 2.20726 47.6018 2.21372 47.7234 2.20726C47.7841 2.20726 47.8517 2.17498 47.9125 2.14916C47.9328 2.1427 47.9463 2.11687 47.9125 2.09751C47.8247 2.04586 47.7301 2.02649 47.6288 2.0394C47.4937 2.05231 47.3586 2.04586 47.2303 2.02649C47.0884 2.00712 46.9466 2.00066 46.8047 2.00066C46.7709 2.00066 46.7372 2.00712 46.6966 1.98129C46.7642 1.94255 46.8317 1.9361 46.8993 1.94255C46.9601 1.94901 47.0141 1.96192 47.0479 1.89736C47.0614 1.87799 47.0884 1.87799 47.1154 1.87153C47.156 1.87153 47.1965 1.86508 47.237 1.86508C47.3451 1.86508 47.4464 1.85217 47.5477 1.82634C47.6963 1.7876 47.8517 1.77469 48.0071 1.76823C48.0881 1.76823 48.1624 1.75532 48.2232 1.6843C48.1421 1.66493 48.0611 1.67139 47.9868 1.63911C48.0476 1.61328 48.1151 1.61974 48.1692 1.581C48.1962 1.56163 48.2029 1.54872 48.1894 1.51644C48.1557 1.45187 48.1151 1.40668 48.0341 1.38731C47.8112 1.3292 47.5815 1.34857 47.3586 1.34212C47.3113 1.34212 47.2573 1.35503 47.21 1.30983C47.2573 1.26464 47.3113 1.27755 47.3654 1.27755C47.5883 1.28401 47.8112 1.23236 48.0273 1.21945C48.0678 1.21945 48.1354 1.21945 48.1286 1.16134C48.1219 1.11614 48.0611 1.13551 48.0206 1.13551C47.8179 1.14197 47.6153 1.10323 47.4126 1.10969C47.3924 1.10969 47.3721 1.10969 47.3518 1.10323C47.3451 1.10323 47.3316 1.09032 47.3248 1.08386C47.3181 1.06449 47.3316 1.05804 47.3518 1.05158C47.4194 1.03867 47.4869 1.03221 47.5545 1.02576C47.6626 1.01284 47.7841 1.0193 47.8787 0.94828C47.8922 0.935367 47.926 0.935367 47.9463 0.935367C48.0881 0.954736 48.1827 0.864348 48.2975 0.799785C48.0138 0.619007 47.7031 0.593182 47.3721 0.580269C47.4059 0.515706 47.4532 0.522162 47.5005 0.522162C47.6153 0.528619 47.6153 0.528619 47.7098 0.489881C47.7031 0.470512 47.6828 0.470512 47.6693 0.470512C47.4532 0.464056 47.2438 0.464056 47.0276 0.457599C46.8587 0.451143 46.6899 0.470512 46.521 0.476968C46.3994 0.483424 46.2711 0.483424 46.1563 0.425318C46.0752 0.38658 45.9806 0.399492 45.8928 0.38658C45.7915 0.373667 45.6902 0.360754 45.5956 0.341385C45.501 0.322016 45.4132 0.31556 45.3187 0.309104C45.1025 0.289735 44.8864 0.263909 44.6702 0.231628C44.5959 0.225171 44.5284 0.218715 44.4541 0.212259C44.0825 0.205802 43.711 0.205802 43.3395 0.218715C43.0626 0.231628 42.7924 0.218715 42.5154 0.179977C42.4141 0.167064 42.3196 0.141239 42.225 0.205802C42.2115 0.212259 42.1912 0.212259 42.1777 0.212259C42.0291 0.179977 41.8805 0.199346 41.7319 0.19289C41.6373 0.19289 41.5495 0.173521 41.4549 0.173521C41.0497 0.154152 40.6444 0.0831321 40.2323 0.0960447C39.8946 0.108957 39.5569 0.0960447 39.2259 0.0960447C39.1989 0.0960447 39.1718 0.0960447 39.1448 0.0960447C39.1448 0.102501 39.1448 0.108957 39.1448 0.115414C39.1921 0.12187 39.2394 0.128326 39.2867 0.141239C39.334 0.154152 39.3812 0.167064 39.415 0.199346C39.388 0.225171 39.3542 0.218715 39.3272 0.212259C39.2056 0.19289 39.0773 0.19289 38.9489 0.199346C38.699 0.212258 38.4558 0.179977 38.2127 0.167064C38.0843 0.154152 37.956 0.179977 37.8344 0.186433C37.7061 0.192889 37.571 0.179977 37.4426 0.212258C37.3886 0.225171 37.3481 0.167064 37.3075 0.17352C37.2602 0.179977 37.2197 0.212258 37.1724 0.205802C37.1522 0.205802 37.1252 0.205802 37.1116 0.199346C37.0306 0.141239 36.936 0.141239 36.8482 0.141239C36.5375 0.128326 36.2268 0.12187 35.9161 0.0960445C35.7877 0.0895882 35.6526 0.102501 35.5378 0.0443939C35.531 0.0379376 35.5243 0.0379376 35.5108 0.0379376C35.3757 0.0443939 35.2406 0.0508502 35.1055 0.0637629C35.0717 0.0637629 35.0447 0.0831318 35.0447 0.12187C35.0447 0.141239 35.0447 0.167064 35.0177 0.167064C34.9907 0.167064 34.9839 0.154151 34.9771 0.134782C34.9704 0.12187 34.9704 0.102501 34.9636 0.0895881C34.9501 0.0702192 34.9299 0.0637628 34.9096 0.0702192C34.8826 0.0831318 34.8893 0.0960445 34.9028 0.115413C34.9299 0.154151 34.9028 0.17352 34.8691 0.17352C34.788 0.17352 34.707 0.179977 34.6259 0.167064C34.5381 0.154151 34.4503 0.154151 34.3625 0.154151C33.9977 0.141239 33.6329 0.12187 33.2682 0.128326C33.2209 0.128326 33.1804 0.115413 33.1331 0.115413C33.0385 0.102501 32.9507 0.102501 32.8561 0.134782C32.7683 0.167064 32.6738 0.179977 32.5792 0.179977C32.3158 0.179977 32.0523 0.179977 31.7889 0.179977C31.4782 0.186433 31.1675 0.192889 30.8567 0.212258C30.6136 0.225171 30.3704 0.225171 30.1272 0.225171C29.9786 0.225171 29.8368 0.192889 29.6882 0.199345C29.6612 0.199345 29.6341 0.192889 29.6071 0.17352C29.5733 0.147695 29.5396 0.128326 29.499 0.160607C29.4923 0.167064 29.472 0.17352 29.4653 0.167064C29.3504 0.102501 29.2221 0.141239 29.0938 0.134782C29.06 0.134782 29.0262 0.134782 28.9992 0.134782C28.8708 0.134782 28.7493 0.167064 28.6344 0.231627C28.6007 0.250996 28.5669 0.250996 28.5264 0.250996C28.425 0.250996 28.3305 0.250996 28.2291 0.289734C28.1413 0.322016 28.04 0.322016 27.9387 0.322016C27.8711 0.322016 27.8036 0.309103 27.736 0.334928C27.709 0.347841 27.6753 0.341384 27.655 0.322016C27.601 0.276821 27.5334 0.289734 27.4726 0.289734C27.3308 0.29619 27.1889 0.302647 27.0471 0.309103C27.02 0.309103 26.993 0.315559 26.966 0.322015C26.8647 0.347841 26.7634 0.360753 26.6553 0.334928C26.5675 0.315559 26.4729 0.341384 26.3783 0.347841C26.2297 0.360753 26.0879 0.341384 25.946 0.309103C25.8988 0.29619 25.8515 0.289734 25.8042 0.309103C25.7839 0.315559 25.7637 0.322015 25.7434 0.322015C25.5948 0.29619 25.4394 0.322015 25.2908 0.315559C25.2435 0.315559 25.1963 0.322015 25.149 0.328472C25.0612 0.341384 24.9734 0.360753 24.8855 0.328472C24.8653 0.322015 24.845 0.309103 24.8248 0.315559C24.7234 0.360753 24.6356 0.302646 24.5478 0.283277C24.4803 0.263908 24.406 0.257452 24.3384 0.29619C24.3249 0.302646 24.3046 0.315559 24.2979 0.315559C24.1898 0.289734 24.0682 0.347841 23.9669 0.289734C23.9399 0.276821 23.9061 0.276821 23.8723 0.283277C23.7643 0.302646 23.6562 0.315559 23.5481 0.289734C23.5346 0.289734 23.5211 0.283277 23.5143 0.289734C23.3927 0.347841 23.2779 0.276821 23.1698 0.250996C23.1158 0.238083 23.0685 0.231627 23.0212 0.263908C22.9875 0.289734 22.9402 0.29619 22.8929 0.283277C22.8186 0.257452 22.7308 0.270365 22.6565 0.231627C22.6227 0.212258 22.5822 0.22517 22.5484 0.238083C22.4944 0.263908 22.4336 0.270365 22.3728 0.276821C22.312 0.283277 22.2579 0.302646 22.2039 0.257452C22.1972 0.250996 22.1769 0.244539 22.1701 0.250996C22.0756 0.276821 21.9878 0.244539 21.9067 0.205801C21.8662 0.186432 21.8256 0.186432 21.7784 0.199345C21.7108 0.218714 21.6365 0.257452 21.5757 0.186432C21.569 0.179976 21.5555 0.179976 21.5555 0.179976C21.4947 0.250996 21.4474 0.179976 21.4001 0.160607C21.3596 0.147694 21.319 0.141238 21.2785 0.160607C21.1907 0.199345 21.1096 0.192889 21.0218 0.154151C20.9881 0.134782 20.9408 0.121869 20.9475 0.199345C20.9543 0.231627 20.9137 0.231627 20.8935 0.218714C20.7719 0.147694 20.6571 0.231627 20.5422 0.244539C20.522 0.244539 20.5017 0.257452 20.495 0.276821C20.4747 0.347841 20.4139 0.354297 20.3531 0.354297C20.0627 0.34784 19.779 0.360753 19.4885 0.334928C19.117 0.302646 18.7455 0.302646 18.374 0.302646C17.8201 0.302646 17.2662 0.309102 16.7055 0.302646C16.4894 0.302646 16.2665 0.29619 16.0503 0.270364C15.8072 0.244539 15.564 0.257452 15.3141 0.257452C15.2533 0.257452 15.1925 0.244539 15.1317 0.238083C14.875 0.218714 14.6251 0.22517 14.3684 0.244539C14.3481 0.244539 14.3211 0.238083 14.2941 0.238083C14.2738 0.231626 14.2536 0.218714 14.2333 0.22517C14.1117 0.244539 13.9901 0.231626 13.8753 0.186432C13.801 0.231626 13.7199 0.212257 13.6456 0.212257C13.5376 0.218714 13.4362 0.22517 13.3282 0.238083C13.2539 0.244539 13.1728 0.231626 13.0985 0.205801C12.9904 0.173519 12.8824 0.134781 12.7743 0.108956C12.7 0.0895872 12.6257 0.0702182 12.5446 0.0895872C12.4906 0.1025 12.4433 0.0766745 12.4028 0.0443929C12.3285 -0.013714 12.3217 -0.013714 12.2474 0.0379366C12.1934 0.0766745 12.1461 0.1025 12.0853 0.0573055C12.0313 0.0185676 11.9772 0.0314802 11.9299 0.0702182C11.9097 0.0831308 11.9029 0.108956 11.8759 0.115412C11.8691 0.115412 11.8624 0.115412 11.8556 0.108956C11.8219 0.0831308 11.8151 0.0250239 11.7543 0.0443929C11.707 0.0573055 11.7138 0.108956 11.7003 0.141238C11.6733 0.218714 11.5382 0.257452 11.4571 0.212257C11.4368 0.205801 11.4233 0.186432 11.4098 0.173519C11.3693 0.147694 11.3355 0.141238 11.3017 0.179976C11.268 0.231626 11.2139 0.231626 11.1599 0.231626C10.8559 0.22517 10.552 0.276821 10.2548 0.296189C10.2412 0.296189 10.2277 0.296189 10.221 0.296189C9.95079 0.289733 9.6806 0.328471 9.41041 0.322015C9.14022 0.322015 8.87003 0.354296 8.59984 0.34784C8.46475 0.341384 8.3229 0.34784 8.1878 0.34784C8.15403 0.34784 8.09999 0.334927 8.09323 0.380122C8.08648 0.41886 8.14052 0.431772 8.17429 0.438229C8.25535 0.464054 8.33641 0.464054 8.41746 0.464054C8.53229 0.464054 8.64037 0.476966 8.7552 0.528617C8.71467 0.560899 8.6809 0.547986 8.64713 0.54153C8.56607 0.528617 8.48501 0.528617 8.41071 0.560899C8.37018 0.580268 8.3229 0.580268 8.28237 0.580268C8.07297 0.586724 7.87033 0.580268 7.66093 0.59318C7.45829 0.606093 7.25565 0.580268 7.05976 0.573811C6.93817 0.573811 6.80983 0.580268 6.68825 0.580268C6.62745 0.560899 6.62745 0.567355 6.62745 0.580268ZM38.6855 2.47197C38.699 2.49134 38.7328 2.4978 38.7463 2.52362C38.7328 2.56236 38.6855 2.51071 38.672 2.56236C38.7666 2.56882 38.8611 2.56882 38.9489 2.57527C39.2461 2.59464 39.5366 2.62692 39.8338 2.62047C39.8608 2.62047 39.8811 2.62047 39.9081 2.62047C40.0432 2.64629 40.1783 2.65921 40.3201 2.65921C40.4552 2.65921 40.5971 2.66566 40.7322 2.67212C40.8132 2.67857 40.8943 2.67857 40.9754 2.67857C41.2523 2.67212 41.5293 2.68503 41.7994 2.71731C41.9818 2.73668 42.1642 2.74959 42.3398 2.74959C42.5357 2.74959 42.7383 2.75605 42.9342 2.76251C43.1031 2.76896 43.272 2.75605 43.4408 2.76896C43.5489 2.78188 43.657 2.77542 43.7651 2.76896C43.8596 2.76251 43.961 2.75605 44.0555 2.76251C44.1906 2.77542 44.3325 2.77542 44.4676 2.75605C44.4946 2.74959 44.5216 2.75605 44.5554 2.75605C44.5756 2.75605 44.5959 2.76251 44.6027 2.78833C44.6027 2.8077 44.5891 2.81416 44.5756 2.82061C44.5013 2.85935 44.4203 2.88518 44.3325 2.88518C44.2649 2.88518 44.2041 2.87872 44.1366 2.87226C44.0353 2.87226 43.9272 2.84644 43.8461 2.93683C43.8191 2.96265 43.7786 2.96265 43.7448 2.94974C43.6637 2.92392 43.5827 2.88518 43.4881 2.91746C43.4746 2.92392 43.4611 2.90455 43.4476 2.89809C43.3598 2.86581 43.2652 2.83998 43.1707 2.83353C42.8194 2.82707 42.4749 2.79479 42.1237 2.8077C42.0426 2.81416 41.9616 2.81416 41.8872 2.83353C41.7994 2.85935 41.7049 2.87226 41.6103 2.83998C41.563 2.82707 41.5157 2.82061 41.4685 2.83353C41.4617 2.83353 41.4482 2.84644 41.4414 2.85935C41.4347 2.87872 41.4482 2.89163 41.4617 2.89809C41.509 2.911 41.563 2.91746 41.6103 2.93037C41.6103 2.93683 41.6103 2.94974 41.6035 2.9562C41.4347 2.91746 41.2591 2.93037 41.0834 2.90455C41.151 2.89809 41.1848 2.84644 41.232 2.81416C41.124 2.82061 41.0091 2.78188 40.9146 2.84644C40.9213 2.89163 40.9619 2.85935 40.9686 2.89163C40.847 2.89163 40.7254 2.89809 40.6038 2.89163C40.3134 2.86581 40.0229 2.86581 39.7325 2.8529C39.4961 2.83998 39.2597 2.85935 39.03 2.83998C38.8206 2.82707 38.618 2.82061 38.4153 2.83998C38.3478 2.84644 38.2735 2.8529 38.2329 2.8077C38.1856 2.75605 38.1249 2.75605 38.0641 2.76251C38.0303 2.76251 37.9898 2.77542 37.956 2.76251C37.8141 2.7044 37.6588 2.69794 37.5034 2.69149C37.4561 2.69149 37.4021 2.68503 37.3413 2.63984C37.4494 2.62047 37.5439 2.58819 37.6385 2.59464C37.6858 2.6011 37.7331 2.59464 37.7871 2.59464C37.8074 2.59464 37.8344 2.58819 37.8276 2.56236C37.8074 2.46552 37.8817 2.51071 37.9155 2.50425C37.9425 2.4978 37.9965 2.49134 37.9695 2.5559C37.956 2.58173 37.9898 2.59464 38.0033 2.58173C38.0641 2.54299 38.1316 2.51717 38.2059 2.5559C38.3207 2.51717 38.4356 2.53654 38.5504 2.53654C38.5639 2.53654 38.5842 2.53654 38.5774 2.52362C38.5707 2.45906 38.6585 2.51071 38.6855 2.47197C38.6044 2.43323 38.5166 2.43323 38.4356 2.45906C38.3275 2.4978 38.2397 2.45906 38.1384 2.44615C38.1181 2.44615 38.0978 2.43323 38.0978 2.40741C38.0978 2.38804 38.1113 2.36867 38.1316 2.36221C38.1924 2.3493 38.2667 2.33639 38.3207 2.37513C38.368 2.41387 38.4153 2.40741 38.4693 2.40095C38.5572 2.38804 38.645 2.36867 38.7328 2.38158C38.9557 2.40741 39.1718 2.42032 39.3947 2.42678C39.442 2.42678 39.4826 2.43323 39.5298 2.43323C39.7528 2.44615 39.9824 2.46552 40.2053 2.47843C40.2796 2.48488 40.3539 2.49134 40.435 2.50425C40.3945 2.54299 40.3539 2.54945 40.3066 2.5559C40.077 2.56236 39.8541 2.4978 39.6177 2.51071C39.5974 2.51071 39.5771 2.48489 39.5501 2.48489C39.5028 2.47843 39.4285 2.43969 39.4015 2.47843C39.361 2.54299 39.3137 2.51717 39.2664 2.51717C39.1989 2.51071 39.1381 2.50425 39.0705 2.50425C39.0435 2.50425 39.0165 2.51071 38.9962 2.4978C38.9084 2.41387 38.8003 2.4526 38.6855 2.47197ZM41.7116 3.06595C41.7116 3.07241 41.7116 3.07887 41.7116 3.08532C41.6171 3.07887 41.5225 3.07887 41.4279 3.06595C41.2658 3.04659 41.0969 3.04013 40.9348 3.05304C40.7119 3.0595 40.489 3.03367 40.2661 3.02722C40.0837 3.02076 39.9081 2.98848 39.7257 2.98848C39.6312 2.98848 39.5704 3.02076 39.5028 3.07887C39.5839 3.10469 39.6717 3.07241 39.7528 3.1176C39.7257 3.12406 39.7122 3.13052 39.7055 3.13052C39.3475 3.08532 38.9895 3.09178 38.6247 3.08532C38.5437 3.08532 38.4693 3.09178 38.395 3.03367C38.368 3.00785 38.3072 3.00785 38.2667 3.00785C38.2059 3.0143 38.1451 3.00785 38.0843 3.00139C38.0235 3.00139 37.956 2.99493 37.8952 3.03367C37.8682 3.05304 37.8547 3.09178 37.8141 3.09824C37.7669 3.09824 37.7601 3.0595 37.7331 3.03367C37.7128 3.02076 37.6723 3.02722 37.679 2.96911C37.7398 2.96911 37.8074 2.97557 37.8682 2.96911C38.1384 2.92392 38.4086 2.94974 38.6787 2.93037C38.753 2.92391 38.8341 2.93037 38.9084 2.94328C39.03 2.96265 39.1516 2.93037 39.2664 2.92392C39.5839 2.911 39.8946 2.9562 40.2121 2.94974C40.2391 2.94974 40.2594 2.9562 40.2864 2.9562C40.5228 2.97557 40.7525 2.99493 40.9889 3.0143C41.1645 3.02722 41.3469 3.03367 41.5225 3.04659C41.59 3.04013 41.6508 3.05304 41.7116 3.06595ZM42.7046 3.33066C42.7248 3.30484 42.7451 3.31129 42.7654 3.31129C42.9613 3.31129 43.1571 3.27256 43.3598 3.28547C43.4071 3.28547 43.4544 3.29193 43.4814 3.25319C43.5151 3.19508 43.5894 3.18862 43.6232 3.13052C43.6502 3.09178 43.7381 3.09178 43.7583 3.13052C43.7853 3.20154 43.8326 3.19508 43.8867 3.18217C44.0015 3.1628 44.1231 3.17571 44.2379 3.16926C44.2919 3.16926 44.2919 3.16926 44.2919 3.22736C44.2919 3.25964 44.3122 3.25319 44.3325 3.25319C44.5081 3.25319 44.6905 3.2661 44.8661 3.24028C44.9742 3.22736 45.0755 3.22736 45.1836 3.23382C45.2106 3.23382 45.2579 3.24028 45.2511 3.28547C45.2444 3.31775 45.2106 3.31775 45.1836 3.31775C45.1498 3.31775 45.1093 3.31129 45.0755 3.31129C44.8999 3.33066 44.7242 3.31129 44.5554 3.36295C44.5351 3.3694 44.5081 3.3694 44.4811 3.36295C44.3392 3.35003 44.1974 3.3694 44.0623 3.32421C44.0353 3.31775 43.9947 3.31775 43.9677 3.32421C43.7583 3.36295 43.5489 3.33066 43.3395 3.36295C43.3057 3.3694 43.2652 3.3694 43.2314 3.35649C43.0828 3.31129 42.9275 3.31129 42.7721 3.33712C42.7451 3.35003 42.7248 3.35649 42.7046 3.33066ZM36.2335 2.65921C36.0174 2.63984 35.808 2.67857 35.5986 2.66566C35.3892 2.65275 35.1798 2.65275 34.9704 2.63338C34.761 2.60756 34.5516 2.62692 34.3422 2.58819C34.3962 2.56236 34.457 2.5559 34.5178 2.56236C34.761 2.58819 35.0109 2.57527 35.2541 2.58819C35.531 2.6011 35.808 2.62047 36.0917 2.62047C36.139 2.61401 36.193 2.60756 36.2335 2.65921ZM33.1601 2.85935C33.0858 2.89809 32.9912 2.86581 32.9169 2.90455C32.944 2.93683 32.971 2.96265 33.0115 2.94974C33.1196 2.92391 33.2277 2.96911 33.3357 2.94974C33.383 2.94328 33.4506 2.93037 33.4978 2.98202C33.2412 2.96265 32.9777 2.99493 32.7211 2.96911C32.7211 2.92391 32.7683 2.94328 32.7683 2.89809C32.6265 2.87226 32.4914 2.96265 32.3631 2.93037C32.228 2.89809 32.0794 2.93037 31.9443 2.88518C32.3495 2.88518 32.7548 2.82707 33.1601 2.85935ZM14.2265 3.24027C14.1658 3.29192 14.0982 3.29838 14.0374 3.27901C14.0104 3.27256 13.9834 3.25964 13.9564 3.2661C13.801 3.29192 13.6524 3.27901 13.497 3.27901C13.3147 3.27901 13.1255 3.28547 12.9431 3.2661C12.9094 3.25964 12.8553 3.29192 12.8553 3.24673C12.8553 3.20154 12.9161 3.2209 12.9431 3.2209C13.2876 3.2209 13.6321 3.2209 13.9699 3.2209C14.0577 3.22736 14.1455 3.23382 14.2265 3.24027ZM26.3175 3.22091C26.9998 3.17571 27.682 3.20154 28.3642 3.20154C27.682 3.20154 26.9998 3.25964 26.3175 3.22091ZM36.524 2.84644C36.2268 2.84644 35.9498 2.84644 35.6661 2.84644C35.6256 2.84644 35.5648 2.8529 35.5648 2.81416C35.5648 2.75605 35.6324 2.77542 35.6729 2.77542C35.9228 2.78188 36.1727 2.79479 36.4227 2.80124C36.4497 2.80124 36.4902 2.79479 36.524 2.84644ZM47.3654 3.22091C47.3654 3.22736 47.3654 3.24028 47.3654 3.24673C47.2303 3.27256 47.0952 3.2661 46.9533 3.2661C46.8182 3.2661 46.6831 3.25964 46.5548 3.27256C46.3589 3.28547 46.217 3.27256 46.1495 3.23382C46.2103 3.22736 46.2576 3.22736 46.3049 3.22736C46.3927 3.22736 46.4872 3.19508 46.5683 3.20799C46.7237 3.22736 46.8723 3.22091 47.0276 3.22736C47.1357 3.22091 47.2505 3.22091 47.3654 3.22091ZM34.7137 2.78188C34.4435 2.77542 34.1733 2.78188 33.9031 2.74959C33.9099 2.7044 33.9302 2.69794 33.9572 2.69794C34.0112 2.7044 34.0653 2.7044 34.1125 2.73023C34.1396 2.74314 34.1666 2.74959 34.1936 2.74314C34.3017 2.71731 34.4097 2.73022 34.5178 2.73668C34.5854 2.73668 34.6529 2.76251 34.7137 2.78188ZM0.39282 2.11687C0.473877 2.15561 0.554934 2.14915 0.629237 2.12333C0.669765 2.11042 0.710294 2.12979 0.744067 2.1427C0.757577 2.14915 0.771086 2.15561 0.771086 2.17498C0.771086 2.19435 0.750822 2.20726 0.730558 2.21372C0.669765 2.22017 0.608972 2.23309 0.54818 2.23954C0.460368 2.25246 0.433349 2.23309 0.39282 2.11687ZM47.4599 3.36295C47.4194 3.40168 47.3924 3.4146 47.3586 3.4146C47.2505 3.42105 47.1424 3.39523 47.0344 3.4146C46.9871 3.42105 46.9195 3.4146 46.8858 3.34358C47.0749 3.34358 47.2573 3.35003 47.4599 3.36295ZM32.7481 2.74314C32.998 2.7044 33.2479 2.77542 33.4978 2.75605C33.2277 2.78833 32.8291 2.78188 32.7481 2.74314ZM46.9601 3.67931C46.8385 3.73096 46.7101 3.75033 46.5818 3.76324C46.575 3.76324 46.575 3.76324 46.5683 3.76324C46.5615 3.75678 46.548 3.75033 46.5413 3.74387C46.5345 3.7245 46.548 3.71159 46.5615 3.71159C46.6966 3.68576 46.825 3.67285 46.9601 3.67931ZM0.858898 2.57527C0.831879 2.56236 0.784596 2.57527 0.771086 2.53653C0.764332 2.49134 0.80486 2.47843 0.831879 2.46551C0.845389 2.45906 0.858898 2.4526 0.872408 2.44615C0.906181 2.43323 0.94671 2.42032 0.966974 2.46551C0.980484 2.50425 0.966974 2.54299 0.926446 2.56236C0.912936 2.56882 0.885917 2.56882 0.858898 2.57527ZM46.4602 3.61474C46.5075 3.54372 46.5683 3.5179 46.6358 3.5179C46.6696 3.5179 46.7034 3.51144 46.7101 3.55664C46.7101 3.58892 46.6899 3.61474 46.6561 3.6212C46.5953 3.63411 46.5345 3.64057 46.4602 3.61474ZM36.1592 2.96265C35.9566 3.00785 35.7607 2.94328 35.558 2.94328C35.7607 2.94974 35.9633 2.93037 36.1592 2.96265ZM35.477 2.75605C35.4094 2.82061 35.4094 2.82061 35.3824 2.82061C35.2541 2.82061 35.1257 2.82061 34.9974 2.82061C34.9974 2.81416 34.9974 2.80124 34.9974 2.79479C35.1595 2.82707 35.3081 2.74959 35.477 2.75605ZM47.1222 3.53081C47.0614 3.54372 47.0276 3.58892 46.9736 3.60183C46.906 3.61474 46.8723 3.55664 46.8115 3.51144C46.9331 3.49853 47.0276 3.5179 47.1222 3.53081ZM24.0817 3.38231C24.1763 3.29192 24.183 3.29193 24.3317 3.3694C24.2574 3.4146 24.1831 3.38877 24.0817 3.38231ZM35.3959 2.92392C35.3959 2.93037 35.3959 2.94328 35.3959 2.94974C35.2541 2.97557 35.1122 2.91746 34.9704 2.92392C35.1122 2.92392 35.2541 2.92392 35.3959 2.92392ZM31.235 2.94974C31.3161 2.93683 31.3769 2.93683 31.4377 2.94974C31.4444 2.94974 31.4579 2.96265 31.4647 2.96911C31.4714 2.98848 31.4579 3.00139 31.4377 3.00139C31.3769 3.00785 31.3093 3.00785 31.235 2.94974ZM1.41279 2.38804C1.39252 2.38804 1.3655 2.39449 1.35875 2.36221C1.35875 2.33639 1.39252 2.33639 1.41279 2.32993C1.43305 2.32348 1.45332 2.32348 1.47358 2.31702C1.5006 2.31056 1.54113 2.30411 1.54788 2.33639C1.55464 2.38158 1.50735 2.37513 1.48034 2.37513C1.45332 2.38158 1.43981 2.38804 1.41279 2.38804ZM47.0479 2.87226C46.906 2.91746 46.8452 2.91746 46.7777 2.88518C46.798 2.86581 46.825 2.87226 46.8452 2.87226C46.906 2.87226 46.9736 2.87226 47.0479 2.87226Z"/>
</svg>
