<svg width="34" height="31" viewBox="0 0 34 31" xmlns="http://www.w3.org/2000/svg">
<path d="M33.347 16.1509C33.3566 16.2089 33.3662 16.2669 33.3758 16.3249V16.3153C33.3758 16.3443 33.3758 16.3636 33.3758 16.3926V16.383C33.347 16.47 33.3566 16.5667 33.3758 16.6538V16.6441C33.3758 16.9439 33.3662 17.2437 33.3662 17.5435C33.3566 17.7466 33.3566 17.9594 33.3183 18.1625C33.2895 18.3075 33.2895 18.4719 33.2703 18.6267C33.2511 18.7524 33.2511 18.8878 33.1839 19.0039H33.1935C33.1935 18.9168 33.1839 18.8201 33.1935 18.7331C33.1935 18.5686 33.2031 18.4042 33.2127 18.2398C33.2127 18.2108 33.2031 18.1818 33.1935 18.1528C33.1935 18.1334 33.1935 18.1141 33.1935 18.0851C33.1935 18.0754 33.1935 18.0754 33.1935 18.0657C33.1935 18.0754 33.1935 18.0754 33.2031 18.0851C33.2031 18.1044 33.2031 18.1238 33.2031 18.1528C33.1551 18.1818 33.1551 18.2205 33.1551 18.2688C33.1551 18.3365 33.1551 18.4042 33.0976 18.4526H33.1072C33.0976 18.4139 33.088 18.3656 33.0784 18.3269C33.0688 18.2882 33.0688 18.2592 33.0592 18.2205C33.0592 18.2108 33.0688 18.2108 33.0688 18.2011V18.1915C33.0688 18.2011 33.0688 18.2108 33.0688 18.2205C33.0592 18.2302 33.0496 18.2398 33.04 18.2592C33.0208 18.3946 32.992 18.53 32.9824 18.6654C32.9632 18.8781 32.9536 19.0909 32.8385 19.2843C32.8097 19.3327 32.8481 19.41 32.8193 19.4584C32.7809 19.5164 32.7809 19.5745 32.7713 19.6325C32.7521 19.7582 32.7329 19.8936 32.6466 20C32.589 20 32.5698 19.9613 32.5794 19.9129C32.589 19.8259 32.6082 19.7292 32.5698 19.6421C32.5698 19.6228 32.5698 19.5938 32.5698 19.5744C32.5794 19.5454 32.589 19.5164 32.5986 19.4777C32.5986 19.4584 32.5986 19.4294 32.6082 19.41V19.4004V19.41C32.6082 19.4294 32.6082 19.4487 32.6082 19.4777C32.5986 19.5068 32.589 19.5358 32.5794 19.5744C32.5794 19.5938 32.5794 19.6228 32.5794 19.6421C32.5122 19.7389 32.5026 19.8452 32.4834 19.9516C32.4738 19.9806 32.4642 20 32.4546 20.029H32.4642C32.3971 19.9903 32.3971 19.9903 32.3587 20.0677H32.3683C32.3203 20.0677 32.2915 20.0774 32.3011 20.1354V20.1257C32.2915 20.1644 32.2819 20.1934 32.2627 20.2321V20.2224C32.2435 20.2418 32.2243 20.2708 32.2051 20.2901H32.2147C32.1956 20.2031 32.186 20.116 32.2243 20.0193C32.2531 19.9516 32.2531 19.8743 32.2243 19.7969C32.2339 19.7775 32.2531 19.7582 32.2627 19.7389C32.2627 19.7389 32.2627 19.7292 32.2627 19.7195C32.2531 19.7195 32.2339 19.7292 32.2339 19.7292C32.2339 19.7485 32.2339 19.7775 32.2339 19.7969C32.1572 19.8936 32.1476 20.0097 32.1188 20.116C32.1092 20.1644 32.1092 20.2127 32.0804 20.2418C31.9748 20.3481 31.9557 20.4835 31.9077 20.6093C31.8117 20.8414 31.7062 21.0735 31.6198 21.3153C31.543 21.528 31.4855 21.7601 31.4183 21.9729C31.3127 22.2727 31.1976 22.5628 31.092 22.8626C31.0632 22.9303 31.0345 22.9884 30.9865 23.0464C30.9001 23.1431 30.8329 23.2592 30.7946 23.3849C30.7658 23.4623 30.7274 23.5396 30.689 23.617C30.4875 23.9942 30.3052 24.3714 30.0557 24.7195C30.0461 24.7292 30.0365 24.7485 30.0269 24.7582C29.9789 24.9323 29.8446 25.058 29.7582 25.2031C29.6623 25.3481 29.5663 25.5029 29.4607 25.6383C29.2784 25.8801 29.0865 26.1122 28.8946 26.3346C28.7315 26.5184 28.5395 26.6731 28.3668 26.8472C28.3476 26.8665 28.3188 26.8859 28.2997 26.9149C28.1077 27.2243 27.8103 27.4178 27.5416 27.6499C27.4744 27.7079 27.4168 27.7853 27.3401 27.8433C26.985 28.1141 26.6108 28.3559 26.227 28.5686C26.083 28.646 25.9391 28.7137 25.7951 28.7814C25.7855 28.7814 25.7855 28.7911 25.7759 28.7911C25.5265 28.7911 25.3537 28.9652 25.1426 29.0522C24.6436 29.2746 24.1447 29.4971 23.6169 29.6421C23.3866 29.7098 23.1563 29.7582 22.926 29.8066C22.8876 29.8162 22.8588 29.8066 22.83 29.7775C22.7341 29.7098 22.6285 29.7002 22.5134 29.7389C22.3406 29.7969 22.1583 29.8356 21.976 29.8356C21.9088 29.8356 21.8609 29.8066 21.8225 29.7389C21.9952 29.6035 22.2063 29.5261 22.4078 29.4294C22.3502 29.41 22.3119 29.3907 22.2639 29.3714V29.381C22.3119 29.3617 22.3598 29.323 22.4078 29.3133C22.8492 29.2166 23.2427 29.0232 23.6457 28.8298C23.6745 28.8104 23.7033 28.7814 23.732 28.7524C23.78 28.7717 23.8184 28.7524 23.8184 28.675C23.78 28.704 23.7512 28.7331 23.732 28.7524C23.5881 28.7717 23.4634 28.8394 23.329 28.8878C23.2139 28.9362 23.0987 28.9845 22.9932 29.0329C22.9644 29.0425 22.9356 29.0425 22.8684 29.0522C22.9932 28.9361 23.1275 28.9071 23.2331 28.8491C23.3482 28.7814 23.4634 28.7234 23.5785 28.6654C23.6937 28.6073 23.8184 28.559 23.9432 28.4623C23.7416 28.4236 23.5977 28.5686 23.425 28.5686C23.4538 28.5009 23.5017 28.4623 23.5689 28.4526C23.6745 28.4236 23.7704 28.3849 23.8568 28.3075C23.8664 28.2979 23.876 28.2785 23.8952 28.2785C24.1447 28.2205 24.2694 28.0077 24.4421 27.853C24.4709 27.824 24.4997 27.8046 24.5381 27.7853C24.5669 27.7659 24.6053 27.7466 24.634 27.7273C24.778 27.5725 24.9507 27.4661 25.1138 27.3307C25.1138 27.3307 25.1138 27.3114 25.1234 27.2921C25.0851 27.2921 25.0467 27.2921 24.9891 27.2921C25.0179 27.2534 25.0371 27.2244 25.0659 27.1857C25.0275 27.176 24.9987 27.1663 24.9603 27.1567C25.0563 27.0309 25.1906 26.9536 25.3058 26.8665C25.4593 26.7601 25.5936 26.6441 25.7088 26.4893C25.7568 26.4313 25.8143 26.3733 25.8623 26.3153C25.9007 26.2669 25.9583 26.2282 25.9775 26.1702C26.0638 25.9961 26.2078 25.8704 26.3421 25.7253C26.937 25.1064 27.4744 24.4487 27.935 23.7234C28.0789 23.4913 28.2325 23.2495 28.3764 23.0174C28.4628 22.882 28.5299 22.7369 28.6067 22.5919C28.6259 22.5532 28.6451 22.5048 28.6547 22.4661C28.6643 22.3984 28.6739 22.3307 28.7507 22.2921C28.7698 22.2824 28.789 22.2534 28.7794 22.234C28.7603 22.147 28.8274 22.089 28.8562 22.0213C28.9138 21.8665 28.9905 21.7215 29.0481 21.5667C29.0865 21.4603 29.1153 21.3733 29.1921 21.2862C29.2208 21.2572 29.2304 21.2185 29.24 21.1799C29.336 20.8994 29.4416 20.6093 29.5183 20.3191C29.5855 20.0774 29.6527 19.8259 29.7006 19.5841C29.7678 19.2843 29.835 18.9845 29.8926 18.675C29.9405 18.3946 29.9789 18.1141 30.0173 17.824C30.0269 17.7466 29.9789 17.6596 29.9597 17.5532C29.9693 17.5435 29.9789 17.5048 29.9981 17.4758C30.0269 17.4178 30.0365 17.3598 30.0173 17.3017C29.9789 17.1953 29.9789 17.089 30.0365 16.9922C30.0557 16.9632 30.0653 16.9245 30.0653 16.8859C30.0749 16.7311 30.0845 16.5764 30.0845 16.4216C30.0845 16.3733 30.0845 16.3153 30.0653 16.2863C29.9693 16.1992 29.9981 16.0928 29.9597 15.9864C29.9022 15.8124 29.9213 15.6383 29.9213 15.4642C29.9213 15.3965 29.9309 15.3288 29.9501 15.2611C29.9885 15.0774 30.0557 14.8936 29.9405 14.7002C29.9309 14.6808 29.9405 14.6422 29.9309 14.6131C29.9213 14.5648 29.9117 14.5068 29.9021 14.4584C29.8638 14.1683 29.7582 13.8878 29.7486 13.5977C29.739 13.4333 29.7198 13.2592 29.7006 13.0948C29.7006 13.0561 29.6719 13.0271 29.6623 12.9884C29.6335 12.882 29.6047 12.7853 29.5855 12.6789C29.5471 12.4952 29.5087 12.3114 29.4032 12.1567C29.384 12.1276 29.3648 12.0986 29.3648 12.0793C29.3648 11.9246 29.2688 11.8085 29.2113 11.6731C29.1921 11.6054 29.1537 11.5474 29.1345 11.4797C29.0961 11.3346 29.0385 11.1992 28.9522 11.0832C28.9138 11.0348 28.8946 10.9768 28.8658 10.9187C28.8082 10.8124 28.7507 10.6963 28.7027 10.5899C28.6643 10.5126 28.6547 10.4255 28.6067 10.3578C28.5491 10.2901 28.5299 10.2128 28.5108 10.1257C28.5012 10.0677 28.4724 10.0097 28.4244 9.9613C28.2613 9.78722 28.1557 9.56479 28.0406 9.36169C27.9542 9.20695 27.8582 9.06188 27.7527 8.91682C27.5032 8.56865 27.2441 8.22049 26.985 7.882C26.8411 7.68858 26.678 7.5145 26.5244 7.33074C26.4764 7.28239 26.4381 7.22436 26.3997 7.16633C26.3613 7.10831 26.3325 7.05028 26.2653 7.01159C26.2174 6.98258 26.1694 6.93423 26.1406 6.8762C26.0926 6.77949 26.0254 6.72146 25.9391 6.66343C25.8911 6.63442 25.8431 6.60541 25.8143 6.56672C25.6224 6.36363 25.4017 6.20889 25.2002 6.01546C25.0755 5.89941 24.9507 5.78336 24.8164 5.68664C24.6245 5.56092 24.4517 5.41585 24.2598 5.28045C23.9048 5.029 23.5209 4.80657 23.1467 4.58413C22.6093 4.27465 22.0432 4.01353 21.4578 3.79109C21.1508 3.67504 20.8341 3.57833 20.5174 3.49129C20.4599 3.47195 20.4023 3.44293 20.3447 3.42359C20.2296 3.37523 20.1144 3.33655 19.9897 3.31721C19.8937 3.30754 19.7978 3.25918 19.7018 3.23984C19.3947 3.19148 19.0781 3.14313 18.771 3.10444C18.6846 3.09477 18.5887 3.06576 18.5023 3.05608C18.1953 3.02707 17.8978 2.98839 17.5907 2.96904C17.5044 2.95937 17.418 2.96904 17.3412 2.95937C16.8902 2.9497 16.4392 2.9497 15.9882 2.98839C15.7291 3.00773 15.47 3.02707 15.211 3.06576C14.8271 3.11411 14.4337 3.17214 14.0595 3.26885C13.8196 3.33655 13.5701 3.39458 13.3206 3.4526C12.9751 3.53964 12.6297 3.66537 12.3034 3.80077C11.8716 3.96518 11.4302 4.13926 11.0176 4.36169C10.6625 4.55512 10.3075 4.75821 9.95245 4.96131C9.3863 5.28045 8.86813 5.65763 8.35955 6.06382C7.76461 6.53771 7.21765 7.06962 6.71867 7.65956C6.48837 7.94003 6.25807 8.22049 6.03736 8.51063C5.86464 8.74273 5.70151 8.99419 5.54798 9.24564C5.32727 9.61314 5.10657 9.99032 4.89546 10.3675C4.76112 10.6093 4.64597 10.8607 4.53082 11.1122C4.31971 11.557 4.14699 12.0213 4.00305 12.4952C3.8783 12.9207 3.75356 13.3559 3.6672 13.8008C3.60003 14.1683 3.52326 14.5261 3.47528 14.8936C3.39851 15.4642 3.36973 16.0348 3.36973 16.6054C3.36973 17.2921 3.4273 17.9787 3.52326 18.6654C3.60962 19.265 3.77275 19.8452 3.95507 20.4158C3.96467 20.4642 3.97426 20.5126 4.00305 20.5416C4.07982 20.6286 4.1278 20.7156 4.09901 20.8317C4.20456 20.9864 4.21416 21.1799 4.28133 21.3539C4.38688 21.6538 4.51163 21.9439 4.64597 22.2244C4.82829 22.6305 5.04899 23.0174 5.2697 23.4139C5.54798 23.9071 5.89342 24.3714 6.22928 24.8259C6.31564 24.942 6.43079 25.0387 6.52675 25.1547C6.65149 25.2998 6.77624 25.4449 6.90099 25.5899C6.94896 25.648 7.00654 25.706 7.08331 25.735C7.12169 25.7447 7.15048 25.7737 7.17926 25.8027C7.29441 25.9381 7.40956 26.0735 7.52471 26.1992C7.64946 26.3443 7.76461 26.499 7.95652 26.5667C7.97572 26.5764 8.0045 26.5861 8.0141 26.6054C8.11965 26.7698 8.31157 26.8472 8.43632 26.9922C8.53227 27.1083 8.66662 27.1953 8.80096 27.2727C8.9353 27.3501 9.06004 27.4371 9.17519 27.5338C9.3959 27.7176 9.6166 27.882 9.87569 28.0077C10.0964 28.1141 10.2979 28.2592 10.509 28.3849C10.557 28.4139 10.605 28.4429 10.6529 28.4623C10.7777 28.5009 10.912 28.5203 11.0272 28.5783C11.1423 28.646 11.2575 28.704 11.3726 28.7524C11.4782 28.7911 11.5646 28.8394 11.5933 28.9652C11.6029 28.9942 11.6413 29.0232 11.6701 29.0425C11.8044 29.1199 11.8428 29.2263 11.7853 29.381C11.7757 29.41 11.7757 29.439 11.7661 29.4777C11.8332 29.4971 11.9004 29.5164 11.9676 29.5454C12.0252 29.5648 12.0539 29.6035 12.0443 29.6712C12.0347 29.7292 12.0156 29.7872 11.958 29.7969C11.8236 29.8162 11.7181 29.8839 11.5933 29.9226C11.5166 29.9516 11.4302 29.942 11.3438 29.942C11.2287 29.9323 11.1135 29.9516 10.9984 29.971C10.8737 29.9903 10.7585 30.0096 10.6338 30.029C10.5762 29.9806 10.5282 29.9226 10.4706 29.8839C10.3939 29.8356 10.3171 29.7582 10.2019 29.8066C10.1444 29.8259 10.0868 29.7872 10.0388 29.7485C9.92367 29.6615 9.80852 29.5938 9.66458 29.6615C9.6166 29.6808 9.36711 29.6131 9.29034 29.5744C9.24236 29.5551 9.19438 29.5261 9.14641 29.5164C9.03126 29.4971 8.9257 29.4584 8.82015 29.4294C8.68581 29.4004 8.55147 29.381 8.41712 29.4004C8.34036 29.41 8.29238 29.4004 8.22521 29.381C8.0141 29.3423 7.80299 29.3133 7.59188 29.2843C7.57269 29.2843 7.5631 29.2843 7.54391 29.2843C7.30401 29.3327 7.0929 29.2263 6.88179 29.1392C6.70907 29.0715 6.55554 28.9748 6.4212 28.8491C6.23887 28.6847 6.03736 28.5396 5.84545 28.3849C5.82625 28.3752 5.80706 28.3559 5.78787 28.3462C5.45202 28.2011 5.19293 27.94 4.90506 27.7273C4.82829 27.6692 4.76112 27.6305 4.65557 27.6209C4.54042 27.6015 4.41567 27.5628 4.30052 27.5242C4.18537 27.4855 4.1086 27.3984 4.08941 27.2727C4.07982 27.1857 4.03184 27.118 3.97426 27.0503C3.90709 26.9826 3.83992 26.9052 3.81113 26.7988C3.93588 26.8182 3.93588 26.9729 4.05103 26.9922C4.07022 26.9439 4.02224 26.9245 4.00305 26.9052C3.93588 26.7988 3.84952 26.7021 3.83992 26.557C3.83992 26.5184 3.78235 26.4893 3.75356 26.4507V26.441V26.4507C3.72477 26.441 3.69598 26.4313 3.67679 26.412C3.648 26.3926 3.63841 26.3443 3.60962 26.3249C3.50407 26.2766 3.4369 26.1799 3.41771 26.0832C3.38892 25.9284 3.27377 25.8414 3.17781 25.7156C3.15862 25.7737 3.14902 25.8124 3.13943 25.8897C3.10104 25.8317 3.08185 25.8027 3.07226 25.764C3.01468 25.6479 2.98589 25.5222 2.88034 25.4255C2.82276 25.3675 2.81317 25.2708 2.78438 25.1934C2.746 25.0483 2.69802 24.9129 2.60206 24.7969C2.59247 24.7872 2.56368 24.7775 2.54449 24.7775H2.55408C2.5061 24.7098 2.46772 24.6421 2.41974 24.5841V24.5938C2.42934 24.5648 2.41014 24.5454 2.38136 24.5551H2.39095C2.37176 24.4294 2.33338 24.3133 2.22782 24.236C2.18944 24.236 2.15106 24.236 2.12227 24.236C2.10308 24.2166 2.09348 24.2166 2.08389 24.1973C2.01672 24.0812 1.95914 23.9652 1.97833 23.8298C1.98793 23.7911 1.94955 23.7427 1.92076 23.7137C1.87278 23.6654 1.8248 23.617 1.77682 23.5686C1.67127 23.4816 1.66167 23.4623 1.71925 23.3365C1.76723 23.2302 1.72884 23.1238 1.70965 23.0174C1.69046 22.9303 1.66167 22.8433 1.64248 22.7466H1.63288C1.67127 22.7756 1.70005 22.8143 1.73844 22.8433C1.70965 22.9207 1.74803 22.9787 1.79601 23.0367C1.80561 23.0561 1.80561 23.0657 1.80561 23.0561C1.8152 23.0657 1.80561 23.0561 1.79601 23.0464C1.84399 22.9594 1.79601 22.9013 1.73844 22.853C1.72884 22.6789 1.67127 22.5145 1.57531 22.3597C1.56571 22.3307 1.54652 22.2921 1.53693 22.263C1.53693 22.2534 1.54652 22.2534 1.54652 22.2437V22.234C1.54652 22.2437 1.54652 22.2534 1.54652 22.263C1.55612 22.2921 1.57531 22.3307 1.5849 22.3597C1.54652 22.3597 1.50814 22.3694 1.48895 22.3211C1.46975 22.2727 1.45056 22.2244 1.43137 22.1663C1.3738 22.0116 1.31622 21.8665 1.25865 21.7118C1.23946 21.6538 1.19148 21.6344 1.12431 21.6634C1.02835 21.557 0.99956 21.4507 1.07633 21.3153C1.12431 21.2379 1.11471 21.1509 1.09552 21.0735C1.04754 20.9091 0.99956 20.7447 0.941985 20.5899C0.88441 20.4352 0.865219 20.2804 0.855623 20.116C0.894006 20.2224 0.922794 20.3288 0.961177 20.4255C0.980368 20.4642 0.99956 20.5029 1.01875 20.5416C1.02835 20.5706 1.04754 20.6093 1.05713 20.6383C1.01875 20.6963 1.04754 20.7253 1.10511 20.7543C1.08592 20.7157 1.06673 20.677 1.05713 20.6383C1.04754 20.6093 1.02835 20.5706 1.01875 20.5416C1.02835 20.5222 1.04754 20.5029 1.04754 20.4835C1.01875 20.3288 0.980368 20.1837 0.951581 20.029C0.951581 20.0097 0.922794 20 0.894006 19.971C0.88441 20.029 0.874814 20.0774 0.874814 20.116C0.81724 20.0097 0.788452 19.9033 0.807644 19.7872H0.798048C0.81724 19.8162 0.846027 19.8452 0.874814 19.8936C0.88441 19.8162 0.894006 19.7485 0.894006 19.6905H0.88441C0.903602 19.7002 0.922794 19.7098 0.961177 19.7292C0.989964 19.6325 0.970773 19.5358 0.961177 19.4391C0.932389 19.2263 0.913198 19.0135 0.88441 18.8008C0.874814 18.7234 0.874814 18.646 0.874814 18.5686C0.874814 18.5203 0.894006 18.4816 0.855623 18.4333C0.846027 18.4139 0.836431 18.3849 0.836431 18.3656C0.903602 18.0851 0.81724 17.8143 0.81724 17.5435C0.81724 17.2244 0.798048 16.8955 0.788452 16.5764C0.788452 16.5377 0.807644 16.5087 0.826835 16.47H0.81724C0.855623 16.5764 0.913198 16.6828 0.913198 16.8085C0.913198 16.8278 0.941985 16.8472 0.951581 16.8665C0.951581 16.8762 0.951581 16.8762 0.951581 16.8859C0.951581 16.8762 0.941985 16.8762 0.941985 16.8665C0.951581 16.8182 0.970773 16.7795 0.970773 16.7311C0.970773 16.6054 0.961177 16.4893 0.951581 16.3636C0.941985 16.2669 0.941985 16.1605 1.00916 16.0735C1.05713 16.0155 1.04754 15.9478 1.04754 15.8704C1.04754 15.735 1.02835 15.5996 1.06673 15.4545C1.07633 15.4158 1.06673 15.3772 1.03794 15.3481C1.02835 15.3385 1.02835 15.3095 1.03794 15.2901C1.11471 15.0967 1.10511 14.8839 1.1435 14.6808V14.6905C1.1435 14.6615 1.1435 14.6422 1.1435 14.6131V14.6228C1.15309 14.5938 1.17228 14.5745 1.18188 14.5454C1.19148 14.4391 1.20107 14.323 1.20107 14.2166C1.20107 14.1876 1.18188 14.1586 1.17228 14.1393C1.17228 14.1199 1.17228 14.0909 1.17228 14.0716C1.18188 14.0425 1.19148 14.0135 1.20107 13.9748V13.9652V13.9748C1.19148 14.0039 1.18188 14.0329 1.17228 14.0716C1.17228 14.0909 1.17228 14.1199 1.17228 14.1393C1.1339 14.2069 1.10511 14.2746 1.06673 14.3423C1.05713 14.352 1.01875 14.352 1.00916 14.352C0.980368 14.3327 0.99956 14.323 1.01875 14.3133C1.09552 14.265 1.08592 14.1876 1.06673 14.1102V14.1199C1.06673 14.0909 1.06673 14.0716 1.06673 14.0425V14.0522C1.07633 14.0135 1.08592 13.9845 1.10511 13.9458V13.9555C1.10511 13.9265 1.10511 13.9071 1.10511 13.8781V13.8878C1.1435 13.8298 1.17228 13.7814 1.21067 13.7234H1.20107C1.21067 13.7331 1.22986 13.7427 1.23946 13.7524C1.23946 13.7717 1.23946 13.8008 1.23946 13.8201C1.23946 13.8201 1.23946 13.8201 1.22986 13.8201C1.22986 13.8008 1.22986 13.7717 1.22026 13.7524C1.28743 13.7137 1.27784 13.6557 1.25865 13.5977L1.26824 13.5396V13.559C1.24905 13.5783 1.22026 13.5977 1.20107 13.617H1.21067C1.21067 13.5687 1.20107 13.53 1.20107 13.4816C1.20107 13.4139 1.23946 13.3849 1.30663 13.3849C1.30663 13.3946 1.30663 13.3946 1.30663 13.4042C1.30663 13.3946 1.29703 13.3946 1.29703 13.3849C1.33541 13.3269 1.3642 13.2785 1.40258 13.2205H1.39299C1.44097 13.2302 1.48895 13.2108 1.50814 13.1625C1.52733 13.1334 1.52733 13.0851 1.54652 13.0561C1.61369 12.8143 1.68086 12.5725 1.74803 12.3211C1.72884 12.2921 1.68086 12.2824 1.70005 12.2244C1.8152 11.7988 1.93035 11.383 2.14146 10.9961C2.15106 10.9768 2.15106 10.9574 2.16065 10.9284C2.17025 10.8511 2.23742 10.8414 2.29499 10.822H2.31419L2.29499 10.8317C2.30459 10.7447 2.32378 10.6576 2.40055 10.5996H2.39095C2.41974 10.6093 2.42934 10.5899 2.42934 10.5609V10.5706C2.43893 10.5319 2.44853 10.5029 2.45812 10.4642V10.4739C2.49651 10.4062 2.53489 10.3385 2.57327 10.2708C2.58287 10.2418 2.60206 10.2128 2.59247 10.1837C2.56368 10.0774 2.60206 9.99032 2.66923 9.90328C2.70761 9.86459 2.746 9.79689 2.65964 9.74854C2.65004 9.73887 2.66923 9.68084 2.68842 9.64215C2.82276 9.37136 2.95711 9.11024 3.09145 8.83945C3.12983 8.77175 3.14902 8.70405 3.16821 8.62668C3.18741 8.5203 3.25458 8.42359 3.30256 8.3172C3.36013 8.20115 3.4273 8.09477 3.48488 7.97871C3.41771 8.05608 3.35053 8.13345 3.26417 8.22049C3.26417 8.0851 3.27377 8.05608 3.36013 7.96904C3.51366 7.79496 3.6576 7.62088 3.81113 7.4468C3.85911 7.38877 3.8975 7.32107 3.90709 7.22436C3.72477 7.33074 3.6576 7.53384 3.46568 7.65956C3.49447 7.58219 3.51366 7.54351 3.53285 7.50482C3.62881 7.36943 3.73437 7.23403 3.83992 7.09864C3.92628 6.98258 4.03184 6.8762 4.07982 6.7408C4.1086 6.6731 4.15658 6.60541 4.20456 6.54738C4.36769 6.3733 4.49244 6.1702 4.65557 5.99612C4.68435 5.96711 4.70354 5.91875 4.71314 5.88007C4.73233 5.84138 4.72274 5.77368 4.75152 5.75434C4.91465 5.5996 4.94344 5.34815 5.12576 5.21276C5.15455 5.19341 5.18333 5.15473 5.19293 5.11604C5.23131 4.97098 5.32727 4.87427 5.41363 4.76788C5.44242 4.73887 5.47121 4.70986 5.4808 4.68084C5.56717 4.50676 5.7111 4.37136 5.84545 4.23597C5.85504 4.2263 5.86464 4.21663 5.87423 4.20695C6.13332 3.87813 6.44039 3.59767 6.71867 3.28819C6.79543 3.19148 6.89139 3.11411 6.97775 3.02707C7.12169 2.882 7.26563 2.72726 7.41916 2.59187C7.59188 2.43713 7.7838 2.30173 7.96612 2.16634C8.0045 2.13732 8.06208 2.11798 8.10046 2.0793C8.13884 2.05028 8.16763 2.00193 8.22521 1.92456C8.21561 2.00193 8.21561 2.03094 8.20602 2.05028C8.17723 2.08897 8.14844 2.11798 8.11006 2.14699C7.95653 2.27272 7.80299 2.39844 7.63986 2.52417C7.53431 2.60154 7.43835 2.69825 7.40956 2.83365C7.38078 2.9497 7.30401 3.02707 7.20805 3.1528C7.28482 3.11411 7.3232 3.10444 7.34239 3.0851C7.57269 2.87233 7.85097 2.74661 8.11006 2.57253C8.27319 2.46614 8.42672 2.35976 8.58985 2.25338C8.63783 2.26305 8.65702 2.24371 8.67621 2.17601C8.63783 2.21469 8.61864 2.23403 8.58985 2.26305C8.55147 2.21469 8.50349 2.21469 8.43632 2.22436C8.4651 2.18568 8.49389 2.14699 8.53227 2.11798C8.78176 1.95357 9.03126 1.79883 9.28075 1.63442C9.34792 1.59574 9.42468 1.55705 9.50145 1.52804C9.57822 1.48935 9.65498 1.46034 9.73175 1.43133H9.72215C9.82771 1.39264 9.93326 1.34429 10.0196 1.26692C10.0292 1.26692 10.0292 1.26692 10.0388 1.26692C10.0292 1.26692 10.0292 1.27659 10.0196 1.27659C9.98124 1.27659 9.95245 1.26692 9.91407 1.26692C9.88528 1.26692 9.8469 1.27659 9.80852 1.26692C9.92367 1.17988 10.0676 1.14119 10.2019 1.08316C10.2979 1.04448 10.3843 1.0058 10.4706 0.95744C10.6434 0.88007 10.8161 0.851057 10.9984 0.802701C11.0464 0.79303 11.0848 0.783359 11.1327 0.764016C11.2959 0.696318 11.4686 0.667304 11.6413 0.638291C11.7949 0.609277 11.9484 0.560922 12.1115 0.522237C12.1307 0.473881 12.1307 0.406183 12.1691 0.377169C12.2075 0.348156 12.265 0.338485 12.313 0.328813C12.5913 0.251444 12.8696 0.261115 13.1479 0.270786C13.2726 0.270786 13.3878 0.290129 13.5029 0.212759C13.5317 0.193417 13.5893 0.193417 13.6372 0.193417C13.8579 0.212759 14.0787 0.232102 14.2994 0.251444C14.4721 0.270786 14.6448 0.270786 14.8271 0.290129C14.9903 0.309471 15.163 0.328813 15.3261 0.348156C15.5468 0.367498 15.7675 0.396512 15.9882 0.396512C16.1034 0.396512 16.1897 0.435196 16.2857 0.473881H16.2761C16.5544 0.502895 16.8327 0.531908 17.1109 0.560922C17.2261 0.570593 17.3412 0.570593 17.4564 0.570593C17.5331 0.570593 17.5811 0.502895 17.6483 0.46421C17.6579 0.46421 17.6579 0.473881 17.6675 0.473881C17.6675 0.473881 17.6771 0.473881 17.6771 0.46421C17.6675 0.46421 17.6579 0.46421 17.6483 0.46421C17.6003 0.435196 17.5427 0.406183 17.4948 0.377169C17.5044 0.328813 17.5331 0.309471 17.5715 0.319142C17.7443 0.328813 17.917 0.348156 18.0993 0.357827C18.1953 0.367498 18.3008 0.367498 18.3968 0.377169C18.4735 0.377169 18.5503 0.38684 18.6271 0.396512C18.771 0.415854 18.9149 0.425525 19.0589 0.454539C19.2028 0.483552 19.3372 0.512566 19.4811 0.541579C19.5291 0.55125 19.5675 0.570593 19.6058 0.531908C19.6538 0.580264 19.7018 0.609277 19.769 0.570593C19.9609 0.667304 20.1624 0.744674 20.3831 0.735003C20.3927 0.735003 20.3927 0.735003 20.4023 0.735003C20.3927 0.735003 20.3927 0.735003 20.3831 0.744674C20.3447 0.705989 20.3159 0.667304 20.268 0.62862C20.2392 0.609277 20.1912 0.589935 20.1624 0.599606C20.0856 0.638291 20.0281 0.589935 19.9609 0.589935C19.8937 0.580264 19.8265 0.580264 19.7594 0.580264C19.7114 0.522237 19.6538 0.522237 19.5962 0.541579C19.5579 0.522237 19.5291 0.483552 19.4811 0.473881C19.3468 0.435196 19.2028 0.396512 19.0685 0.357827C18.8958 0.309471 18.723 0.261115 18.5503 0.212759H18.5599C18.4831 0.183746 18.4064 0.145061 18.3296 0.116048V0.125719C18.3776 0.116048 18.4256 0.106376 18.4735 0.0967052C18.4639 0.0773628 18.4639 0.0580205 18.4639 0.0483493C18.4735 0.0386781 18.4927 0.029007 18.5023 0.029007C18.8958 0.106376 19.2796 0.193417 19.673 0.270786C19.721 0.280457 19.7594 0.280457 19.7786 0.212759C19.8457 0.232102 19.9129 0.241773 19.9705 0.270786C20.2871 0.367498 20.6038 0.454539 20.9109 0.570593C21.429 0.764016 21.9472 0.938097 22.4366 1.19922C22.5134 1.2379 22.6093 1.25725 22.6957 1.29593C22.7149 1.3056 22.7245 1.31527 22.7149 1.3056C22.7341 1.3056 22.7149 1.3056 22.6957 1.3056C22.7053 1.28626 22.7149 1.24757 22.7149 1.24757C22.7437 1.24757 22.7725 1.25725 22.8012 1.26692C23.1467 1.38297 23.4634 1.54738 23.7704 1.73113C23.8664 1.78916 23.9527 1.83752 24.0679 1.85686C24.1255 1.86653 24.183 1.89554 24.231 1.92456C24.3174 1.97291 24.4037 2.02127 24.4901 2.06962C24.5381 2.09864 24.5765 2.12765 24.5861 2.18568C24.5861 2.20502 24.6245 2.23404 24.6245 2.23404C24.7492 2.18568 24.73 2.3114 24.7684 2.35976C24.7396 2.35976 24.7108 2.36943 24.6724 2.36943C24.778 2.45647 24.8835 2.53384 24.9891 2.60154C25.3058 2.83365 25.6224 3.05608 25.9391 3.28819C26.1118 3.41392 26.2653 3.55899 26.4381 3.70405C26.4668 3.73307 26.5052 3.75241 26.5148 3.79109C26.5724 3.91682 26.678 3.99419 26.7739 4.08123C26.9083 4.19728 27.033 4.31334 27.1673 4.43906C27.2537 4.51643 27.3401 4.5938 27.4552 4.60347C27.4648 4.65183 27.4648 4.70018 27.484 4.73887C27.5128 4.78722 27.5512 4.82591 27.5992 4.85492C27.7335 4.93229 27.8007 5.07736 27.9158 5.17407C27.935 5.19341 27.935 5.22243 27.9542 5.2321C28.2037 5.39651 28.3668 5.65763 28.5779 5.86073C28.5971 5.88007 28.6259 5.89941 28.6643 5.90908C28.6163 5.84138 28.5683 5.77368 28.5012 5.69632C28.6931 5.83171 28.8082 6.01546 28.9522 6.18955C29.0769 6.34428 29.1921 6.50869 29.3168 6.66343C29.4224 6.78916 29.5375 6.91488 29.6527 7.04061C29.6814 7.07929 29.7294 7.09864 29.7486 7.13732C29.8062 7.27272 29.9309 7.30173 30.0269 7.3791C30.0269 7.34042 30.0365 7.3114 30.0365 7.26305C30.1804 7.3114 30.2092 7.43713 30.2668 7.54351C30.2572 7.55318 30.238 7.55318 30.2188 7.56285C30.3628 7.87233 30.4875 8.18181 30.6602 8.48161C30.737 8.59767 30.7466 8.74274 30.689 8.87813C30.6698 8.92649 30.6794 8.97484 30.7082 9.00386C30.737 9.04254 30.785 9.05221 30.8042 9.0909C30.8233 9.12958 30.8138 9.17794 30.8425 9.21662C30.8809 9.27465 30.9097 9.33268 30.9385 9.40037C30.9577 9.4584 31.0249 9.49709 31.0632 9.55511C31.092 9.60347 31.1112 9.6615 31.14 9.71952L31.1304 9.70985H31.14C31.1976 9.76788 31.2264 9.71952 31.2744 9.67117C31.3223 9.73887 31.3799 9.80656 31.4279 9.87426V9.86459C31.4183 9.91295 31.4471 9.93229 31.4951 9.93229H31.4855C31.6006 10.0193 31.6582 10.1354 31.7158 10.2708C31.8021 10.4739 31.8789 10.677 31.9653 10.8801C31.9844 10.9284 32.0228 10.9671 32.0516 11.0155C32.0516 11.0445 32.042 11.0735 32.042 11.0928C32.042 11.1122 32.0612 11.1218 32.0708 11.1315C32.0804 11.1315 32.0804 11.1218 32.09 11.1218C32.0708 11.0832 32.0516 11.0445 32.042 11.0155C32.042 10.9768 32.0516 10.9284 32.0516 10.8897H32.042C32.0804 10.9478 32.1284 11.0058 32.138 11.0638C32.2243 11.383 32.3587 11.7021 32.3971 12.0309H32.4067C32.3779 12.0309 32.3587 12.0309 32.3299 12.0309H32.3395C32.2723 11.8762 32.2051 11.7311 32.138 11.5764C32.138 11.557 32.138 11.528 32.138 11.5087C32.1668 11.47 32.1572 11.4313 32.1284 11.412C32.0804 11.3636 32.0228 11.3249 31.9653 11.2863C31.9653 11.2766 31.9653 11.2766 31.9748 11.2669C31.9748 11.2766 31.9748 11.2766 31.9748 11.2863C31.9653 11.412 32.0324 11.4797 32.1476 11.5087C32.1476 11.528 32.1476 11.557 32.1476 11.5764C32.1188 11.5861 32.0804 11.5957 32.09 11.6344C32.0996 11.6634 32.0996 11.6924 32.1188 11.7215C32.2723 11.9439 32.2723 12.1953 32.2627 12.4468C32.2627 12.5435 32.2723 12.6305 32.3107 12.7176C32.3587 12.824 32.3779 12.9304 32.4067 13.0464C32.493 13.4333 32.5602 13.8298 32.6274 14.2166C32.6657 14.41 32.7233 14.6035 32.8001 14.7872C32.8001 14.8162 32.8001 14.8356 32.8001 14.8646V14.8743V14.8646C32.8001 14.8356 32.8001 14.8162 32.8001 14.7872C32.8001 14.7098 32.7905 14.6325 32.7905 14.5551C32.7905 14.4777 32.8001 14.4004 32.8097 14.3327H32.8001C32.8193 14.352 32.8481 14.3714 32.8673 14.4004C32.8673 14.4197 32.8673 14.4487 32.8577 14.4681C32.8673 14.4971 32.8864 14.5261 32.896 14.5648V14.5745V14.5648C32.8864 14.5358 32.8673 14.4971 32.8577 14.4681C32.8577 14.4487 32.8673 14.4197 32.8673 14.4004C32.8673 14.3327 32.8673 14.265 32.8577 14.1973C32.7809 13.8491 32.7041 13.501 32.6274 13.1528C32.5986 13.0367 32.5506 12.9207 32.5794 12.795H32.5698C32.5986 12.853 32.637 12.911 32.6561 12.9787C32.7809 13.4236 32.9152 13.8685 32.9728 14.323C32.9824 14.4004 33.0016 14.4777 33.0208 14.5454C33.0976 14.9226 33.1551 15.2998 33.1551 15.6866C33.1551 15.8124 33.1743 15.9284 33.1935 16.1025C33.2319 16.0155 33.2415 15.9864 33.2703 15.9187C33.2895 15.9961 33.3087 16.0445 33.3279 16.1025V16.0928C33.347 16.1025 33.347 16.1315 33.347 16.1509ZM32.5026 14.1199C32.493 14.1102 32.4834 14.1006 32.4738 14.0909C32.445 14.0425 32.4258 13.9942 32.4546 13.9458C32.5026 13.8685 32.4642 13.7814 32.445 13.704C32.4258 13.6267 32.3971 13.559 32.3779 13.4816C32.2915 13.1334 32.2147 12.7853 32.1092 12.4371C32.0708 12.3211 32.042 12.205 32.042 12.0793C32.042 12.0406 32.0516 12.0019 32.042 11.9632C31.9748 11.7215 31.8981 11.4797 31.8213 11.2379C31.8117 11.2089 31.7925 11.1895 31.7541 11.1315C31.7733 11.3249 31.8789 11.4603 31.8501 11.6247C31.8117 11.6151 31.7829 11.6054 31.7445 11.5861C31.735 11.5474 31.7254 11.5184 31.7158 11.4797H31.7254H31.7158C31.639 11.3636 31.639 11.3636 31.6966 11.2572C31.6678 11.1992 31.639 11.1412 31.6102 11.0735C31.5814 11.0155 31.5622 10.9574 31.543 10.8994C31.5142 10.8317 31.4855 10.7737 31.4759 10.706C31.4663 10.648 31.3991 10.5996 31.4471 10.5222C31.5334 10.648 31.6198 10.7737 31.7062 10.9091C31.7158 10.8704 31.7254 10.8607 31.7158 10.8414C31.6678 10.6866 31.6198 10.5319 31.5622 10.3868C31.543 10.3288 31.4951 10.2708 31.4567 10.2128C31.4663 10.2031 31.4759 10.1934 31.4951 10.1741C31.5142 10.1741 31.543 10.1741 31.5622 10.1741C31.5814 10.2321 31.591 10.3095 31.6774 10.3288C31.6486 10.2611 31.6198 10.2031 31.591 10.1451C31.591 10.1257 31.5814 10.116 31.5814 10.1064C31.5814 10.1064 31.5718 10.1064 31.5622 10.1064C31.5718 10.1257 31.5814 10.1354 31.6006 10.1547C31.591 10.1644 31.5718 10.1837 31.5622 10.1934C31.543 10.1934 31.5142 10.1934 31.4951 10.1934C31.4567 10.1257 31.4087 10.058 31.3703 9.99032C31.3607 9.9613 31.3511 9.94196 31.3319 9.91295C31.3223 9.91295 31.3223 9.92262 31.3127 9.92262C31.3319 9.94196 31.3511 9.97097 31.3703 9.99032C31.3607 10.087 31.3895 10.1547 31.4567 10.2224C31.4471 10.2321 31.4375 10.2514 31.4279 10.2611C31.4183 10.2514 31.3991 10.2418 31.4087 10.2514C31.3895 10.2514 31.4087 10.2514 31.4279 10.2514C31.4567 10.3095 31.4567 10.3578 31.3895 10.3772C31.2839 10.3578 31.2935 10.2224 31.1976 10.1741C31.1688 10.1837 31.14 10.2031 31.092 10.2224C31.1208 10.3288 31.1496 10.4255 31.1784 10.5319C31.3511 11.0155 31.5622 11.4893 31.7158 11.9826C31.7349 12.0599 31.7637 12.1276 31.8021 12.1953C31.8597 12.2824 31.8693 12.3791 31.8789 12.4855C31.8885 12.5919 31.8981 12.6982 31.9077 12.8046C31.9173 12.882 31.9269 12.9497 31.9461 13.0271C31.8885 13.0271 31.8885 12.9884 31.8885 12.9594C31.8405 12.7853 31.8021 12.6112 31.7541 12.4468C31.7062 12.2921 31.687 12.1276 31.591 11.9922C31.5814 11.9632 31.5718 11.9246 31.5526 11.8955C31.5718 11.8472 31.5334 11.8278 31.5142 11.7892C31.543 11.6344 31.4663 11.5184 31.3895 11.4023C31.3991 11.3636 31.3895 11.3249 31.3511 11.3056C31.3895 11.2186 31.3319 11.1702 31.2839 11.1122C31.3127 11.0638 31.2648 11.0445 31.2456 11.0155C31.2648 10.9574 31.2264 10.9187 31.1784 10.8897H31.188C31.2072 10.9284 31.2264 10.9768 31.2552 11.0155C31.2648 11.0445 31.2839 11.0832 31.2935 11.1122C31.2839 11.1895 31.2839 11.2572 31.3511 11.3056C31.3319 11.354 31.3607 11.3733 31.3895 11.4023C31.3991 11.5377 31.4375 11.6731 31.5142 11.7892C31.5238 11.8182 31.543 11.8569 31.5526 11.8859C31.5334 11.9246 31.5622 11.9536 31.591 11.9826C31.5814 12.0116 31.5622 12.0406 31.5622 12.0696C31.6102 12.3404 31.6582 12.6112 31.7062 12.882C31.7637 13.2205 31.8309 13.559 31.8885 13.9071C31.9269 14.1489 31.9653 14.3907 32.0036 14.6325C32.042 14.6325 32.0708 14.6325 32.09 14.6325C32.1092 14.7775 32.1284 14.9129 32.2243 15.029C32.2339 15.0483 32.2435 15.0677 32.2435 15.0967C32.2435 15.1741 32.2339 15.2611 32.2435 15.3385C32.2435 15.3772 32.2723 15.4158 32.2915 15.4642C32.3011 15.4739 32.3107 15.4835 32.3203 15.4932C32.3683 15.5126 32.3587 15.4835 32.3491 15.4642C32.3491 15.3675 32.3587 15.2804 32.3683 15.1837C32.3683 15.1644 32.4067 15.1547 32.4258 15.1354C32.4258 15.1257 32.4163 15.1644 32.4163 15.1354C32.4163 15.0967 32.4163 15.0483 32.4258 15.0097C32.4354 14.9806 32.445 14.942 32.4546 14.9129H32.445C32.4642 14.9226 32.4834 14.9323 32.5122 14.942C32.5314 14.6518 32.4546 14.3907 32.445 14.1199C32.4546 14.1199 32.4642 14.1296 32.4642 14.1199C32.493 14.1393 32.5026 14.1296 32.5026 14.1199ZM1.30663 21.1412V21.1315V21.1412ZM1.1435 20.5126L1.1339 20.5222L1.1435 20.5126C1.1339 20.5029 1.12431 20.4932 1.11471 20.4835C1.1339 20.4932 1.1435 20.5029 1.1435 20.5126ZM1.23946 20.8801V20.8897V20.8801C1.22986 20.851 1.22026 20.822 1.21067 20.7833V20.7737L1.22026 20.7833C1.22026 20.8124 1.22986 20.8414 1.23946 20.8801ZM30.9769 9.88393L30.9673 9.90328L30.9769 9.88393C30.9673 9.86459 30.9769 9.85492 30.9673 9.83558C30.9673 9.82591 30.9481 9.82591 30.9289 9.82591C30.9289 9.83558 30.9289 9.84525 30.9385 9.84525C30.9577 9.85492 30.9673 9.86459 30.9769 9.88393ZM1.29703 21.5377C1.30663 21.557 1.31622 21.5764 1.30663 21.557C1.31622 21.5667 1.30663 21.5474 1.29703 21.5377ZM1.88237 23.2398C1.88237 23.2302 1.89197 23.2108 1.89197 23.2011C1.89197 23.1915 1.87278 23.1818 1.86318 23.1818C1.86318 23.1915 1.86318 23.2011 1.86318 23.2108C1.87278 23.2205 1.88237 23.2302 1.88237 23.2398C1.86318 23.2785 1.89197 23.3075 1.92076 23.3365C1.92076 23.3462 1.91116 23.3656 1.92076 23.3752C1.92076 23.3849 1.93995 23.3849 1.94955 23.3849C1.94955 23.3752 1.94955 23.3656 1.93995 23.3656C1.93035 23.3559 1.92076 23.3462 1.91116 23.3365C1.94955 23.2979 1.92076 23.2688 1.88237 23.2398ZM2.24702 10.9961C2.25661 10.9864 2.26621 10.9768 2.26621 10.9671C2.26621 10.9574 2.2758 10.9574 2.2758 10.9478C2.26621 10.9478 2.24702 10.9574 2.24702 10.9574C2.24702 10.9768 2.24702 10.9864 2.24702 10.9961C2.24702 11.0058 2.23742 11.0155 2.22782 11.0251C2.22782 11.0251 2.22782 11.0348 2.21823 11.0445C2.22782 11.0445 2.24702 11.0445 2.24702 11.0348C2.24702 11.0251 2.24702 11.0155 2.24702 10.9961ZM22.9644 1.41198C22.9356 1.39264 22.9164 1.3733 22.8876 1.36363C22.8876 1.3733 22.878 1.38297 22.878 1.38297C22.9068 1.39264 22.9356 1.39264 22.9644 1.41198C22.9836 1.42166 23.0124 1.45067 23.0315 1.47001C23.0315 1.46034 23.0411 1.45067 23.0411 1.45067C23.0124 1.43133 22.9836 1.42166 22.9644 1.41198ZM1.01875 19.9903L1.00916 20.0097L1.01875 19.9903C0.99956 19.9516 1.03794 19.9033 0.961177 19.8646C0.980368 19.9226 0.99956 19.9516 1.01875 19.9903ZM31.7158 10.5029C31.7158 10.4932 31.7254 10.4932 31.7254 10.4835V10.4739C31.7254 10.4932 31.7254 10.5029 31.7158 10.5029C31.7062 10.5609 31.7158 10.6093 31.8117 10.677C31.7637 10.5996 31.7445 10.5512 31.7158 10.5029ZM1.3642 21.7311C1.3642 21.7215 1.3642 21.7215 1.3642 21.7118C1.3642 21.7215 1.3642 21.7311 1.3642 21.7311C1.3738 21.8182 1.40258 21.8955 1.46975 21.9536C1.46975 21.9826 1.46016 22.0116 1.46975 22.0309C1.46975 22.0503 1.48895 22.0599 1.49854 22.0696C1.50814 22.0696 1.50814 22.0599 1.51773 22.0599C1.49854 22.0213 1.47935 21.9826 1.46016 21.9536C1.46016 21.8665 1.43137 21.7892 1.3642 21.7311ZM24.3654 2.16634C24.4325 2.20502 24.4997 2.25338 24.6149 2.32108C24.5381 2.18568 24.4517 2.16634 24.3654 2.16634C24.3462 2.16634 24.3366 2.15667 24.3174 2.14699C24.3174 2.15667 24.3174 2.15667 24.327 2.15667C24.3366 2.16634 24.3462 2.16634 24.3654 2.16634ZM11.7853 0.986453C11.7085 0.986453 11.6413 0.996124 11.5646 0.996124C11.5262 0.996124 11.4878 0.986453 11.4014 0.986453C11.5166 0.909084 11.6029 0.918755 11.6893 0.899413C11.8044 0.88007 11.8908 0.841386 11.9484 0.744674C11.958 0.744674 11.958 0.754345 11.9676 0.754345H11.9772C11.9676 0.754345 11.958 0.754345 11.9484 0.754345C11.7085 0.783359 11.4686 0.812372 11.2287 0.841386C11.2095 0.841386 11.1807 0.851057 11.1711 0.870399C11.104 0.95744 11.008 0.976782 10.912 1.0058C10.8065 1.03481 10.7105 1.06382 10.605 1.09284C10.5762 1.10251 10.5474 1.13152 10.5282 1.15086C10.5954 1.17021 10.6434 1.15086 10.6913 1.14119C10.8065 1.11218 10.9312 1.08316 11.0464 1.06382C11.104 1.05415 11.1519 1.05415 11.1807 1.11218C11.1999 1.15086 11.2383 1.15086 11.2767 1.14119C11.3822 1.12185 11.4878 1.09284 11.5933 1.07349C11.6701 1.07349 11.7373 1.04448 11.7853 0.986453C11.7949 0.986453 11.7949 0.986453 11.8044 0.996124C11.8044 0.996124 11.814 0.996124 11.8236 0.986453C11.814 0.986453 11.8044 0.986453 11.7853 0.986453ZM26.8219 4.2263C26.9562 4.38104 27.0906 4.53577 27.2537 4.6615C27.3976 4.77755 27.5704 4.88394 27.6183 5.08703C27.6279 5.10637 27.6375 5.12572 27.6567 5.14506C27.7623 5.21276 27.8391 5.30947 27.9254 5.40618C27.8486 5.27078 27.7815 5.13539 27.6759 5.01933C27.436 4.70986 27.129 4.46808 26.8219 4.2263ZM8.97368 1.96324C9.20398 1.92456 9.3959 1.82785 9.60701 1.66344C9.35751 1.72146 9.1656 1.83752 8.97368 1.96324ZM3.09145 9.04254C2.98589 9.14892 2.95711 9.27465 2.89953 9.41972C3.03387 9.23596 3.07226 9.17794 3.09145 9.04254ZM8.84894 2.0116C8.83934 2.02127 8.83934 2.03094 8.82974 2.04061C8.82974 2.04061 8.83934 2.05028 8.84894 2.05028C8.85853 2.04061 8.86813 2.04061 8.87772 2.03094C8.86813 2.03094 8.85853 2.02127 8.84894 2.0116ZM28.8658 6.16053C28.8658 6.15086 28.8658 6.15086 28.8658 6.16053C28.8658 6.14119 28.8562 6.13152 28.8466 6.12185C28.837 6.11218 28.8274 6.11218 28.8178 6.1025C28.837 6.12185 28.8466 6.14119 28.8658 6.16053ZM2.85155 9.51643L2.84196 9.50676C2.83236 9.50676 2.83236 9.51643 2.82276 9.5261C2.82276 9.5261 2.82276 9.53577 2.82276 9.54544C2.83236 9.53577 2.84196 9.5261 2.85155 9.51643ZM20.4983 0.764016V0.783359C20.5078 0.79303 20.5174 0.79303 20.5366 0.79303C20.5366 0.783359 20.5366 0.773687 20.5366 0.764016C20.527 0.764016 20.5078 0.764016 20.4983 0.764016ZM28.3092 5.92842L28.3284 5.9381L28.3092 5.92842ZM31.1304 10.6673L31.1208 10.648L31.1112 10.6576L31.1304 10.6673ZM31.8213 10.7737C31.8213 10.7834 31.8309 10.7834 31.8309 10.793C31.8309 10.7834 31.8309 10.7737 31.8309 10.7737C31.8309 10.7737 31.8309 10.7737 31.8213 10.7737ZM24.1063 2.0116L24.1159 2.03094L24.1255 2.02127L24.1063 2.0116Z"/><path d="M11.4974 0.493243C11.4686 0.512585 11.4302 0.531927 11.4015 0.541598C11.0752 0.63831 10.7394 0.735022 10.4131 0.831733C10.3939 0.841405 10.3747 0.831733 10.3171 0.841405C10.4707 0.735022 10.5858 0.628639 10.7585 0.609297C10.7969 0.609297 10.8353 0.589954 10.8641 0.570612C11.0656 0.4739 11.2767 0.464229 11.4974 0.493243C11.4974 0.493243 11.4974 0.502914 11.4974 0.493243Z"/><path d="M0.846008 15.4255C0.846008 15.3385 0.846008 15.2611 0.855604 15.1741C0.874796 14.9807 0.893987 14.7776 0.922775 14.5841C0.93237 14.5261 0.961158 14.4681 0.980349 14.4101C1.0859 14.4487 1.10509 14.5261 1.14348 14.6035V14.5938C1.14348 14.6228 1.14348 14.6422 1.14348 14.6712V14.6615C1.0955 14.7195 1.06671 14.6712 1.03792 14.6325C1.03792 14.6132 1.03792 14.5938 1.03792 14.5648L1.04752 14.5455V14.5648C1.04752 14.5841 1.04752 14.6035 1.04752 14.6325C1.02833 14.6905 0.999541 14.7485 0.989945 14.8066C0.970754 14.913 0.970754 15.0193 0.961158 15.1257C0.951562 15.2514 0.922775 15.3482 0.846008 15.4255Z"/><path d="M23.4538 1.40233C23.1851 1.3443 22.9548 1.17022 22.7053 1.07351C22.7149 1.00581 22.7533 1.02515 22.7725 1.03482C22.7917 1.03482 22.8013 1.0445 22.8109 1.05417C23.022 1.17022 23.2331 1.28628 23.4538 1.40233Z"/><path d="M7.27527 2.29207C7.12173 2.51451 6.91062 2.68859 6.66113 2.84333C6.84345 2.61122 7.07375 2.46615 7.27527 2.29207Z"/><path d="M27.7431 4.75822C27.8487 4.86461 27.9158 4.95165 28.0022 5.01935C28.0886 5.08704 28.1269 5.18376 28.1941 5.2708C28.0406 5.15474 27.9158 5.01935 27.7911 4.88395C27.7719 4.85494 27.7623 4.81625 27.7431 4.75822Z"/><path d="M1.03796 13.1625C1.05716 12.9787 1.11473 12.8337 1.1819 12.6596C1.21069 12.8337 1.15311 13.0174 1.03796 13.1625Z"/><path d="M30.7082 24.323C30.7274 24.1102 30.7466 24.0812 30.9097 24.0135C30.8713 24.207 30.8425 24.236 30.7082 24.323Z"/><path d="M33.1839 19.0039C33.2127 19.2456 33.2031 19.352 33.1072 19.5261C33.1072 19.3327 33.1168 19.1586 33.1839 19.0039Z"/><path d="M26.985 4.00388C27.1194 4.09092 27.2441 4.1973 27.3785 4.36171C27.1674 4.29401 27.081 4.14894 26.985 4.00388Z"/><path d="M2.99548 8.37524C3.03387 8.2205 3.10104 8.11412 3.197 8.01741C3.15861 8.15281 3.13942 8.19149 2.99548 8.37524Z"/><path d="M1.48895 22.7853C1.6041 22.8627 1.6041 22.9787 1.6137 23.1141C1.49855 22.9884 1.48895 22.9594 1.48895 22.7853Z"/><path d="M0.817263 14.3424C0.788476 14.2263 0.826859 14.1102 0.855647 13.9942C0.903626 14.1199 0.884434 14.236 0.817263 14.3424Z"/><path d="M1.25867 21.9632C1.32584 22.0213 1.30665 22.0986 1.32584 22.176C1.24908 22.205 1.24908 22.147 1.22989 22.1083C1.21069 22.06 1.1915 22.0019 1.25867 21.9632Z"/><path d="M6.45003 3.32688C6.37326 3.40425 6.29649 3.48162 6.22932 3.54932L6.21973 3.53965C6.2869 3.46228 6.36366 3.37524 6.43083 3.29787C6.44043 3.30754 6.44043 3.31721 6.45003 3.32688Z"/><path d="M9.28076 1.28626C9.29036 1.3056 9.29995 1.31527 9.31915 1.33461V1.32494C9.24238 1.39264 9.16561 1.441 9.06006 1.441V1.45067C9.08885 1.41198 9.12723 1.3733 9.14642 1.32494C9.17521 1.28626 9.1944 1.24757 9.25197 1.25725V1.24757C9.24238 1.26692 9.23278 1.28626 9.22319 1.3056C9.25198 1.29593 9.27117 1.28626 9.28076 1.28626C9.28076 1.28626 9.29036 1.28626 9.28076 1.28626Z"/><path d="M25.0179 2.50483C24.8931 2.48549 24.8835 2.36943 24.8163 2.28239C24.8931 2.30174 24.9219 2.32108 24.9411 2.37911C24.9507 2.42746 24.9891 2.46615 25.0179 2.50483Z"/><path d="M29.9694 6.8472C30.0173 6.9149 30.0653 6.9826 30.1133 7.04062C30.1037 7.05029 30.1037 7.05029 30.0941 7.05996C30.0749 7.03095 30.0461 7.01161 30.0269 6.97292C30.0077 6.93424 29.9886 6.89555 29.9694 6.85687C29.9694 6.85687 29.9694 6.85687 29.9694 6.8472Z"/><path d="M32.2723 20.3868C32.2819 20.3965 32.2915 20.4062 32.3107 20.4255V20.4159C32.3011 20.4546 32.3203 20.4546 32.3491 20.4546H32.3395C32.3203 20.5513 32.3203 20.5513 32.2244 20.5416C32.2052 20.4739 32.2531 20.4352 32.2723 20.3868C32.2723 20.3868 32.2819 20.3868 32.2723 20.3868Z"/><path d="M9.30957 1.32495C9.36714 1.22824 9.4535 1.17989 9.56865 1.18956V1.17989C9.49189 1.22824 9.39593 1.2766 9.30957 1.32495Z"/><path d="M33.4814 17.3985C33.4238 17.3114 33.4238 17.2244 33.491 17.1373H33.4814C33.4814 17.2244 33.5294 17.3114 33.4814 17.3985Z"/><path d="M32.4355 20.0193C32.4451 20.0967 32.4163 20.1644 32.3683 20.2225H32.3779C32.3683 20.1547 32.3203 20.1451 32.2723 20.1161V20.1257C32.2915 20.1064 32.3203 20.0774 32.3395 20.058H32.3299C32.3779 20.0484 32.4067 20.0387 32.4355 20.0193Z"/><path d="M29.9214 25.1064C29.9598 25.058 29.9982 25.0097 30.0365 24.971L30.0461 24.9807C30.0077 25.029 29.979 25.0774 29.9406 25.1257C29.931 25.116 29.9214 25.1064 29.9214 25.1064Z"/><path d="M25.0179 2.50484C25.0179 2.49517 25.0275 2.47582 25.0275 2.46615C25.0563 2.38878 25.0659 2.38878 25.1426 2.46615C25.0946 2.47582 25.0563 2.49517 25.0179 2.50484Z"/><path d="M0.817288 15.7253C0.798097 15.648 0.778905 15.5609 0.846076 15.5029H0.83648C0.874863 15.5803 0.855672 15.6576 0.817288 15.7253Z"/><path d="M32.2147 20.9768C32.138 20.8704 32.138 20.8704 32.2435 20.8221H32.2339C32.2531 20.8704 32.2435 20.9284 32.2147 20.9768Z"/><path d="M30.5931 24.5842C30.5547 24.5068 30.5547 24.5068 30.6506 24.4101C30.6219 24.4874 30.6027 24.5358 30.5931 24.5842Z"/><path d="M30.5835 24.5842C30.5835 24.6615 30.5163 24.7002 30.4779 24.7485H30.4875C30.4587 24.7292 30.4491 24.7002 30.4779 24.6712C30.5163 24.6422 30.5547 24.6132 30.5835 24.5842Z"/><path d="M5.50964 4.44874C5.53843 4.41006 5.56722 4.37138 5.58641 4.34236C5.6056 4.41006 5.58641 4.43907 5.50964 4.44874Z"/><path d="M0.548579 19.265C0.519791 19.2166 0.481408 19.178 0.510196 19.1103C0.56777 19.1586 0.56777 19.207 0.548579 19.265Z"/><path d="M32.6082 12.7756C32.5986 12.7369 32.5794 12.6983 32.5506 12.6112C32.6274 12.6789 32.637 12.7176 32.6082 12.7756Z"/><path d="M0.69253 19.207C0.634956 19.1683 0.62536 19.1103 0.654147 19.0426H0.644551C0.702126 19.0812 0.702126 19.1393 0.69253 19.207Z"/><path d="M0.740479 18.8781C0.788458 18.9265 0.778862 18.9845 0.769266 19.0329C0.769266 18.9845 0.75967 18.9265 0.740479 18.8781C0.740479 18.8781 0.750074 18.8781 0.740479 18.8781Z"/><path d="M0.817247 16.383C0.778864 16.3443 0.78846 16.2959 0.817247 16.2573H0.807652C0.894014 16.3443 0.894014 16.3443 0.817247 16.383Z"/><path d="M18.1761 0.0676993C18.2337 0.0676993 18.2912 0.0580281 18.3392 0.106384V0.0967128C18.272 0.125726 18.2241 0.106384 18.1761 0.0676993Z"/><path d="M9.06003 1.43134C9.02165 1.46035 8.99286 1.49903 8.94489 1.53772C8.95448 1.46035 9.00246 1.45068 9.06003 1.43134Z"/><path d="M32.4067 12.1083C32.3971 12.0793 32.3875 12.0406 32.3779 12.0116H32.3683C32.3971 12.0116 32.4163 12.0116 32.4451 12.0116H32.4355C32.4451 12.0406 32.4547 12.0793 32.4643 12.1083H32.4739C32.4547 12.1083 32.4259 12.1083 32.4067 12.1083Z"/><path d="M0.817274 20.619C0.82687 20.6286 0.846061 20.6286 0.855657 20.6383C0.865253 20.6673 0.865253 20.6867 0.865253 20.7157C0.855657 20.7157 0.836466 20.7157 0.82687 20.7157C0.817274 20.6867 0.817274 20.6673 0.807678 20.6383C0.807678 20.6383 0.807678 20.6286 0.817274 20.619Z"/><path d="M0.711708 20.2225C0.759687 20.2515 0.769283 20.2901 0.750091 20.3578C0.68292 20.3095 0.692516 20.2708 0.711708 20.2225Z"/><path d="M17.2933 0.357837C17.2261 0.396522 17.1781 0.37718 17.1301 0.319153V0.328824C17.1877 0.328824 17.2549 0.309482 17.2933 0.357837Z"/><path d="M9.25201 1.25725C9.2808 1.22824 9.31919 1.19923 9.34797 1.17021C9.35757 1.17988 9.35757 1.17988 9.36716 1.18955C9.33838 1.21857 9.30959 1.25725 9.2808 1.28627H9.2904C9.27121 1.26692 9.26161 1.25725 9.25201 1.25725Z"/><path d="M9.7414 1.412C9.73181 1.412 9.73181 1.40233 9.72221 1.40233C9.71261 1.39266 9.70302 1.37331 9.69342 1.35397C9.70302 1.35397 9.72221 1.3443 9.73181 1.3443C9.73181 1.36364 9.7414 1.38298 9.7414 1.39266C9.751 1.40233 9.7414 1.40233 9.7414 1.412Z"/><path d="M33.491 17.1373C33.4335 17.0987 33.4431 17.0309 33.4527 16.9729H33.4431C33.491 17.0213 33.491 17.0793 33.491 17.1373Z"/><path d="M1.07634 14.0812C1.04755 14.1006 1.02836 14.1296 0.999573 14.1489H1.00917C1.01876 14.0909 1.03796 14.0426 1.04755 13.9845H1.03796C1.04755 13.9942 1.06674 14.0135 1.07634 14.0232V14.0135C1.07634 14.0426 1.07634 14.0619 1.07634 14.0812C1.07634 14.0812 1.07634 14.0909 1.07634 14.0812Z"/><path d="M9.93329 1.02515C9.89491 1.04449 9.87572 1.09285 9.79895 1.05416C9.85653 1.03482 9.89491 1.03482 9.93329 1.02515Z"/><path d="M1.04758 13.9845C1.02839 13.9265 1.04758 13.8685 1.07637 13.8201H1.06677C1.07637 13.8298 1.09556 13.8395 1.10516 13.8588V13.8491C1.10516 13.8781 1.10516 13.8975 1.10516 13.9265V13.9168C1.08596 13.9362 1.05718 13.9652 1.04758 13.9845Z"/><path d="M0.788444 19.7582C0.740465 19.7099 0.750061 19.6518 0.759657 19.5938H0.750061C0.778848 19.6518 0.817232 19.7002 0.788444 19.7582Z"/><path d="M27.5512 4.50677C27.5512 4.51644 27.5512 4.53579 27.5512 4.54546C27.532 4.53579 27.5224 4.53579 27.5032 4.52611C27.5032 4.51644 27.5128 4.4971 27.5128 4.4971C27.532 4.4971 27.5416 4.50677 27.5512 4.50677Z"/><path d="M1.85362 9.92263C1.86321 9.9323 1.892 9.94197 1.8824 9.94197C1.87281 9.96131 1.86321 9.98066 1.85362 10C1.84402 9.99033 1.82483 9.99033 1.82483 9.98066C1.83442 9.96131 1.84402 9.94197 1.85362 9.92263Z"/><path d="M0.67334 19.3327C0.721319 19.381 0.730915 19.4391 0.692531 19.4971H0.702127C0.702127 19.4487 0.692531 19.3907 0.67334 19.3327Z"/><path d="M8.302 2.15668C8.32119 2.13733 8.34039 2.12766 8.34998 2.10832C8.34039 2.11799 8.34038 2.13733 8.33079 2.14701C8.33079 2.15668 8.32119 2.15668 8.302 2.15668Z"/><path d="M24.8356 27.3984L24.826 27.3888C24.8356 27.3791 24.8452 27.3694 24.8548 27.3598C24.8644 27.3694 24.8644 27.3694 24.874 27.3791C24.8644 27.3888 24.8452 27.3984 24.8356 27.3984Z"/><path d="M0.81724 15.9865C0.778856 15.9478 0.778856 15.8994 0.81724 15.8607H0.807644C0.807644 15.8994 0.807644 15.9478 0.81724 15.9865Z"/><path d="M0.903646 13.8008C0.903646 13.8104 0.913242 13.8104 0.913242 13.8201C0.913242 13.8201 0.903646 13.8298 0.89405 13.8298C0.89405 13.8201 0.89405 13.8104 0.89405 13.8104C0.884455 13.8104 0.89405 13.8104 0.903646 13.8008Z"/><path d="M27.676 4.64217C27.676 4.65184 27.6856 4.65184 27.6856 4.66151C27.676 4.67118 27.676 4.67118 27.6664 4.68085C27.6664 4.67118 27.6568 4.67118 27.6664 4.66151C27.6568 4.65184 27.6664 4.64217 27.676 4.64217Z"/><path d="M30.4011 24.8259C30.4107 24.8259 30.4203 24.8356 30.4203 24.8356C30.4203 24.8453 30.4107 24.8549 30.4107 24.8646C30.4011 24.8646 30.4011 24.8549 30.4011 24.8549C30.3915 24.8549 30.3915 24.8356 30.4011 24.8259Z"/><path d="M32.3683 20.2225C32.3779 20.2321 32.3875 20.2515 32.3875 20.2611C32.3875 20.2805 32.3779 20.2998 32.3779 20.3191C32.3587 20.3095 32.3299 20.2901 32.3107 20.2805V20.2901C32.3299 20.2708 32.3587 20.2418 32.3683 20.2225Z"/><path d="M1.67132 11.8182C1.67132 11.8182 1.66172 11.8085 1.67132 11.8085C1.67132 11.8085 1.68091 11.7988 1.69051 11.7988C1.69051 11.7988 1.70011 11.8085 1.69051 11.8085C1.68091 11.8182 1.67132 11.8182 1.67132 11.8182Z"/><path d="M2.38135 10.5319C2.38135 10.4836 2.40054 10.4642 2.44852 10.4739V10.4642C2.41973 10.4932 2.40054 10.5126 2.38135 10.5319Z"/><path d="M6.13336 3.23985L6.14296 3.2205L6.15255 3.23018L6.13336 3.23985Z"/><path d="M6.5652 2.94003H6.5556L6.57479 2.93036L6.5652 2.94003Z"/><path d="M29.9214 25.619L29.9022 25.6286L29.9118 25.619H29.9214Z"/><path d="M8.39794 1.8472C8.38835 1.85687 8.36915 1.85687 8.35956 1.86654C8.37875 1.85687 8.38835 1.85687 8.39794 1.8472Z"/><path d="M8.39795 1.8472C8.40754 1.83753 8.41714 1.82786 8.42674 1.81819C8.42674 1.81819 8.43633 1.80852 8.44593 1.80852C8.44593 1.81819 8.44593 1.82786 8.43633 1.82786C8.42674 1.83753 8.41714 1.83753 8.39795 1.8472Z"/><path d="M31.14 24.2553V24.2456C31.1496 24.2456 31.1592 24.2456 31.1592 24.2456C31.1592 24.2456 31.1496 24.2553 31.14 24.2553Z"/><path d="M9.57825 1.18955C9.58785 1.17988 9.60704 1.16053 9.58785 1.17988C9.60704 1.17988 9.58785 1.17988 9.57825 1.18955Z"/><path d="M9.93329 1.02515C9.95247 1.01548 9.96207 1.00581 9.95247 1.01548C9.96207 1.01548 9.95247 1.01548 9.93329 1.02515Z"/><path d="M32.1476 20.3868C32.1572 20.3578 32.1764 20.3191 32.1859 20.2901H32.1764C32.1668 20.3191 32.1572 20.3482 32.1476 20.3868C32.1476 20.3868 32.138 20.3868 32.1476 20.3868Z"/><path d="M32.541 20.4546C32.541 20.4642 32.5314 20.4836 32.5314 20.4932C32.5314 20.4836 32.541 20.4739 32.541 20.4546Z"/><path d="M32.541 20.3868C32.5506 20.3578 32.5602 20.3288 32.5794 20.2901H32.5698C32.5506 20.3191 32.541 20.3482 32.541 20.3868Z"/><path d="M32.5698 20.2901C32.5698 20.2805 32.5602 20.2611 32.5602 20.2514C32.5602 20.2514 32.5698 20.2418 32.5794 20.2418C32.5794 20.2514 32.5698 20.2708 32.5698 20.2901Z"/><path d="M0.702087 19.4971C0.730875 19.5261 0.759662 19.5551 0.750066 19.6035H0.759662C0.740471 19.5648 0.721279 19.5358 0.702087 19.4971Z"/><path d="M16.2857 0.464219C16.2857 0.454548 16.2761 0.435205 16.2761 0.425534C16.2761 0.415863 16.2953 0.415863 16.3049 0.415863C16.3049 0.425534 16.3049 0.435205 16.3049 0.435205C16.3049 0.444877 16.2857 0.454548 16.2857 0.464219C16.2857 0.464219 16.2761 0.464219 16.2857 0.464219Z"/><path d="M17.658 0.0677032C17.6867 0.0773744 17.7155 0.0870456 17.7539 0.106388V0.0967168C17.7059 0.116059 17.6772 0.0870456 17.658 0.0677032Z"/><path d="M32.4643 12.1083C32.4643 12.118 32.4739 12.118 32.4739 12.1277C32.4739 12.1373 32.4835 12.1567 32.4835 12.1663C32.4643 12.1567 32.4547 12.147 32.4355 12.147V12.1567C32.4547 12.1373 32.4643 12.1277 32.4643 12.1083C32.4643 12.1083 32.4739 12.1083 32.4643 12.1083Z"/><path d="M32.09 10.8704C32.0612 10.8414 32.0324 10.8124 32.0708 10.7737H32.0612C32.0612 10.8027 32.0708 10.8317 32.09 10.8704Z"/><path d="M32.0612 10.7737C32.0516 10.764 32.0324 10.7447 32.0516 10.764C32.042 10.735 32.0516 10.7544 32.0612 10.7737C32.0612 10.7737 32.0516 10.7737 32.0612 10.7737Z"/><path d="M31.4567 9.85493C31.5047 9.84526 31.5431 9.85493 31.5239 9.92263H31.5335C31.5047 9.89361 31.4855 9.8646 31.4567 9.85493Z"/><path d="M2.53491 24.8162V24.8356L2.54451 24.8162H2.53491Z"/><path d="M2.53491 24.7486C2.53491 24.7679 2.53491 24.7969 2.53491 24.8162H2.54451C2.54451 24.7969 2.54451 24.7776 2.53491 24.7486Z"/><path d="M2.41016 24.5551C2.40057 24.5455 2.39097 24.5358 2.37178 24.5164H2.36218C2.38137 24.5358 2.40057 24.5455 2.41016 24.5551Z"/><path d="M1.49855 22.7853V22.766L1.48895 22.7853H1.49855Z"/><path d="M1.63289 22.7176C1.63289 22.7079 1.63289 22.7079 1.62329 22.6983C1.62329 22.7079 1.62329 22.7079 1.63289 22.7176Z"/><path d="M0.721306 20.2224C0.721306 20.2128 0.721306 20.2031 0.721306 20.1934C0.721306 20.1934 0.730902 20.2031 0.721306 20.2031C0.721306 20.2128 0.71171 20.2224 0.721306 20.2224C0.721306 20.2224 0.71171 20.2224 0.721306 20.2224Z"/><path d="M0.644531 19.8936V19.9033L0.654127 19.8936H0.644531Z"/><path d="M0.654167 19.8936C0.654167 19.8839 0.654167 19.8743 0.654167 19.8646V19.8743C0.654167 19.8839 0.644571 19.8936 0.654167 19.8936C0.654167 19.8936 0.644571 19.8936 0.654167 19.8936Z"/><path d="M0.884468 19.6615C0.884468 19.6518 0.884468 19.6422 0.884468 19.6325L0.894064 19.6422C0.884468 19.6518 0.874872 19.6615 0.884468 19.6615Z"/><path d="M0.682922 19.2747C0.682922 19.294 0.682922 19.3133 0.682922 19.3424H0.692518C0.682922 19.3133 0.682922 19.294 0.682922 19.2747Z"/><path d="M0.682936 19.207C0.682936 19.2263 0.682936 19.2553 0.67334 19.2747H0.682936C0.692531 19.2456 0.692531 19.2263 0.682936 19.207Z"/><path d="M0.654167 19.0426C0.654167 19.0232 0.654167 19.0039 0.663763 18.9749H0.654167C0.654167 18.9942 0.644571 19.0232 0.654167 19.0426C0.654167 19.0426 0.644571 19.0426 0.654167 19.0426Z"/><path d="M0.663717 18.9749C0.663717 18.9652 0.654121 18.9652 0.654121 18.9555C0.644525 18.9652 0.654121 18.9749 0.663717 18.9749C0.663717 18.9749 0.654121 18.9749 0.663717 18.9749Z"/><path d="M0.750074 18.8781C0.750074 18.8685 0.740479 18.8685 0.740479 18.8588C0.740479 18.8685 0.740479 18.8685 0.750074 18.8781Z"/><path d="M0.817274 16.4507C0.817274 16.4313 0.817274 16.4023 0.817274 16.383H0.807678C0.807678 16.4023 0.807678 16.4217 0.817274 16.4507Z"/><path d="M0.817274 16.2476C0.817274 16.2282 0.817274 16.1992 0.817274 16.1799H0.807678C0.807678 16.2089 0.807678 16.2282 0.817274 16.2476Z"/><path d="M0.817274 16.1896C0.817274 16.1702 0.817274 16.1412 0.817274 16.1219H0.807678C0.807678 16.1412 0.807678 16.1605 0.817274 16.1896Z"/><path d="M0.817274 16.1219C0.817274 16.1025 0.817274 16.0735 0.817274 16.0542H0.807678C0.807678 16.0735 0.807678 16.0928 0.817274 16.1219Z"/><path d="M0.817274 16.0542C0.817274 16.0348 0.817274 16.0058 0.817274 15.9865H0.807678C0.807678 16.0058 0.807678 16.0348 0.817274 16.0542Z"/><path d="M0.817274 15.8607C0.817274 15.8414 0.817274 15.8124 0.817274 15.793H0.807678C0.807678 15.8124 0.807678 15.8317 0.817274 15.8607Z"/><path d="M0.817274 15.793C0.817274 15.7737 0.817274 15.7447 0.817274 15.7253H0.807678C0.807678 15.7447 0.807678 15.764 0.817274 15.793Z"/><path d="M0.855604 15.4932C0.855604 15.4739 0.855604 15.4449 0.855604 15.4255H0.846008C0.846008 15.4545 0.846008 15.4739 0.855604 15.4932Z"/><path d="M0.80763 14.3424C0.80763 14.352 0.80763 14.3617 0.80763 14.3714L0.798035 14.3617C0.80763 14.352 0.817226 14.352 0.80763 14.3424Z"/><path d="M0.999573 14.1489L1.00917 14.1586C1.00917 14.1586 1.00917 14.1489 0.999573 14.1489Z"/><path d="M33.4719 17.7273C33.4719 17.7466 33.4719 17.766 33.4719 17.7853C33.4815 17.766 33.4815 17.7466 33.4719 17.7273Z"/><path d="M32.2819 20.3191C32.2819 20.2998 32.2819 20.2805 32.2819 20.2611H32.2723C32.2819 20.2708 32.2915 20.2805 32.3107 20.2998V20.2901C32.3011 20.2998 32.2819 20.3095 32.2819 20.3191Z"/><path d="M33.4815 17.7273C33.4815 17.7079 33.4815 17.6789 33.4815 17.6596H33.4719C33.4719 17.6886 33.4719 17.7079 33.4815 17.7273Z"/><path d="M33.4815 17.6596C33.4815 17.6402 33.4815 17.6112 33.4815 17.5919H33.4719C33.4719 17.6209 33.4719 17.6402 33.4815 17.6596C33.4815 17.6596 33.4719 17.6596 33.4815 17.6596Z"/><path d="M33.4814 17.5339C33.4814 17.5532 33.4814 17.5725 33.4814 17.6015H33.491C33.4814 17.5725 33.4814 17.5532 33.4814 17.5339Z"/><path d="M33.4815 17.5338C33.4815 17.5145 33.4815 17.4855 33.4815 17.4662H33.4719C33.4815 17.4855 33.4815 17.5145 33.4815 17.5338Z"/><path d="M33.4814 17.3985C33.4814 17.4178 33.4814 17.4468 33.4814 17.4662H33.491C33.4814 17.4468 33.4814 17.4178 33.4814 17.3985Z"/><path d="M11.4974 0.502896L11.507 0.493225H11.4974V0.502896Z"/><path d="M33.4431 16.9052C33.4431 16.9246 33.4431 16.9536 33.4431 16.9729H33.4526C33.4526 16.9536 33.4526 16.9342 33.4431 16.9052Z"/><path d="M33.4526 16.9052C33.4526 16.8859 33.4526 16.8569 33.4526 16.8375H33.4431C33.4431 16.8665 33.4431 16.8859 33.4526 16.9052Z"/><path d="M17.063 0.319153L17.0534 0.328824H17.063V0.319153Z"/><path d="M33.4526 16.8472C33.4526 16.8278 33.4526 16.7988 33.4526 16.7795C33.443 16.7988 33.443 16.8182 33.4526 16.8472C33.4526 16.8472 33.443 16.8472 33.4526 16.8472Z"/><path d="M17.1302 0.319153C17.111 0.319153 17.0822 0.319153 17.063 0.319153V0.328824C17.0822 0.328824 17.111 0.328824 17.1302 0.319153C17.1302 0.319153 17.1302 0.328824 17.1302 0.319153Z"/><path d="M17.2933 0.367505C17.3125 0.367505 17.3317 0.367505 17.3604 0.367505V0.357834C17.3317 0.357834 17.3125 0.357834 17.2933 0.367505Z"/><path d="M17.3604 0.367505H17.37L17.3604 0.357834V0.367505Z"/><path d="M33.4142 16.354C33.4142 16.3636 33.4046 16.3733 33.4046 16.383C33.4046 16.383 33.395 16.383 33.3854 16.383V16.3926C33.395 16.3733 33.4046 16.3636 33.4142 16.354Z"/><path d="M33.4238 16.2863C33.4238 16.3056 33.4142 16.3346 33.4142 16.354H33.4238C33.4142 16.3443 33.395 16.325 33.3854 16.3153V16.325C33.395 16.3056 33.4142 16.2959 33.4238 16.2863Z"/><path d="M33.4238 16.2863L33.4142 16.2766L33.4238 16.2863Z"/><path d="M33.3854 16.1219C33.3854 16.1315 33.3758 16.1412 33.3758 16.1509C33.3758 16.1509 33.3662 16.1509 33.3566 16.1509V16.1605C33.3662 16.1412 33.3758 16.1315 33.3854 16.1219Z"/><path d="M33.347 16.0832C33.3566 16.0928 33.3662 16.1025 33.3758 16.1122H33.3854C33.3758 16.1025 33.3662 16.0928 33.347 16.0832Z"/><path d="M17.6579 0.0580292C17.6483 0.0580292 17.6483 0.0677004 17.6387 0.0677004C17.6483 0.0677004 17.6483 0.0677004 17.6579 0.0580292C17.6579 0.0580292 17.6579 0.0677004 17.6579 0.0580292Z"/><path d="M32.2819 20.2515C32.2723 20.2418 32.2531 20.2224 32.2435 20.2128V20.2224C32.2531 20.2321 32.2627 20.2418 32.2819 20.2515Z"/><path d="M18.1089 0.0677004C18.1281 0.0677004 18.1569 0.0677004 18.1761 0.0677004V0.0580292C18.1569 0.0580292 18.1281 0.0677004 18.1089 0.0677004Z"/><path d="M18.5599 0.19342L18.5695 0.203092C18.5695 0.203092 18.5695 0.203092 18.5599 0.19342Z"/><path d="M32.8385 14.3133C32.8385 14.3037 32.8289 14.3037 32.8289 14.294C32.8289 14.3037 32.8289 14.3133 32.8385 14.3133C32.8385 14.3133 32.8289 14.3133 32.8385 14.3133Z"/><path d="M32.5314 20.3868C32.5314 20.4062 32.5314 20.4352 32.541 20.4546H32.5506C32.541 20.4352 32.541 20.4062 32.5314 20.3868Z"/><path d="M32.3107 20.4255C32.3491 20.4062 32.3587 20.4255 32.3395 20.4546H32.3491C32.3299 20.4449 32.3203 20.4255 32.3107 20.4255Z"/><path d="M32.2819 20.3869C32.2819 20.3675 32.2819 20.3385 32.2819 20.3191H32.2723C32.2723 20.3385 32.2723 20.3675 32.2819 20.3869Z"/><path d="M32.2147 20.9768L32.2051 20.9865L32.2147 20.9768Z"/><path d="M32.4451 12.147C32.4355 12.1373 32.4259 12.1277 32.4163 12.118H32.4067C32.4163 12.1277 32.4259 12.1373 32.4451 12.147Z"/><path d="M22.2447 29.3811C22.2351 29.3811 22.2159 29.3907 22.2063 29.3907C22.2159 29.352 22.2255 29.3617 22.2447 29.3811Z"/><path d="M2.05513 9.55513V9.54546H2.04553L2.05513 9.55513Z"/><path d="M2.04553 9.54546L2.05513 9.5648V9.55513L2.04553 9.54546Z"/><path d="M2.38136 10.6093C2.38136 10.5899 2.38136 10.5609 2.38136 10.5416H2.37177C2.38136 10.5513 2.40055 10.5706 2.41015 10.5803V10.5706C2.40055 10.5803 2.39096 10.5899 2.38136 10.6093Z"/><path d="M33.0592 18.8781V18.8878L33.0688 18.8781H33.0592Z"/><path d="M32.138 20.3868L32.1476 20.3965C32.1476 20.3965 32.1476 20.3868 32.138 20.3868C32.138 20.3868 32.1476 20.3868 32.138 20.3868Z"/><path d="M33.0688 18.8781L33.0592 18.8685V18.8781H33.0688Z"/><path d="M33.088 18.5203C33.088 18.53 33.088 18.5397 33.088 18.5493L33.0784 18.5397C33.088 18.5203 33.088 18.5203 33.088 18.5203C33.088 18.5203 33.0975 18.5203 33.088 18.5203Z"/><path d="M33.088 18.4526C33.088 18.4719 33.088 18.501 33.088 18.5203H33.0976C33.0976 18.4913 33.0976 18.4719 33.088 18.4526C33.088 18.4526 33.0976 18.4526 33.088 18.4526Z"/><path d="M1.4026 13.2302V13.2205L1.39301 13.2302H1.4026Z"/><path d="M1.21071 13.6944C1.21071 13.6751 1.21071 13.646 1.21071 13.6267H1.20111C1.20111 13.646 1.20111 13.6654 1.21071 13.6944Z"/><path d="M1.07635 13.8201C1.07635 13.8104 1.07635 13.8008 1.07635 13.7911C1.07635 13.8008 1.08595 13.8008 1.07635 13.8008C1.07635 13.8104 1.07635 13.8201 1.07635 13.8201Z"/><path d="M31.9077 12.147C31.9461 12.1857 31.9749 12.234 31.9749 12.3211C31.8981 12.2727 31.9173 12.205 31.9077 12.147Z"/><path d="M31.8885 11.9826C31.9077 12.0309 31.9365 12.0696 31.9557 12.118C31.9365 12.1277 31.9269 12.1373 31.9077 12.147H31.9173C31.8789 12.0986 31.8597 12.0406 31.8885 11.9826Z"/><path d="M31.8789 11.7892C31.9173 11.8472 31.9173 11.8472 31.8501 11.8859C31.8309 11.8569 31.7925 11.8279 31.8213 11.7892H31.8117C31.8405 11.7892 31.8693 11.7892 31.8789 11.7892Z"/><path d="M31.9461 12.118C31.9845 12.1083 32.0133 12.0986 32.0517 12.0793C32.0133 12.089 31.9845 12.1083 31.9461 12.118Z"/><path d="M31.8501 11.8762C31.8789 11.9052 31.9077 11.9342 31.8885 11.9826C31.8789 11.9536 31.8597 11.9149 31.8501 11.8762Z"/><path d="M31.783 11.6828C31.8022 11.7021 31.8309 11.7311 31.8501 11.7505V11.7408C31.8405 11.7505 31.8309 11.7698 31.8117 11.7795H31.8213C31.8117 11.7505 31.8022 11.7215 31.783 11.6828Z"/><path d="M31.7542 11.5861C31.7733 11.6054 31.8021 11.6344 31.8213 11.6538C31.8117 11.6634 31.7925 11.6828 31.7829 11.6925C31.7733 11.6538 31.7637 11.6248 31.7542 11.5861Z"/><path d="M32.3779 15.4932C32.3683 15.5029 32.3491 15.5222 32.3395 15.5319C32.3299 15.5222 32.3107 15.5029 32.3011 15.4932C32.3299 15.4932 32.3491 15.4932 32.3779 15.4932Z"/><path d="M32.4739 14.942C32.4739 14.9323 32.4643 14.9323 32.4643 14.9226C32.4643 14.9226 32.4739 14.9323 32.4739 14.942Z"/><path d="M32.4739 14.0812C32.4835 14.0909 32.5027 14.1103 32.5123 14.1199C32.5027 14.1296 32.4835 14.1489 32.4739 14.1586C32.4739 14.1296 32.4739 14.1006 32.4739 14.0812Z"/><path d="M31.8501 11.7505C31.8789 11.7408 31.8885 11.7505 31.8789 11.7795H31.8885C31.8789 11.7698 31.8693 11.7602 31.8501 11.7505Z"/><path d="M31.8118 11.6538C31.8214 11.6441 31.8406 11.6248 31.8501 11.6151C31.8597 11.6441 31.8501 11.6634 31.8118 11.6538Z"/>
</svg>