<svg width="46" height="24" viewBox="0 0 46 24" fill="none" xmlns="http://www.w3.org/2000/svg">
<path d="M22.6422 23.178C22.6422 23.178 8.94618 19.9915 1.38873 12.9632C1.38873 12.9632 9.98029 14.4722 22.6422 0.914551V23.178Z" fill="#1C1B1A"/>
<path d="M40.3844 13.2339L24.3917 5.37584V2.40576L43.8475 12.5004L40.3844 13.2339Z" fill="#5DADF8"/>
<path d="M4.52714 13.3421L21.4758 5.37584V2.40576L2.02002 12.5004L4.52714 13.3421Z" fill="#116ABD"/>
<path d="M22.8466 22.9076C22.8466 22.9076 8.79588 19.6369 1.04004 12.4282C1.04004 12.4282 9.85404 13.9793 22.8466 0.0668945V22.9076Z" fill="#116ABD"/>
<path d="M22.9849 23.2082C22.9849 23.2082 36.7891 19.9916 44.4006 12.9152C44.4006 12.9152 35.7429 14.4363 22.9849 0.776367V23.2082Z" fill="#717171"/>
<path d="M22.8466 22.9076C22.8466 22.9076 36.8973 19.6369 44.6532 12.4282C44.6532 12.4282 35.8391 13.9793 22.8466 0.0668945V22.9076Z" fill="#5DADF8"/>
<path d="M24.7164 22.258C24.7164 22.258 38.2681 17.8691 42.6691 13.7567L29.1294 8.62818C28.0051 8.20131 26.7426 8.76646 26.3157 9.89677C26.2556 10.0591 26.2135 10.2275 26.1894 10.3958L24.7164 22.258Z" fill="url(#paint0_linear)"/>
<path opacity="0.33" d="M33.0555 17.6161C33.0555 17.6161 35.4003 17.8565 36.206 16.125L33.0555 17.6161Z" fill="#116ABD"/>
<path opacity="0.33" d="M31.5284 16.1126C31.5284 16.1126 33.8732 16.3531 34.6789 14.6216L31.5284 16.1126Z" fill="#116ABD"/>
<path opacity="0.33" d="M30.0735 14.369C30.0735 14.369 32.4183 14.6095 33.2239 12.8779L30.0735 14.369Z" fill="#116ABD"/>
<path opacity="0.33" d="M39.1882 15.0125C39.1882 15.0125 41.533 15.253 42.3386 13.5215L39.1882 15.0125Z" fill="#116ABD"/>
<path opacity="0.33" d="M37.655 13.5096C37.655 13.5096 39.9998 13.7501 40.8055 12.0186L37.655 13.5096Z" fill="#116ABD"/>
<path opacity="0.33" d="M28.6245 12.6321C28.6245 12.6321 30.9693 12.8726 31.775 11.1411L28.6245 12.6321Z" fill="#116ABD"/>
<path opacity="0.33" d="M36.6148 16.744C36.6148 16.744 38.9596 16.9845 39.7652 15.2529L36.6148 16.744Z" fill="#116ABD"/>
<path opacity="0.33" d="M35.0878 15.2411C35.0878 15.2411 37.4326 15.4815 38.2382 13.75L35.0878 15.2411Z" fill="#116ABD"/>
<path opacity="0.33" d="M33.6328 13.4974C33.6328 13.4974 35.9775 13.7379 36.7832 12.0063L33.6328 13.4974Z" fill="#116ABD"/>
<path opacity="0.33" d="M32.1838 11.7601C32.1838 11.7601 34.5286 12.0006 35.3342 10.269L32.1838 11.7601Z" fill="#116ABD"/>
<path opacity="0.33" d="M27.1695 10.8885C27.1695 10.8885 29.5143 11.129 30.3199 9.39746L27.1695 10.8885Z" fill="#116ABD"/>
<path opacity="0.33" d="M25.7206 9.14485C25.7206 9.14485 28.0654 9.38534 28.871 7.65381L25.7206 9.14485Z" fill="#116ABD"/>
<path opacity="0.33" d="M29.8149 18.4398C29.8149 18.4398 32.1597 18.6803 32.9653 16.9487L29.8149 18.4398Z" fill="#116ABD"/>
<path opacity="0.33" d="M28.36 16.702C28.36 16.702 30.7048 16.9425 31.5104 15.2109L28.36 16.702Z" fill="#116ABD"/>
<path opacity="0.33" d="M26.911 14.9583C26.911 14.9583 29.2558 15.1988 30.0614 13.4673L26.911 14.9583Z" fill="#116ABD"/>
<path opacity="0.33" d="M26.9651 20.742C26.9651 20.742 29.3099 20.9825 30.1155 19.251L26.9651 20.742Z" fill="#116ABD"/>
<path opacity="0.33" d="M25.5161 18.9989C25.5161 18.9989 27.8609 19.2394 28.6666 17.5078L25.5161 18.9989Z" fill="#116ABD"/>
<path opacity="0.33" d="M24.0612 17.2552C24.0612 17.2552 26.406 17.4957 27.2117 15.7642L24.0612 17.2552Z" fill="#116ABD"/>
<path opacity="0.33" d="M25.456 13.2152C25.456 13.2152 27.8008 13.4557 28.6064 11.7241L25.456 13.2152Z" fill="#116ABD"/>
<path opacity="0.33" d="M24.0071 11.4774C24.0071 11.4774 26.3519 11.7179 27.1575 9.98633L24.0071 11.4774Z" fill="#116ABD"/>
<path d="M29.0994 21.6986C29.0513 21.6384 24.1994 15.9267 23.0511 12.5118L23.2796 12.4336C24.4159 15.8005 29.2317 21.4821 29.2798 21.5422L29.0994 21.6986Z" fill="#526F8A"/>
<path d="M26.1414 22.8465C26.1233 22.8285 24.5421 21.0429 22.7805 18.139L22.9849 18.0127C24.7345 20.8986 26.3037 22.6662 26.3218 22.6842L26.1414 22.8465Z" fill="#526F8A"/>
<path d="M32.6166 20.3693C26.8629 14.8861 22.9128 6.26451 22.8707 6.18033L23.0872 6.07812C23.1232 6.1623 27.0613 14.7478 32.779 20.195L32.6166 20.3693Z" fill="#526F8A"/>
<path d="M35.9535 18.8786C35.9295 18.8606 33.7771 16.7743 31.1377 13.5217C28.7027 10.5216 25.3418 5.88007 23.1654 0.823736L23.3879 0.727539C25.5583 5.75982 28.9011 10.3833 31.3301 13.3714C33.9574 16.612 36.1038 18.6862 36.1219 18.7043L35.9535 18.8786Z" fill="#526F8A"/>
<path d="M39.11 17.219C39.0558 17.1769 33.6147 12.7759 30.0134 7.04618L30.2178 6.91992C33.7951 12.6136 39.2062 16.9845 39.2603 17.0326L39.11 17.219Z" fill="#526F8A"/>
<path d="M41.9597 15.482C41.9357 15.47 39.651 13.985 36.9094 10.8165L37.0898 10.6602C39.8134 13.8046 42.068 15.2656 42.086 15.2836L41.9597 15.482Z" fill="#526F8A"/>
<path d="M44.3646 13.0043C44.3646 13.0043 32.0635 11.4832 23.3637 1.06988L23.3517 0.606934C23.3517 0.606934 31.318 10.1665 44.9358 12.4932L44.3646 13.0043Z" fill="#4F4F4F"/>
<path d="M1.99608 12.3073L0 11.5918L0.769573 12.9626L1.83375 13.2632L1.99608 12.3073Z" fill="#323232"/>
<path d="M43.6912 12.3073L45.6873 11.5918L44.9177 12.9626L43.8536 13.2632L43.6912 12.3073Z" fill="#4F4F4F"/>
<path opacity="0.33" d="M13.0406 17.6161C13.0406 17.6161 10.6958 17.8565 9.8902 16.125L13.0406 17.6161Z" fill="#0E3A63"/>
<path opacity="0.33" d="M14.5677 16.1126C14.5677 16.1126 12.2229 16.3531 11.4173 14.6216L14.5677 16.1126Z" fill="#0E3A63"/>
<path opacity="0.33" d="M16.0167 14.369C16.0167 14.369 13.6719 14.6095 12.8663 12.8779L16.0167 14.369Z" fill="#0E3A63"/>
<path opacity="0.33" d="M6.90813 15.0125C6.90813 15.0125 4.56334 15.253 3.75769 13.5215L6.90813 15.0125Z" fill="#0E3A63"/>
<path opacity="0.33" d="M8.43523 13.5096C8.43523 13.5096 6.09044 13.7501 5.28479 12.0186L8.43523 13.5096Z" fill="#0E3A63"/>
<path opacity="0.33" d="M17.4717 12.6321C17.4717 12.6321 15.1269 12.8726 14.3213 11.1411L17.4717 12.6321Z" fill="#0E3A63"/>
<path opacity="0.33" d="M9.48132 16.744C9.48132 16.744 7.13652 16.9845 6.33087 15.2529L9.48132 16.744Z" fill="#0E3A63"/>
<path opacity="0.33" d="M11.0085 15.2411C11.0085 15.2411 8.66374 15.4815 7.85809 13.75L11.0085 15.2411Z" fill="#0E3A63"/>
<path opacity="0.33" d="M12.4575 13.4974C12.4575 13.4974 10.1127 13.7379 9.30707 12.0063L12.4575 13.4974Z" fill="#0E3A63"/>
<path opacity="0.33" d="M13.9124 11.7601C13.9124 11.7601 11.5676 12.0006 10.762 10.269L13.9124 11.7601Z" fill="#0E3A63"/>
<path opacity="0.33" d="M18.9207 10.8885C18.9207 10.8885 16.5759 11.129 15.7703 9.39746L18.9207 10.8885Z" fill="#0E3A63"/>
<path opacity="0.33" d="M20.3757 9.14485C20.3757 9.14485 18.0309 9.38534 17.2252 7.65381L20.3757 9.14485Z" fill="#0E3A63"/>
<path opacity="0.33" d="M16.2812 18.4398C16.2812 18.4398 13.9364 18.6803 13.1308 16.9487L16.2812 18.4398Z" fill="#0E3A63"/>
<path opacity="0.33" d="M17.7302 16.702C17.7302 16.702 15.3854 16.9425 14.5798 15.2109L17.7302 16.702Z" fill="#0E3A63"/>
<path opacity="0.33" d="M19.1852 14.9583C19.1852 14.9583 16.8404 15.1988 16.0348 13.4673L19.1852 14.9583Z" fill="#0E3A63"/>
<path opacity="0.33" d="M19.1312 20.742C19.1312 20.742 16.7864 20.9825 15.9807 19.251L19.1312 20.742Z" fill="#0E3A63"/>
<path opacity="0.33" d="M20.58 18.9989C20.58 18.9989 18.2352 19.2394 17.4296 17.5078L20.58 18.9989Z" fill="#0E3A63"/>
<path opacity="0.33" d="M22.029 17.2552C22.029 17.2552 19.6842 17.4957 18.8786 15.7642L22.029 17.2552Z" fill="#0E3A63"/>
<path opacity="0.33" d="M20.6342 13.2152C20.6342 13.2152 18.2894 13.4557 17.4838 11.7241L20.6342 13.2152Z" fill="#0E3A63"/>
<path opacity="0.33" d="M22.0892 11.4774C22.0892 11.4774 19.7444 11.7179 18.9387 9.98633L22.0892 11.4774Z" fill="#0E3A63"/>
<path d="M22.8467 0V23.2014C22.8467 23.2014 23.3337 23.2495 23.7005 22.985C23.7005 22.985 23.4239 19.9187 23.1653 0.607241C23.1653 0.36675 23.0451 0.138283 22.8467 0Z" fill="#4F4F4F"/>
<path d="M16.5158 21.6986L16.3354 21.5422C16.3835 21.4881 21.2053 15.8065 22.3356 12.4336L22.5641 12.5118C21.4158 15.9267 16.5639 21.6444 16.5158 21.6986Z" fill="#23415E"/>
<path d="M19.4738 22.8465L19.2934 22.6842C19.3114 22.6662 20.8746 20.8926 22.6302 18.0127L22.8346 18.139C21.067 21.0429 19.4918 22.8285 19.4738 22.8465Z" fill="#23415E"/>
<path d="M12.9985 20.3693L12.8302 20.195C18.5479 14.7418 22.4799 6.1623 22.522 6.07812L22.7384 6.18033C22.7024 6.26451 18.7463 14.8861 12.9985 20.3693Z" fill="#23415E"/>
<path d="M9.66169 18.8786L9.49335 18.7043C9.5174 18.6862 11.6578 16.606 14.2912 13.3654C16.7141 10.3773 20.0629 5.75381 22.2274 0.727539L22.4498 0.823736C20.2734 5.88007 16.9125 10.5216 14.4715 13.5217C11.8381 16.7743 9.68574 18.8606 9.66169 18.8786Z" fill="#23415E"/>
<path d="M6.50535 17.219L6.35504 17.0326C6.40915 16.9905 11.8202 12.6136 15.3975 6.91992L15.6019 7.04618C12.0006 12.7759 6.55946 17.1709 6.50535 17.219Z" fill="#23415E"/>
<path d="M3.65546 15.482L3.52319 15.2776C3.54724 15.2656 5.80185 13.7986 8.5194 10.6602L8.69977 10.8165C5.95817 13.985 3.67951 15.464 3.65546 15.482Z" fill="#23415E"/>
<path d="M22.8467 0V23.2014C22.8467 23.2014 22.3597 23.2495 21.993 22.985C21.993 22.985 22.2695 19.9187 22.5281 0.607241C22.5281 0.36675 22.6483 0.138283 22.8467 0Z" fill="#323232"/>
<path d="M1.32272 13.0043C1.32272 13.0043 13.6239 11.4832 22.3236 1.06988L22.3357 0.606934C22.3357 0.606934 14.3694 10.1665 0.757568 12.4932L1.32272 13.0043Z" fill="#323232"/>
<path d="M21.6623 22.5522L22.8587 21.7466L24.1153 22.5342L22.9068 22.925L21.6623 22.5522Z" fill="#5B727B"/>
<path d="M21.6623 22.8231L22.8587 22.0234L24.1153 22.805L22.9068 23.1958L21.6623 22.8231Z" fill="#1C1B1A"/>
<path d="M22.7504 21.8012L22.8406 8.61621L22.9308 21.8012H22.7504Z" fill="#5B727B"/>
<path d="M45.7174 11.6761L43.7814 12.3796L43.7574 12.3856L43.7394 12.3796C43.2043 12.2593 42.6812 12.121 42.1521 11.9767C41.8876 11.9046 41.629 11.8264 41.3705 11.7483L40.5889 11.5078C39.5488 11.1771 38.5267 10.8043 37.5166 10.4015C36.5066 9.9987 35.5145 9.54177 34.5406 9.05478L33.8191 8.676C33.5786 8.54373 33.3441 8.40545 33.1096 8.27318L32.7549 8.06876C32.6407 7.99661 32.5264 7.92447 32.4062 7.85232L31.7148 7.41943L32.4122 7.84631C32.5264 7.91845 32.6407 7.9906 32.7609 8.05674L33.1156 8.25514C33.3561 8.38741 33.5906 8.51968 33.8311 8.64594L34.5586 9.01269C35.5326 9.48766 36.5306 9.93257 37.5467 10.3234C38.5628 10.7142 39.5849 11.0749 40.625 11.3936L41.4066 11.628C41.6651 11.7002 41.9297 11.7783 42.1942 11.8445C42.7173 11.9828 43.2464 12.115 43.7754 12.2293H43.7333L45.6573 11.5018L45.7174 11.6761Z" fill="#5B727B"/>
<path d="M0.0901522 11.5318L2.02611 12.2353H1.98402C2.6093 12.097 3.22857 11.9347 3.84783 11.7603C4.4671 11.5859 5.08035 11.3996 5.68759 11.2012C6.29483 11.0028 6.90207 10.7923 7.5033 10.5699C8.10453 10.3474 8.70576 10.1129 9.29496 9.86042C9.88417 9.60791 10.4734 9.34938 11.0505 9.07281C11.3391 8.93453 11.6277 8.79024 11.9163 8.64594C12.2049 8.50165 12.4875 8.35134 12.7641 8.19502C13.8944 7.58177 14.9766 6.89036 16.0167 6.13281C14.9886 6.90238 13.9064 7.60582 12.7821 8.2311C12.5055 8.39343 12.2169 8.53772 11.9344 8.69404C11.6518 8.85036 11.3632 8.98864 11.0746 9.12693C10.4974 9.4095 9.91423 9.68005 9.32502 9.93257C8.73582 10.1851 8.1406 10.4316 7.53937 10.6601C6.93815 10.8885 6.3309 11.105 5.72366 11.3154C5.11642 11.5258 4.49716 11.7122 3.8839 11.8926C3.27065 12.0729 2.64537 12.2413 2.01408 12.3856L1.99003 12.3916L1.96599 12.3856L0.0300293 11.7002L0.0901522 11.5318Z" fill="#556C75"/>
<defs>
<linearGradient id="paint0_linear" x1="27.0659" y1="8.91382" x2="34.6486" y2="19.3145" gradientUnits="userSpaceOnUse">
<stop stop-color="#5DADF8" stop-opacity="0"/>
<stop offset="1" stop-color="#A4DEFF"/>
</linearGradient>
</defs>
</svg>
