<svg width="50" height="48" viewBox="0 0 50 48" fill="none" xmlns="http://www.w3.org/2000/svg">
<path d="M24.9397 37.1422C24.9397 37.1422 11.244 33.9561 3.68738 26.9379C3.68738 26.9379 12.2756 28.4479 24.9397 14.9009V37.1422Z" fill="#1C1B1A"/>
<path d="M42.6819 27.2038L26.6896 19.3517V16.3843L46.1435 26.4744L42.6819 27.2038Z" fill="#FFC85C"/>
<path d="M6.82875 27.3159L23.7733 19.3517V16.3843L4.31946 26.4745L6.82875 27.3159Z" fill="#A6762E"/>
<path d="M25.145 36.8692C25.145 36.8692 11.0935 33.6004 3.34052 26.4004C3.34052 26.4004 12.1518 27.9493 25.145 14.0503V36.8692Z" fill="url(#paint0_linear)"/>
<path d="M25.2817 37.1707C25.2817 37.1707 39.0828 33.9579 46.6983 26.8878C46.6983 26.8878 38.0437 28.4094 25.2817 14.7578V37.1707Z" fill="#717171"/>
<path d="M25.145 36.8692C25.145 36.8692 39.1965 33.6004 46.9501 26.4004C46.9501 26.4004 38.1388 27.9493 25.145 14.0503V36.8692Z" fill="url(#paint1_linear)"/>
<path d="M27.0173 36.2217C27.0173 36.2217 40.566 31.8339 44.9703 27.7277C44.9703 27.7277 39.2984 26.2813 34.483 27.8993C30.0623 29.3854 27.0173 36.2217 27.0173 36.2217Z" fill="url(#paint2_linear)"/>
<g opacity="0.7">
<path opacity="0.35" d="M35.3531 31.5848C35.3531 31.5848 37.6983 31.8268 38.5048 30.0933L35.3531 31.5848Z" fill="#AF7D32"/>
<path opacity="0.35" d="M33.8249 30.0814C33.8249 30.0814 36.17 30.3234 36.9766 28.5898L33.8249 30.0814Z" fill="#AF7D32"/>
<path opacity="0.35" d="M32.3739 28.3421C32.3739 28.3421 34.719 28.5834 35.5249 26.8506L32.3739 28.3421Z" fill="#AF7D32"/>
<path opacity="0.35" d="M41.4841 28.9818C41.4841 28.9818 43.8292 29.2231 44.6357 27.4902L41.4841 28.9818Z" fill="#AF7D32"/>
<path opacity="0.35" d="M39.9545 27.4781C39.9545 27.4781 42.2996 27.7194 43.1054 25.9858L39.9545 27.4781Z" fill="#AF7D32"/>
<path opacity="0.35" d="M30.9243 26.5999C30.9243 26.5999 33.2694 26.8419 34.076 25.1084L30.9243 26.5999Z" fill="#AF7D32"/>
<path opacity="0.35" d="M38.9139 30.7137C38.9139 30.7137 41.259 30.9557 42.0649 29.2222L38.9139 30.7137Z" fill="#AF7D32"/>
<path opacity="0.35" d="M37.3856 29.2108C37.3856 29.2108 39.7307 29.4528 40.5366 27.7192L37.3856 29.2108Z" fill="#AF7D32"/>
<path opacity="0.35" d="M35.934 27.4706C35.934 27.4706 38.2791 27.7125 39.0856 25.979L35.934 27.4706Z" fill="#AF7D32"/>
<path opacity="0.35" d="M34.4816 25.7313C34.4816 25.7313 36.8267 25.9733 37.6326 24.2397L34.4816 25.7313Z" fill="#AF7D32"/>
<path opacity="0.35" d="M29.4713 24.8617C29.4713 24.8617 31.8164 25.1037 32.6222 23.3701L29.4713 24.8617Z" fill="#AF7D32"/>
<path opacity="0.35" d="M28.0196 23.1219C28.0196 23.1219 30.3647 23.3632 31.1713 21.6304L28.0196 23.1219Z" fill="#AF7D32"/>
<path opacity="0.35" d="M32.1112 32.4105C32.1112 32.4105 34.4563 32.6525 35.2629 30.9189L32.1112 32.4105Z" fill="#AF7D32"/>
<path opacity="0.35" d="M30.6602 30.6683C30.6602 30.6683 33.0053 30.9103 33.8112 29.1768L30.6602 30.6683Z" fill="#AF7D32"/>
<path opacity="0.35" d="M29.2086 28.9288C29.2086 28.9288 31.5537 29.1701 32.3609 27.4365L29.2086 28.9288Z" fill="#AF7D32"/>
<path opacity="0.35" d="M29.2646 34.7054C29.2646 34.7054 31.6098 34.9474 32.4156 33.2139L29.2646 34.7054Z" fill="#AF7D32"/>
<path opacity="0.35" d="M27.8137 32.9654C27.8137 32.9654 30.1581 33.2067 30.9646 31.4731L27.8137 32.9654Z" fill="#AF7D32"/>
<path opacity="0.35" d="M26.362 31.225C26.362 31.225 28.7071 31.4669 29.513 29.7334L26.362 31.225Z" fill="#AF7D32"/>
<path opacity="0.35" d="M27.7576 27.1883C27.7576 27.1883 30.1027 27.4303 30.9086 25.6968L27.7576 27.1883Z" fill="#AF7D32"/>
<path opacity="0.35" d="M26.3066 25.4491C26.3066 25.4491 28.651 25.6911 29.4576 23.9575L26.3066 25.4491Z" fill="#AF7D32"/>
</g>
<path d="M31.3854 35.6757C31.1856 35.4419 26.4851 29.9056 25.3351 26.4926L25.5944 26.4058C26.728 29.7689 31.5461 35.4419 31.594 35.4972L31.3854 35.6757Z" fill="#6F685C"/>
<path d="M28.4266 36.8232C28.4108 36.8054 26.8292 35.0199 25.0649 32.1202L25.2988 31.978C27.0488 34.8552 28.6154 36.6263 28.6304 36.6413L28.4266 36.8232Z" fill="#6F685C"/>
<path d="M34.9058 34.3497C29.1525 28.8681 25.197 20.2504 25.1573 20.1636L25.407 20.0508C25.446 20.1369 29.3803 28.7075 35.0946 34.1521L34.9058 34.3497Z" fill="#6F685C"/>
<path d="M38.2387 32.8585C38.2175 32.838 36.0639 30.7538 33.4247 27.5041C30.9886 24.504 27.6269 19.8666 25.4473 14.8116L25.6991 14.7036C29.8461 24.3235 38.3434 32.5796 38.4289 32.6617L38.2387 32.8585Z" fill="#6F685C"/>
<path d="M41.3992 31.1974C41.3452 31.1536 35.9025 26.7542 32.3007 21.0313L32.5326 20.8857C36.1104 26.573 41.5169 30.9404 41.5716 30.9841L41.3992 31.1974Z" fill="#6F685C"/>
<path d="M44.2485 29.4622C44.226 29.4479 41.9431 27.9673 39.1951 24.7982L39.4003 24.6191C42.1223 27.7588 44.373 29.2175 44.3943 29.2319L44.2485 29.4622Z" fill="#6F685C"/>
<path d="M46.6634 26.9794C46.6634 26.9794 34.3598 25.4598 25.6635 15.0483L25.6567 14.5903C25.6567 14.5903 33.6183 24.1446 47.2319 26.4687L46.6634 26.9794Z" fill="#4F4F4F"/>
<path d="M4.29826 26.281L2.29999 25.5674L3.07029 26.9338L4.13407 27.2353L4.29826 26.281Z" fill="#323232"/>
<path d="M45.9861 26.281L47.9844 25.5674L47.2141 26.9338L46.1496 27.2353L45.9861 26.281Z" fill="#4F4F4F"/>
<path opacity="0.33" d="M15.339 31.5853C15.339 31.5853 12.9939 31.8273 12.1873 30.0938L15.339 31.5853Z" fill="#5E451F"/>
<path opacity="0.33" d="M16.8673 30.0819C16.8673 30.0819 14.5222 30.3239 13.7163 28.5903L16.8673 30.0819Z" fill="#5E451F"/>
<path opacity="0.33" d="M18.3183 28.3421C18.3183 28.3421 15.9732 28.5834 15.1673 26.8506L18.3183 28.3421Z" fill="#5E451F"/>
<path opacity="0.33" d="M9.20805 28.9817C9.20805 28.9817 6.86294 29.223 6.05707 27.4888L9.20805 28.9817Z" fill="#5E451F"/>
<path opacity="0.33" d="M10.7364 27.4786C10.7364 27.4786 8.39126 27.7199 7.58539 25.9863L10.7364 27.4786Z" fill="#5E451F"/>
<path opacity="0.33" d="M19.7734 26.6004C19.7734 26.6004 17.4283 26.8424 16.6217 25.1089L19.7734 26.6004Z" fill="#5E451F"/>
<path opacity="0.33" d="M11.7782 30.7142C11.7782 30.7142 9.43313 30.9562 8.62726 29.2227L11.7782 30.7142Z" fill="#5E451F"/>
<path opacity="0.33" d="M13.3066 29.2108C13.3066 29.2108 10.9615 29.4528 10.1556 27.7192L13.3066 29.2108Z" fill="#5E451F"/>
<path opacity="0.33" d="M14.7582 27.471C14.7582 27.471 12.4131 27.713 11.6065 25.9795L14.7582 27.471Z" fill="#5E451F"/>
<path opacity="0.33" d="M16.2092 25.7318C16.2092 25.7318 13.8641 25.9738 13.0582 24.2402L16.2092 25.7318Z" fill="#5E451F"/>
<path opacity="0.33" d="M21.2209 24.8622C21.2209 24.8622 18.8758 25.1041 18.0699 23.3706L21.2209 24.8622Z" fill="#5E451F"/>
<path opacity="0.33" d="M22.6726 23.1224C22.6726 23.1224 20.3275 23.3637 19.5209 21.6309L22.6726 23.1224Z" fill="#5E451F"/>
<path opacity="0.33" d="M18.581 32.4105C18.581 32.4105 16.2359 32.6525 15.4293 30.9189L18.581 32.4105Z" fill="#5E451F"/>
<path opacity="0.33" d="M20.032 30.6688C20.032 30.6688 17.6869 30.9108 16.881 29.1772L20.032 30.6688Z" fill="#5E451F"/>
<path opacity="0.33" d="M21.4836 28.9292C21.4836 28.9292 19.1385 29.1705 18.332 27.437L21.4836 28.9292Z" fill="#5E451F"/>
<path opacity="0.33" d="M21.4275 34.7054C21.4275 34.7054 19.0824 34.9474 18.2766 33.2139L21.4275 34.7054Z" fill="#5E451F"/>
<path opacity="0.33" d="M22.8785 32.9654C22.8785 32.9654 20.5341 33.2067 19.7275 31.4731L22.8785 32.9654Z" fill="#5E451F"/>
<path opacity="0.33" d="M24.3302 31.2254C24.3302 31.2254 21.9851 31.4674 21.1792 29.7339L24.3302 31.2254Z" fill="#5E451F"/>
<path opacity="0.33" d="M22.9346 27.1888C22.9346 27.1888 20.5895 27.4308 19.7836 25.6973L22.9346 27.1888Z" fill="#5E451F"/>
<path opacity="0.33" d="M24.3862 25.4496C24.3862 25.4496 22.0411 25.6915 21.2346 23.958L24.3862 25.4496Z" fill="#5E451F"/>
<path d="M25.145 13.9819V37.1659C25.145 37.1659 25.632 37.2117 26.0015 36.9478C26.0015 36.9478 25.7278 33.8854 25.4637 14.5903C25.4639 14.4707 25.4349 14.3528 25.3794 14.2469C25.3239 14.1409 25.2434 14.05 25.145 13.9819Z" fill="#4F4F4F"/>
<path d="M18.8272 35.6758L18.622 35.4987C18.6699 35.442 23.4874 29.7683 24.6209 26.4072L24.8802 26.494C23.7275 29.9057 19.027 35.442 18.8272 35.6758Z" fill="#3A3732"/>
<path d="M21.7867 36.8232L21.5815 36.6413C21.5972 36.6236 23.1631 34.8552 24.9131 31.978L25.147 32.1202C23.3841 35.0199 21.8024 36.8054 21.7867 36.8232Z" fill="#3A3732"/>
<path d="M15.3069 34.3497L15.1215 34.1521C20.8365 28.7068 24.7673 20.139 24.8097 20.0508L25.0588 20.1636C25.0157 20.2504 21.0602 28.8681 15.3069 34.3497Z" fill="#3A3732"/>
<path d="M11.9745 32.8585L11.785 32.6617C11.8699 32.5796 20.3671 24.3221 24.5142 14.7036L24.7659 14.8116C22.5863 19.8666 19.2247 24.504 16.7886 27.5041C14.1486 30.7538 11.9957 32.838 11.9745 32.8585Z" fill="#3A3732"/>
<path d="M8.81337 31.1974L8.64166 30.9841C8.69639 30.9404 14.1042 26.5717 17.6807 20.8857L17.9126 21.0313C14.3101 26.7569 8.8681 31.1536 8.81337 31.1974Z" fill="#3A3732"/>
<path d="M5.96403 29.4622L5.81763 29.2319C5.8402 29.2175 8.09227 27.7554 10.8116 24.6191L11.0168 24.7982C8.27014 27.9673 5.9866 29.4479 5.96403 29.4622Z" fill="#3A3732"/>
<path d="M25.1449 13.9819V37.1659C25.1449 37.1659 24.6585 37.2117 24.2891 36.9478C24.2891 36.9478 24.5628 33.8854 24.8268 14.5903C24.8266 14.4708 24.8555 14.3529 24.9109 14.247C24.9663 14.141 25.0466 14.0501 25.1449 13.9819Z" fill="#323232"/>
<path d="M25.0389 35.7629L25.1416 22.5933L25.2442 35.7629H25.0389Z" fill="#7F665B"/>
<path d="M3.6244 26.9794C3.6244 26.9794 15.928 25.4598 24.6264 15.0511L24.6366 14.5903C24.6366 14.5903 16.6696 24.1446 3.05591 26.4687L3.6244 26.9794Z" fill="#323232"/>
<path d="M23.9622 36.5156L25.1587 35.7124L26.4147 36.4958L25.2086 36.8868L23.9622 36.5156Z" fill="#7F665B"/>
<path d="M23.9622 36.789L25.1587 35.9858L26.4147 36.7692L25.2086 37.1602L23.9622 36.789Z" fill="#1C1B1A"/>
<path d="M48.02 25.6639L46.0854 26.3639L46.06 26.3728L46.0361 26.3673C45.5025 26.2456 44.9764 26.1082 44.451 25.9613C44.1883 25.8888 43.9284 25.8088 43.6664 25.7336L42.8865 25.4917C41.8494 25.1594 40.8255 24.7896 39.8149 24.3822C38.8024 23.981 37.8132 23.525 36.8411 23.0356L36.1173 22.6589C35.8785 22.5291 35.6446 22.3903 35.4079 22.2563L35.0535 22.0512C34.9365 21.9829 34.823 21.907 34.7073 21.8352L34.0178 21.4053L34.7135 21.8305C34.8298 21.8988 34.944 21.974 35.0617 22.0417L35.4188 22.2392C35.6569 22.3698 35.8929 22.5051 36.133 22.6316L36.8609 22.998C37.8378 23.4765 38.8318 23.9153 39.847 24.3016C40.8622 24.6878 41.8877 25.0494 42.9255 25.3666L43.7067 25.5976C43.9681 25.6694 44.2287 25.7453 44.4914 25.8136C45.0154 25.9503 45.5435 26.0836 46.0717 26.1964L46.0231 26.1998L47.9482 25.4739L48.02 25.6639Z" fill="#B79589"/>
<path d="M2.39234 25.4916L4.32835 26.1957H4.27909C4.90231 26.059 5.52485 25.8963 6.14191 25.724C6.75897 25.5518 7.3733 25.3651 7.98352 25.1669C9.20327 24.7684 10.4093 24.3275 11.5922 23.8285C12.1839 23.5797 12.7709 23.3192 13.3489 23.041C13.6397 22.9043 13.925 22.7587 14.213 22.6165C14.501 22.4743 14.7835 22.3226 15.064 22.166C16.1938 21.5533 17.281 20.8652 18.3183 20.1064C17.2891 20.8765 16.2092 21.5764 15.0859 22.2016C14.8068 22.3622 14.5215 22.5099 14.239 22.663C13.9564 22.8161 13.6684 22.9597 13.3784 23.0984C12.8023 23.3842 12.2154 23.6514 11.6277 23.9078C10.4483 24.4218 9.24432 24.8784 8.02593 25.292C7.41708 25.4975 6.80367 25.691 6.18569 25.8724C5.57 26.0528 4.94746 26.2223 4.3174 26.3686L4.29278 26.3741L4.26815 26.3652L2.32324 25.6816L2.39234 25.4916Z" fill="#625951"/>
<path d="M35.4893 22.7438V22.9496H35.4906V22.7432L35.4893 22.7438Z" fill="#3A3128"/>
<path d="M25.1381 27.7967L14.6877 22.376V10.8188L25.1381 16.2389V27.7967Z" fill="#787878"/>
<path d="M15.248 10.8188H14.6891V22.3766L15.248 22.6665V10.8188Z" fill="#5C5041"/>
<path d="M19.8342 13.1025H19.3745V24.8066L19.8342 25.0452V13.1025Z" fill="#51463B"/>
<path d="M15.248 10.8188V22.6665L15.4074 22.7492V10.8188H15.248Z" fill="#3A3128"/>
<path d="M24.179 15.7422V27.3L25.1361 27.7963V16.2385L24.179 15.7422Z" fill="#51463B"/>
<path d="M24.179 23.8683L15.3151 19.2706V18.6294L24.179 23.2271V23.8683Z" fill="#51463B"/>
<path d="M19.8343 13.0117V13.1026V25.0453L19.8528 25.0549L19.9944 25.1287V13.0944L19.8343 13.0117Z" fill="#3A3128"/>
<path d="M35.0295 11.3439H35.0309V10.8101H34.8715V22.7787L35.0295 22.6967V11.3439Z" fill="#3A3128"/>
<path d="M25.1381 27.7967L35.5878 22.376V10.8188L25.1381 16.2389V27.7967Z" fill="#CFCFCE"/>
<path d="M25.9576 23.8678L34.9495 19.2045V18.5503L25.9576 23.2136V23.8678Z" fill="#6D6152"/>
<path d="M25.136 15.6768V27.8279L26.0138 27.3726V15.6768H25.136Z" fill="#6D6152"/>
<path d="M12 23.3999L14.5 21.8999L25 27.3999L35.5 22.3999V21.8999L38 23.3999L25 29.8999L12 23.3999Z" fill="#525252"/>
<rect x="12" y="10.1001" width="1" height="14" fill="url(#paint3_linear)"/>
<rect x="17" y="13.1001" width="1" height="13.5" fill="url(#paint4_linear)"/>
<rect x="24.5" y="16.1001" width="1" height="13.5" fill="url(#paint5_linear)"/>
<rect width="1" height="13.5" transform="matrix(-1 0 0 1 33 13.1001)" fill="url(#paint6_linear)"/>
<rect width="1" height="13.5" transform="matrix(-1 0 0 1 38 10.1001)" fill="url(#paint7_linear)"/>
<path d="M24.8535 17.4179C24.8535 17.4179 14.553 15.022 8.87012 9.74411C8.87012 9.74411 15.3287 10.8795 24.8535 0.690918V17.4179Z" fill="#1C1B1A"/>
<path d="M38.1963 9.94317L26.1691 4.0385V1.80664L40.8 9.39495L38.1963 9.94317Z" fill="#FFC85C"/>
<path opacity="0.15" d="M25.1231 17.4362L25.1033 20.8103C25.1033 20.8103 17.1916 17.7281 14.6898 19.9695V13.3833L25.1231 17.4362Z" fill="#3A3431"/>
<path d="M11.2323 10.0272L23.9758 4.0385V1.80664L9.34558 9.39495L11.2323 10.0272Z" fill="#A6762E"/>
<path d="M30.444 13.3022V25.0747L30.9201 24.8279V13.3022H30.444Z" fill="#6D6152"/>
<path d="M35.0309 11.3438V22.6958L35.5878 22.4066V11.3438H35.0309Z" fill="#6D6152"/>
<path d="M35.0295 11.3439H35.0309V10.8101H34.8715V22.7787L35.0295 22.6967V11.3439Z" fill="#3A3128"/>
<path d="M25.0075 17.2123C25.0075 17.2123 14.4374 14.7542 8.6095 9.33893C8.6095 9.33893 15.2357 10.501 25.0075 0.0512695V17.2123Z" fill="#A6762E"/>
<path d="M30.444 25.0747V13.3022H30.2846V25.1574L30.444 25.0747Z" fill="#3A3128"/>
<path opacity="0.2" d="M35.5878 15.0616C35.5878 15.0616 30.5419 14.4683 25.1265 20.9267L25.1149 13.1976L35.5878 13.0103V15.0616Z" fill="#3A3431"/>
<path d="M25.1094 17.4409C25.1094 17.4409 35.4887 15.0265 41.2153 9.70769C41.2153 9.70769 34.7067 10.852 25.1094 0.585449V17.4409Z" fill="#717171"/>
<path d="M25.0074 17.2123C25.0074 17.2123 35.5762 14.7542 41.4061 9.33893C41.4061 9.33893 34.7792 10.501 25.0074 0.0512695V17.2123Z" fill="#FFC85C"/>
<path d="M26.4153 16.7257C26.4153 16.7257 36.6085 13.4261 39.9168 10.3378L29.7353 6.48517C29.5032 6.39781 29.2542 6.36414 29.0072 6.38669C28.7602 6.40924 28.5215 6.48742 28.309 6.61537C28.0966 6.74332 27.9159 6.9177 27.7806 7.12543C27.6453 7.33315 27.5588 7.56881 27.5277 7.81472L26.4153 16.7257Z" fill="url(#paint8_linear)"/>
<path opacity="0.35" d="M32.6845 13.2384C32.6845 13.2384 34.4481 13.4203 35.0549 12.1167L32.6845 13.2384Z" fill="#AF7D32"/>
<path opacity="0.35" d="M31.5352 12.1086C31.5352 12.1086 33.2988 12.2904 33.9049 10.9868L31.5352 12.1086Z" fill="#AF7D32"/>
<path opacity="0.35" d="M30.4454 10.7995C30.4454 10.7995 32.209 10.9813 32.8151 9.67773L30.4454 10.7995Z" fill="#AF7D32"/>
<path opacity="0.35" d="M37.2953 11.2809C37.2953 11.2809 39.059 11.4627 39.6651 10.1592L37.2953 11.2809Z" fill="#AF7D32"/>
<path opacity="0.35" d="M36.146 10.1501C36.146 10.1501 37.9096 10.3312 38.5178 9.02832L36.146 10.1501Z" fill="#AF7D32"/>
<path opacity="0.35" d="M29.3508 9.49088C29.3508 9.49088 31.1145 9.67271 31.7213 8.36914L29.3508 9.49088Z" fill="#AF7D32"/>
<path opacity="0.35" d="M35.3627 12.5871C35.3627 12.5871 37.1257 12.7689 37.7325 11.4653L35.3627 12.5871Z" fill="#AF7D32"/>
<path opacity="0.35" d="M34.2127 11.4528C34.2127 11.4528 35.9763 11.6353 36.5831 10.3311L34.2127 11.4528Z" fill="#AF7D32"/>
<path opacity="0.35" d="M33.1216 10.1447C33.1216 10.1447 34.8853 10.3265 35.4914 9.02295L33.1216 10.1447Z" fill="#AF7D32"/>
<path opacity="0.35" d="M32.0298 8.83609C32.0298 8.83609 33.7934 9.01792 34.4002 7.71436L32.0298 8.83609Z" fill="#AF7D32"/>
<path opacity="0.35" d="M28.261 8.18248C28.261 8.18248 30.0247 8.36431 30.6308 7.06006L28.261 8.18248Z" fill="#AF7D32"/>
<path opacity="0.35" d="M27.1693 6.87369C27.1693 6.87369 28.9329 7.05552 29.5397 5.75195L27.1693 6.87369Z" fill="#AF7D32"/>
<path opacity="0.35" d="M30.2463 13.8576C30.2463 13.8576 32.0099 14.0394 32.6167 12.7358L30.2463 13.8576Z" fill="#AF7D32"/>
<path opacity="0.35" d="M29.1552 12.5495C29.1552 12.5495 30.9188 12.7313 31.5249 11.4277L29.1552 12.5495Z" fill="#AF7D32"/>
<path opacity="0.35" d="M28.064 11.2409C28.064 11.2409 29.8297 11.4248 30.4338 10.1191L28.064 11.2409Z" fill="#AF7D32"/>
<path opacity="0.35" d="M28.1058 15.5851C28.1058 15.5851 29.8694 15.7669 30.4755 14.4634L28.1058 15.5851Z" fill="#AF7D32"/>
<path opacity="0.35" d="M27.0139 14.2765C27.0139 14.2765 28.7775 14.4584 29.3843 13.1548L27.0139 14.2765Z" fill="#AF7D32"/>
<path opacity="0.35" d="M25.9228 12.9679C25.9228 12.9679 27.6864 13.1498 28.2925 11.8462L25.9228 12.9679Z" fill="#AF7D32"/>
<path opacity="0.35" d="M26.9722 9.93277C26.9722 9.93277 28.7358 10.1146 29.342 8.81104L26.9722 9.93277Z" fill="#AF7D32"/>
<path opacity="0.35" d="M25.881 8.62223C25.881 8.62223 27.6447 8.80406 28.2508 7.50049L25.881 8.62223Z" fill="#AF7D32"/>
<path d="M29.6751 16.3375C29.5246 16.1612 25.9857 11.9928 25.1183 9.41982L25.3776 9.33301C26.2279 11.8554 29.8468 16.1174 29.8831 16.1598L29.6751 16.3375Z" fill="#6F685C"/>
<path d="M27.4497 17.2004C27.4381 17.1874 26.2464 15.8421 24.9185 13.6581L25.1518 13.5166C26.4666 15.6767 27.6426 17.0028 27.6542 17.0185L27.4497 17.2004Z" fill="#6F685C"/>
<path d="M32.3246 15.3427C27.9928 11.2153 25.0156 4.72617 24.9862 4.66328L25.2352 4.5498C25.2646 4.61816 28.2213 11.0547 32.5134 15.1451L32.3246 15.3427Z" fill="#6F685C"/>
<path d="M34.8312 14.221C34.7628 14.1588 28.3425 7.91712 25.2038 0.637789L25.4555 0.529785C28.5723 7.75922 34.9605 13.9619 35.0207 14.0228L34.8312 14.221Z" fill="#6F685C"/>
<path d="M37.2105 12.9735C37.1694 12.9406 33.0717 9.6308 30.3599 5.31747L30.5911 5.17188C33.2789 9.44419 37.3411 12.7246 37.3815 12.7595L37.2105 12.9735Z" fill="#6F685C"/>
<path d="M39.3558 11.6714C39.3387 11.6604 37.6175 10.5441 35.5481 8.15712L35.7533 7.97803C37.7954 10.3322 39.4858 11.4301 39.5029 11.441L39.3558 11.6714Z" fill="#6F685C"/>
<path d="M41.1906 9.77477C41.1906 9.77477 31.9374 8.63184 25.3974 0.803601L25.3892 0.457031C25.3892 0.457031 31.3799 7.64272 41.6181 9.39061L41.1906 9.77477Z" fill="#4F4F4F"/>
<path d="M9.32982 9.24998L7.82684 8.71338L8.40628 9.74078L9.206 9.96773L9.32982 9.24998Z" fill="#323232"/>
<path d="M40.6809 9.24998L42.1839 8.71338L41.6044 9.74078L40.804 9.96773L40.6809 9.24998Z" fill="#4F4F4F"/>
<path opacity="0.33" d="M17.6328 13.2384C17.6328 13.2384 15.8692 13.4203 15.2631 12.1167L17.6328 13.2384Z" fill="#5E451F"/>
<path opacity="0.33" d="M18.7821 12.1086C18.7821 12.1086 17.0185 12.2904 16.4124 10.9868L18.7821 12.1086Z" fill="#5E451F"/>
<path opacity="0.33" d="M19.8733 10.8C19.8733 10.8 18.1097 10.9818 17.5035 9.67822L19.8733 10.8Z" fill="#5E451F"/>
<path opacity="0.33" d="M13.022 11.2814C13.022 11.2814 11.2583 11.4632 10.6522 10.1597L13.022 11.2814Z" fill="#5E451F"/>
<path opacity="0.33" d="M14.1713 10.1505C14.1713 10.1505 12.4076 10.3324 11.8015 9.02881L14.1713 10.1505Z" fill="#5E451F"/>
<path opacity="0.33" d="M20.9651 9.49137C20.9651 9.49137 19.2015 9.6732 18.5953 8.36963L20.9651 9.49137Z" fill="#5E451F"/>
<path opacity="0.33" d="M14.9552 12.5871C14.9552 12.5871 13.1916 12.7689 12.5854 11.4653L14.9552 12.5871Z" fill="#5E451F"/>
<path opacity="0.33" d="M16.1045 11.4533C16.1045 11.4533 14.3409 11.6358 13.7348 10.3315L16.1045 11.4533Z" fill="#5E451F"/>
<path opacity="0.33" d="M17.1957 10.1452C17.1957 10.1452 15.432 10.327 14.8259 9.02344L17.1957 10.1452Z" fill="#5E451F"/>
<path opacity="0.33" d="M18.2875 8.83658C18.2875 8.83658 16.5239 9.01841 15.9178 7.71484L18.2875 8.83658Z" fill="#5E451F"/>
<path opacity="0.33" d="M22.0563 8.18297C22.0563 8.18297 20.2926 8.3648 19.6865 7.06055L22.0563 8.18297Z" fill="#5E451F"/>
<path opacity="0.33" d="M23.1481 6.87418C23.1481 6.87418 21.3844 7.05601 20.7783 5.75244L23.1481 6.87418Z" fill="#5E451F"/>
<path opacity="0.33" d="M20.071 13.8581C20.071 13.8581 18.3073 14.0399 17.7012 12.7363L20.071 13.8581Z" fill="#5E451F"/>
<path opacity="0.33" d="M21.1621 12.55C21.1621 12.55 19.3985 12.7318 18.7924 11.4282L21.1621 12.55Z" fill="#5E451F"/>
<path opacity="0.33" d="M22.254 11.2414C22.254 11.2414 20.4903 11.4252 19.8842 10.1196L22.254 11.2414Z" fill="#5E451F"/>
<path opacity="0.33" d="M22.2115 15.5856C22.2115 15.5856 20.4479 15.7674 19.8418 14.4639L22.2115 15.5856Z" fill="#5E451F"/>
<path opacity="0.33" d="M23.3033 14.277C23.3033 14.277 21.5397 14.4588 20.9336 13.1553L23.3033 14.277Z" fill="#5E451F"/>
<path opacity="0.33" d="M24.3945 12.9684C24.3945 12.9684 22.6309 13.1502 22.0248 11.8467L24.3945 12.9684Z" fill="#5E451F"/>
<path opacity="0.33" d="M23.345 9.93277C23.345 9.93277 21.5814 10.1146 20.9753 8.81104L23.345 9.93277Z" fill="#5E451F"/>
<path opacity="0.33" d="M24.4369 8.62271C24.4369 8.62271 22.6733 8.80454 22.0665 7.50098L24.4369 8.62271Z" fill="#5E451F"/>
<path d="M25.0074 0V17.4358C25.0074 17.4358 25.3734 17.47 25.6512 17.2718C25.6512 17.2718 25.446 14.9681 25.2469 0.455941C25.2468 0.366269 25.225 0.277953 25.1833 0.19855C25.1416 0.119146 25.0812 0.0510199 25.0074 0Z" fill="#4F4F4F"/>
<path d="M20.2823 16.3375L20.0737 16.1598C20.1099 16.1174 23.7288 11.8533 24.5792 9.33301L24.8385 9.41982C23.971 11.9928 20.4321 16.1612 20.2823 16.3375Z" fill="#3A3732"/>
<path d="M22.5098 17.2004L22.3046 17.0185C22.3162 17.0055 23.4922 15.6767 24.807 13.5166L25.0403 13.6581C23.7104 15.8421 22.5187 17.1874 22.5098 17.2004Z" fill="#3A3732"/>
<path d="M17.6322 15.3429L17.4434 15.1446C21.7361 11.0548 24.6949 4.61767 24.7215 4.54932L24.9712 4.66279C24.9411 4.72636 21.9625 11.2155 17.6322 15.3429Z" fill="#3A3732"/>
<path d="M15.1255 14.2209L14.936 14.0227C14.9997 13.9605 21.3851 7.75639 24.5019 0.52832L24.7529 0.636324C21.6143 7.91703 15.1898 14.1594 15.1255 14.2209Z" fill="#3A3732"/>
<path d="M12.7462 12.9733L12.5752 12.76C12.6156 12.7272 16.6798 9.44536 19.3656 5.17236L19.5968 5.31796C16.885 9.63061 12.7873 12.9404 12.7462 12.9733Z" fill="#3A3732"/>
<path d="M10.6009 11.6714L10.4525 11.441C10.4696 11.4301 12.1627 10.3322 14.202 7.97803L14.4073 8.15712C12.3392 10.5441 10.618 11.6604 10.6009 11.6714Z" fill="#3A3732"/>
<path d="M25.0075 0V17.4358C25.0075 17.4358 24.6415 17.47 24.3637 17.2718C24.3637 17.2718 24.5689 14.9681 24.768 0.455941C24.7681 0.366269 24.7899 0.277953 24.8316 0.19855C24.8733 0.119146 24.9337 0.0510199 25.0075 0Z" fill="#323232"/>
<path d="M24.9028 16.381L25.0054 6.47607L25.108 16.381H24.9028Z" fill="#7F665B"/>
<path d="M8.82289 9.77477C8.82289 9.77477 18.0761 8.63184 24.6161 0.803601L24.6236 0.457031C24.6236 0.457031 18.6336 7.64272 8.39532 9.39061L8.82289 9.77477Z" fill="#323232"/>
<path d="M24.1181 16.9464L25.0177 16.3428L25.9624 16.932L25.0553 17.2259L24.1181 16.9464Z" fill="#7F665B"/>
<path d="M24.1181 17.1519L25.0177 16.5483L25.9624 17.1376L25.0553 17.4315L24.1181 17.1519Z" fill="#1C1B1A"/>
<path d="M42.2195 8.81004L40.763 9.33297L40.7377 9.34186L40.7145 9.33639C39.912 9.14978 39.126 8.92283 38.3447 8.67196C37.5635 8.42109 36.7952 8.13946 36.0359 7.83254C35.2765 7.52561 34.5308 7.18383 33.8016 6.81402L33.2577 6.52965C33.0778 6.4319 32.902 6.32458 32.7241 6.22615L32.458 6.07303C32.3704 6.02039 32.2849 5.96434 32.198 5.90966L31.6802 5.58154L32.2042 5.90009C32.2918 5.95272 32.378 6.00741 32.4662 6.05868L32.7351 6.20633C32.9143 6.30408 33.0922 6.40593 33.2735 6.50026L33.8207 6.77369C34.5555 7.12983 35.3039 7.45726 36.068 7.74914C36.8322 8.04103 37.6025 8.30762 38.3837 8.54482C39.165 8.78201 39.9572 8.99255 40.75 9.16003H40.7008L42.1477 8.61317L42.2195 8.81004Z" fill="#B79589"/>
<path d="M7.90491 8.63219L9.36 9.16469H9.31074C10.248 8.95962 11.1783 8.69097 12.0957 8.39704C13.0131 8.1031 13.9209 7.76884 14.8109 7.39561C15.2556 7.20968 15.7003 7.01486 16.1326 6.80637C16.3515 6.7052 16.5663 6.59515 16.7832 6.48851C17.0001 6.38187 17.2128 6.2684 17.4235 6.15083C18.2739 5.69265 19.0923 5.17767 19.8733 4.60938C19.1009 5.18912 18.2905 5.71642 17.4475 6.18774C17.2381 6.30873 17.0233 6.42015 16.8106 6.53568C16.5978 6.6512 16.3823 6.7592 16.1641 6.86447C15.7311 7.0798 15.2919 7.28213 14.8479 7.47559C13.9585 7.86385 13.0548 8.21247 12.1388 8.52213C11.2228 8.83179 10.2917 9.11273 9.34837 9.33763L9.32511 9.34378L9.29911 9.3349L7.83582 8.82769L7.90491 8.63219Z" fill="#625951"/>
<path d="M12 23.6001L25 30.1001L38 23.6001" stroke="#333232"/>
<path d="M2.1499 30.3999C2.5999 30.0666 3.7699 29.5999 4.8499 30.3999" stroke="url(#paint9_linear)"/>
<path d="M3.5 35.1001V37.1001" stroke="url(#paint10_linear)" stroke-width="0.3"/>
<path d="M2.5 34.6001C2.83333 34.9334 3.7 35.4001 4.5 34.6001" stroke="url(#paint11_linear)"/>
<ellipse cx="3.5" cy="32.6001" rx="3.5" ry="2.5" fill="url(#paint12_linear)"/>
<ellipse cx="3.5" cy="32.6001" rx="3.5" ry="2.5" fill="url(#paint13_radial)"/>
<path d="M3.5 27.1001V30.6001" stroke="#1C1B1A" stroke-width="0.3"/>
<path d="M2.50005 31.1001C2 31.6001 0.500014 33.1001 2.50001 35.1001" stroke="url(#paint14_linear)" stroke-width="0.4" stroke-linejoin="round"/>
<path d="M4.48921 31.1001C4.98926 31.6001 6.48924 33.1001 4.48924 35.1001" stroke="url(#paint15_linear)" stroke-width="0.4" stroke-linejoin="round"/>
<path d="M2 30.1001C2.5 30.4334 3.8 30.9001 5 30.1001" stroke="url(#paint16_linear)"/>
<path d="M45.1499 30.3999C45.5999 30.0666 46.7699 29.5999 47.8499 30.3999" stroke="url(#paint17_linear)"/>
<path d="M46.5 35.1001V37.1001" stroke="url(#paint18_linear)" stroke-width="0.3"/>
<path d="M45.5 34.6001C45.8333 34.9334 46.7 35.4001 47.5 34.6001" stroke="url(#paint19_linear)"/>
<ellipse cx="46.5" cy="32.6001" rx="3.5" ry="2.5" fill="url(#paint20_linear)"/>
<ellipse cx="46.5" cy="32.6001" rx="3.5" ry="2.5" fill="url(#paint21_radial)"/>
<path d="M46.5 27.1001V30.6001" stroke="#1C1B1A" stroke-width="0.3"/>
<path d="M45.5 31.1001C45 31.6001 43.5 33.1001 45.5 35.1001" stroke="url(#paint22_linear)" stroke-width="0.4" stroke-linejoin="round"/>
<path d="M47.4892 31.1001C47.9893 31.6001 49.4892 33.1001 47.4892 35.1001" stroke="url(#paint23_linear)" stroke-width="0.4" stroke-linejoin="round"/>
<path d="M45 30.1001C45.5 30.4334 46.8 30.9001 48 30.1001" stroke="url(#paint24_linear)"/>
<path d="M23.6499 40.3999C24.0999 40.0666 25.2699 39.5999 26.3499 40.3999" stroke="url(#paint25_linear)"/>
<path d="M25 45.1001V47.1001" stroke="url(#paint26_linear)" stroke-width="0.3"/>
<path d="M24 44.6001C24.3333 44.9334 25.2 45.4001 26 44.6001" stroke="url(#paint27_linear)"/>
<ellipse cx="25" cy="42.6001" rx="3.5" ry="2.5" fill="url(#paint28_linear)"/>
<ellipse cx="25" cy="42.6001" rx="3.5" ry="2.5" fill="url(#paint29_radial)"/>
<path d="M25 37.1001V40.6001" stroke="#1C1B1A" stroke-width="0.3"/>
<path d="M24 41.1001C23.5 41.6001 22 43.1001 24 45.1001" stroke="url(#paint30_linear)" stroke-width="0.4" stroke-linejoin="round"/>
<path d="M25.9892 41.1001C26.4893 41.6001 27.9892 43.1001 25.9892 45.1001" stroke="url(#paint31_linear)" stroke-width="0.4" stroke-linejoin="round"/>
<path d="M23.5 40.1001C24 40.4334 25.3 40.9001 26.5 40.1001" stroke="url(#paint32_linear)"/>
<defs>
<linearGradient id="paint0_linear" x1="20.3" y1="25" x2="16.8" y2="29" gradientUnits="userSpaceOnUse">
<stop stop-color="#926727"/>
<stop offset="1" stop-color="#A6762E"/>
</linearGradient>
<linearGradient id="paint1_linear" x1="30.8" y1="24" x2="34.3" y2="28.5" gradientUnits="userSpaceOnUse">
<stop stop-color="#C59A49"/>
<stop offset="1" stop-color="#FFC85C"/>
</linearGradient>
<linearGradient id="paint2_linear" x1="32.3" y1="27" x2="35.7955" y2="33.0026" gradientUnits="userSpaceOnUse">
<stop stop-color="#FFC85C" stop-opacity="0"/>
<stop offset="1" stop-color="white" stop-opacity="0.7"/>
</linearGradient>
<linearGradient id="paint3_linear" x1="13" y1="17.1001" x2="12" y2="17.1001" gradientUnits="userSpaceOnUse">
<stop stop-color="#333232"/>
<stop offset="0.770833" stop-color="#4F4F4F"/>
</linearGradient>
<linearGradient id="paint4_linear" x1="17" y1="20.6001" x2="18" y2="20.6001" gradientUnits="userSpaceOnUse">
<stop offset="0.1875" stop-color="#4F4F4F"/>
<stop offset="0.932292" stop-color="#323232"/>
</linearGradient>
<linearGradient id="paint5_linear" x1="24.5" y1="23.6001" x2="25.5" y2="23.6001" gradientUnits="userSpaceOnUse">
<stop offset="0.1875" stop-color="#4F4F4F"/>
<stop offset="0.932292" stop-color="#323232"/>
</linearGradient>
<linearGradient id="paint6_linear" x1="-5.59254e-08" y1="7.5" x2="1" y2="7.5" gradientUnits="userSpaceOnUse">
<stop offset="0.1875" stop-color="#4F4F4F"/>
<stop offset="0.932292" stop-color="#323232"/>
</linearGradient>
<linearGradient id="paint7_linear" x1="-5.59254e-08" y1="7.5" x2="1" y2="7.5" gradientUnits="userSpaceOnUse">
<stop offset="0.1875" stop-color="#4F4F4F"/>
<stop offset="0.932292" stop-color="#323232"/>
</linearGradient>
<linearGradient id="paint8_linear" x1="34.8" y1="13.5" x2="29.8" y2="6" gradientUnits="userSpaceOnUse">
<stop stop-color="white" stop-opacity="0.7"/>
<stop offset="1" stop-color="#FFC85C" stop-opacity="0"/>
</linearGradient>
<linearGradient id="paint9_linear" x1="3.4999" y1="30.3999" x2="3.5" y2="29.6001" gradientUnits="userSpaceOnUse">
<stop stop-color="#2E4FA4"/>
<stop offset="1" stop-color="#436EC1"/>
</linearGradient>
<linearGradient id="paint10_linear" x1="4" y1="35.6001" x2="4" y2="37.1001" gradientUnits="userSpaceOnUse">
<stop stop-color="#4557F4"/>
<stop offset="1" stop-color="#141A4B"/>
</linearGradient>
<linearGradient id="paint11_linear" x1="3.5" y1="34.6001" x2="3.5" y2="35.6001" gradientUnits="userSpaceOnUse">
<stop stop-color="#61491C"/>
<stop offset="1" stop-color="#4576F4"/>
</linearGradient>
<linearGradient id="paint12_linear" x1="3.5" y1="31.1001" x2="3.5" y2="35.1001" gradientUnits="userSpaceOnUse">
<stop stop-color="#F7B330"/>
<stop offset="0.476562" stop-color="#FFD689"/>
<stop offset="1" stop-color="#FFBD3A"/>
</linearGradient>
<radialGradient id="paint13_radial" cx="0" cy="0" r="1" gradientUnits="userSpaceOnUse" gradientTransform="translate(2.5 32.1001) rotate(172.875) scale(12.0934 16.9307)">
<stop stop-color="#877125" stop-opacity="0"/>
<stop offset="0.4375" stop-color="#FFFEDA"/>
</radialGradient>
<linearGradient id="paint14_linear" x1="1.99465" y1="31.1001" x2="1.99465" y2="35.1001" gradientUnits="userSpaceOnUse">
<stop stop-color="#3139B3"/>
<stop offset="1" stop-color="#363E92" stop-opacity="0.35"/>
</linearGradient>
<linearGradient id="paint15_linear" x1="4.9946" y1="31.1001" x2="4.9946" y2="35.1001" gradientUnits="userSpaceOnUse">
<stop stop-color="#3139B3"/>
<stop offset="1" stop-color="#363E92" stop-opacity="0.35"/>
</linearGradient>
<linearGradient id="paint16_linear" x1="3.5" y1="30.1001" x2="3.5" y2="31.1001" gradientUnits="userSpaceOnUse">
<stop stop-color="#96B3FF"/>
<stop offset="1" stop-color="#253365"/>
</linearGradient>
<linearGradient id="paint17_linear" x1="46.4999" y1="30.3999" x2="46.5" y2="29.6001" gradientUnits="userSpaceOnUse">
<stop stop-color="#2E4FA4"/>
<stop offset="1" stop-color="#436EC1"/>
</linearGradient>
<linearGradient id="paint18_linear" x1="47" y1="35.6001" x2="47" y2="37.1001" gradientUnits="userSpaceOnUse">
<stop stop-color="#4557F4"/>
<stop offset="1" stop-color="#141A4B"/>
</linearGradient>
<linearGradient id="paint19_linear" x1="46.5" y1="34.6001" x2="46.5" y2="35.6001" gradientUnits="userSpaceOnUse">
<stop stop-color="#61491C"/>
<stop offset="1" stop-color="#4576F4"/>
</linearGradient>
<linearGradient id="paint20_linear" x1="46.5" y1="31.1001" x2="46.5" y2="35.1001" gradientUnits="userSpaceOnUse">
<stop stop-color="#F7B330"/>
<stop offset="0.476562" stop-color="#FFD689"/>
<stop offset="1" stop-color="#FFBD3A"/>
</linearGradient>
<radialGradient id="paint21_radial" cx="0" cy="0" r="1" gradientUnits="userSpaceOnUse" gradientTransform="translate(45.5 32.1001) rotate(172.875) scale(12.0934 16.9307)">
<stop stop-color="#877125" stop-opacity="0"/>
<stop offset="0.4375" stop-color="#FFFEDA"/>
</radialGradient>
<linearGradient id="paint22_linear" x1="44.9947" y1="31.1001" x2="44.9947" y2="35.1001" gradientUnits="userSpaceOnUse">
<stop stop-color="#3139B3"/>
<stop offset="1" stop-color="#363E92" stop-opacity="0.35"/>
</linearGradient>
<linearGradient id="paint23_linear" x1="47.9946" y1="31.1001" x2="47.9946" y2="35.1001" gradientUnits="userSpaceOnUse">
<stop stop-color="#3139B3"/>
<stop offset="1" stop-color="#363E92" stop-opacity="0.35"/>
</linearGradient>
<linearGradient id="paint24_linear" x1="46.5" y1="30.1001" x2="46.5" y2="31.1001" gradientUnits="userSpaceOnUse">
<stop stop-color="#96B3FF"/>
<stop offset="1" stop-color="#253365"/>
</linearGradient>
<linearGradient id="paint25_linear" x1="24.9999" y1="40.3999" x2="25" y2="39.6001" gradientUnits="userSpaceOnUse">
<stop stop-color="#2E4FA4"/>
<stop offset="1" stop-color="#436EC1"/>
</linearGradient>
<linearGradient id="paint26_linear" x1="25.5" y1="45.6001" x2="25.5" y2="47.1001" gradientUnits="userSpaceOnUse">
<stop stop-color="#4557F4"/>
<stop offset="1" stop-color="#141A4B"/>
</linearGradient>
<linearGradient id="paint27_linear" x1="25" y1="44.6001" x2="25" y2="45.6001" gradientUnits="userSpaceOnUse">
<stop stop-color="#61491C"/>
<stop offset="1" stop-color="#4576F4"/>
</linearGradient>
<linearGradient id="paint28_linear" x1="25" y1="41.1001" x2="25" y2="45.1001" gradientUnits="userSpaceOnUse">
<stop stop-color="#F7B330"/>
<stop offset="0.476562" stop-color="#FFD689"/>
<stop offset="1" stop-color="#FFBD3A"/>
</linearGradient>
<radialGradient id="paint29_radial" cx="0" cy="0" r="1" gradientUnits="userSpaceOnUse" gradientTransform="translate(24 42.1001) rotate(172.875) scale(12.0934 16.9307)">
<stop stop-color="#877125" stop-opacity="0"/>
<stop offset="0.4375" stop-color="#FFFEDA"/>
</radialGradient>
<linearGradient id="paint30_linear" x1="23.4947" y1="41.1001" x2="23.4947" y2="45.1001" gradientUnits="userSpaceOnUse">
<stop stop-color="#3139B3"/>
<stop offset="1" stop-color="#363E92" stop-opacity="0.35"/>
</linearGradient>
<linearGradient id="paint31_linear" x1="26.4946" y1="41.1001" x2="26.4946" y2="45.1001" gradientUnits="userSpaceOnUse">
<stop stop-color="#3139B3"/>
<stop offset="1" stop-color="#363E92" stop-opacity="0.35"/>
</linearGradient>
<linearGradient id="paint32_linear" x1="25" y1="40.1001" x2="25" y2="41.1001" gradientUnits="userSpaceOnUse">
<stop stop-color="#96B3FF"/>
<stop offset="1" stop-color="#253365"/>
</linearGradient>
</defs>
</svg>
