<svg width="50" height="47" viewBox="0 0 50 47" fill="none" xmlns="http://www.w3.org/2000/svg">
<path d="M24.8597 37.1422C24.8597 37.1422 11.164 33.9561 3.60736 26.9379C3.60736 26.9379 12.1956 28.4479 24.8597 14.9009V37.1422Z" fill="#1C1B1A"/>
<path d="M42.6019 27.2038L26.6096 19.3517V16.3843L46.0635 26.4744L42.6019 27.2038Z" fill="#38444D"/>
<path d="M6.74873 27.3159L23.6933 19.3517V16.3843L4.23944 26.4745L6.74873 27.3159Z" fill="#333D48"/>
<path d="M25.0649 36.8692C25.0649 36.8692 11.0134 33.6004 3.2605 26.4004C3.2605 26.4004 12.0718 27.9493 25.0649 14.0503V36.8692Z" fill="#293138"/>
<path d="M25.2017 37.1707C25.2017 37.1707 39.0028 33.9579 46.6183 26.8878C46.6183 26.8878 37.9637 28.4094 25.2017 14.7578V37.1707Z" fill="#CFCFCE"/>
<path d="M25.0649 36.8692C25.0649 36.8692 39.1164 33.6004 46.8701 26.4004C46.8701 26.4004 38.0588 27.9493 25.0649 14.0503V36.8692Z" fill="#38444D"/>
<path d="M26.9373 36.2217C26.9373 36.2217 40.486 31.8339 44.8902 27.7277C44.8902 27.7277 39.2183 26.2813 34.4029 27.8993C29.9823 29.3854 26.9373 36.2217 26.9373 36.2217Z" fill="url(#paint0_linear)"/>
<g opacity="0.7">
<path opacity="0.33" d="M35.2731 31.5848C35.2731 31.5848 37.6182 31.8268 38.4248 30.0933L35.2731 31.5848Z" fill="black"/>
<path opacity="0.33" d="M33.7449 30.0814C33.7449 30.0814 36.09 30.3234 36.8965 28.5898L33.7449 30.0814Z" fill="black"/>
<path opacity="0.33" d="M32.2939 28.3421C32.2939 28.3421 34.639 28.5834 35.4449 26.8506L32.2939 28.3421Z" fill="black"/>
<path opacity="0.33" d="M41.4041 28.9818C41.4041 28.9818 43.7492 29.2231 44.5557 27.4902L41.4041 28.9818Z" fill="black"/>
<path opacity="0.33" d="M39.8745 27.4781C39.8745 27.4781 42.2196 27.7194 43.0254 25.9858L39.8745 27.4781Z" fill="black"/>
<path opacity="0.33" d="M30.8443 26.5999C30.8443 26.5999 33.1894 26.8419 33.996 25.1084L30.8443 26.5999Z" fill="black"/>
<path opacity="0.33" d="M38.8339 30.7137C38.8339 30.7137 41.179 30.9557 41.9849 29.2222L38.8339 30.7137Z" fill="black"/>
<path opacity="0.33" d="M37.3056 29.2108C37.3056 29.2108 39.6507 29.4528 40.4566 27.7192L37.3056 29.2108Z" fill="black"/>
<path opacity="0.33" d="M35.8539 27.4706C35.8539 27.4706 38.1991 27.7125 39.0056 25.979L35.8539 27.4706Z" fill="black"/>
<path opacity="0.33" d="M34.4016 25.7313C34.4016 25.7313 36.7467 25.9733 37.5526 24.2397L34.4016 25.7313Z" fill="black"/>
<path opacity="0.33" d="M29.3912 24.8617C29.3912 24.8617 31.7363 25.1037 32.5422 23.3701L29.3912 24.8617Z" fill="black"/>
<path opacity="0.33" d="M27.9396 23.1219C27.9396 23.1219 30.2847 23.3632 31.0912 21.6304L27.9396 23.1219Z" fill="black"/>
<path opacity="0.33" d="M32.0312 32.4105C32.0312 32.4105 34.3763 32.6525 35.1829 30.9189L32.0312 32.4105Z" fill="black"/>
<path opacity="0.33" d="M30.5802 30.6683C30.5802 30.6683 32.9253 30.9103 33.7312 29.1768L30.5802 30.6683Z" fill="black"/>
<path opacity="0.33" d="M29.1285 28.9288C29.1285 28.9288 31.4736 29.1701 32.2809 27.4365L29.1285 28.9288Z" fill="black"/>
<path opacity="0.33" d="M29.1846 34.7054C29.1846 34.7054 31.5297 34.9474 32.3356 33.2139L29.1846 34.7054Z" fill="black"/>
<path opacity="0.33" d="M27.7336 32.9654C27.7336 32.9654 30.0781 33.2067 30.8846 31.4731L27.7336 32.9654Z" fill="black"/>
<path opacity="0.33" d="M26.282 31.225C26.282 31.225 28.6271 31.4669 29.433 29.7334L26.282 31.225Z" fill="black"/>
<path opacity="0.33" d="M27.6776 27.1883C27.6776 27.1883 30.0227 27.4303 30.8285 25.6968L27.6776 27.1883Z" fill="black"/>
<path opacity="0.33" d="M26.2266 25.4491C26.2266 25.4491 28.571 25.6911 29.3775 23.9575L26.2266 25.4491Z" fill="black"/>
</g>
<path d="M31.3053 35.6757C31.1056 35.4419 26.4051 29.9056 25.2551 26.4926L25.5144 26.4058C26.648 29.7689 31.4661 35.4419 31.514 35.4972L31.3053 35.6757Z" fill="#231F20"/>
<path d="M28.3465 36.8232C28.3308 36.8054 26.7492 35.0199 24.9849 32.1202L25.2188 31.978C26.9688 34.8552 28.5354 36.6263 28.5504 36.6413L28.3465 36.8232Z" fill="#231F20"/>
<path d="M34.8257 34.3497C29.0724 28.8681 25.1169 20.2504 25.0773 20.1636L25.327 20.0508C25.366 20.1369 29.3002 28.7075 35.0146 34.1521L34.8257 34.3497Z" fill="#231F20"/>
<path d="M38.1587 32.8585C38.1375 32.838 35.9839 30.7538 33.3446 27.5041C30.9085 24.504 27.5469 19.8666 25.3673 14.8116L25.6191 14.7036C29.7661 24.3235 38.2633 32.5796 38.3489 32.6617L38.1587 32.8585Z" fill="#231F20"/>
<path d="M41.3192 31.1974C41.2652 31.1536 35.8224 26.7542 32.2206 21.0313L32.4526 20.8857C36.0304 26.573 41.4369 30.9404 41.4916 30.9841L41.3192 31.1974Z" fill="#231F20"/>
<path d="M44.1685 29.4622C44.1459 29.4479 41.8631 27.9673 39.1151 24.7982L39.3203 24.6191C42.0423 27.7588 44.293 29.2175 44.3142 29.2319L44.1685 29.4622Z" fill="#231F20"/>
<path d="M46.5834 26.9794C46.5834 26.9794 34.2798 25.4598 25.5835 15.0483L25.5767 14.5903C25.5767 14.5903 33.5383 24.1446 47.1519 26.4687L46.5834 26.9794Z" fill="#302D2B"/>
<path d="M4.21824 26.281L2.21997 25.5674L2.99027 26.9338L4.05405 27.2353L4.21824 26.281Z" fill="#1C1B1A"/>
<path d="M45.9061 26.281L47.9044 25.5674L47.1341 26.9338L46.0696 27.2353L45.9061 26.281Z" fill="#302D2B"/>
<path opacity="0.33" d="M15.259 31.5853C15.259 31.5853 12.9139 31.8273 12.1073 30.0938L15.259 31.5853Z" fill="#0D0C0C"/>
<path opacity="0.33" d="M16.7873 30.0819C16.7873 30.0819 14.4422 30.3239 13.6363 28.5903L16.7873 30.0819Z" fill="#0D0C0C"/>
<path opacity="0.33" d="M18.2383 28.3421C18.2383 28.3421 15.8932 28.5834 15.0873 26.8506L18.2383 28.3421Z" fill="#0D0C0C"/>
<path opacity="0.33" d="M9.12803 28.9817C9.12803 28.9817 6.78292 29.223 5.97705 27.4888L9.12803 28.9817Z" fill="#0D0C0C"/>
<path opacity="0.33" d="M10.6564 27.4786C10.6564 27.4786 8.31125 27.7199 7.50537 25.9863L10.6564 27.4786Z" fill="#0D0C0C"/>
<path opacity="0.33" d="M19.6934 26.6004C19.6934 26.6004 17.3482 26.8424 16.5417 25.1089L19.6934 26.6004Z" fill="#0D0C0C"/>
<path opacity="0.33" d="M11.6982 30.7142C11.6982 30.7142 9.35312 30.9562 8.54724 29.2227L11.6982 30.7142Z" fill="#0D0C0C"/>
<path opacity="0.33" d="M13.2265 29.2108C13.2265 29.2108 10.8814 29.4528 10.0756 27.7192L13.2265 29.2108Z" fill="#0D0C0C"/>
<path opacity="0.33" d="M14.6782 27.471C14.6782 27.471 12.333 27.713 11.5265 25.9795L14.6782 27.471Z" fill="#0D0C0C"/>
<path opacity="0.33" d="M16.1292 25.7318C16.1292 25.7318 13.7841 25.9738 12.9782 24.2402L16.1292 25.7318Z" fill="#0D0C0C"/>
<path opacity="0.33" d="M21.1409 24.8622C21.1409 24.8622 18.7958 25.1041 17.9899 23.3706L21.1409 24.8622Z" fill="#0D0C0C"/>
<path opacity="0.33" d="M22.5926 23.1224C22.5926 23.1224 20.2475 23.3637 19.4409 21.6309L22.5926 23.1224Z" fill="#0D0C0C"/>
<path opacity="0.33" d="M18.501 32.4105C18.501 32.4105 16.1559 32.6525 15.3493 30.9189L18.501 32.4105Z" fill="#0D0C0C"/>
<path opacity="0.33" d="M19.9519 30.6688C19.9519 30.6688 17.6068 30.9108 16.801 29.1772L19.9519 30.6688Z" fill="#0D0C0C"/>
<path opacity="0.33" d="M21.4036 28.9292C21.4036 28.9292 19.0585 29.1705 18.252 27.437L21.4036 28.9292Z" fill="#0D0C0C"/>
<path opacity="0.33" d="M21.3475 34.7054C21.3475 34.7054 19.0024 34.9474 18.1965 33.2139L21.3475 34.7054Z" fill="#0D0C0C"/>
<path opacity="0.33" d="M22.7985 32.9654C22.7985 32.9654 20.4541 33.2067 19.6475 31.4731L22.7985 32.9654Z" fill="#0D0C0C"/>
<path opacity="0.33" d="M24.2502 31.2254C24.2502 31.2254 21.9051 31.4674 21.0992 29.7339L24.2502 31.2254Z" fill="#0D0C0C"/>
<path opacity="0.33" d="M22.8546 27.1888C22.8546 27.1888 20.5095 27.4308 19.7036 25.6973L22.8546 27.1888Z" fill="#0D0C0C"/>
<path opacity="0.33" d="M24.3062 25.4496C24.3062 25.4496 21.9611 25.6915 21.1545 23.958L24.3062 25.4496Z" fill="#0D0C0C"/>
<path d="M25.0649 13.9819V37.1659C25.0649 37.1659 25.552 37.2117 25.9214 36.9478C25.9214 36.9478 25.6478 33.8854 25.3837 14.5903C25.3838 14.4707 25.3549 14.3528 25.2994 14.2469C25.2438 14.1409 25.1634 14.05 25.0649 13.9819Z" fill="#302D2B"/>
<path d="M18.7472 35.6758L18.542 35.4987C18.5899 35.442 23.4073 29.7683 24.5409 26.4072L24.8002 26.494C23.6475 29.9057 18.947 35.442 18.7472 35.6758Z" fill="#231F20"/>
<path d="M21.7067 36.8232L21.5015 36.6413C21.5172 36.6236 23.0831 34.8552 24.833 31.978L25.067 32.1202C23.3041 35.0199 21.7224 36.8054 21.7067 36.8232Z" fill="#231F20"/>
<path d="M15.2268 34.3497L15.0414 34.1521C20.7564 28.7068 24.6873 20.139 24.7297 20.0508L24.9787 20.1636C24.9356 20.2504 20.9801 28.8681 15.2268 34.3497Z" fill="#231F20"/>
<path d="M11.8945 32.8585L11.705 32.6617C11.7898 32.5796 20.2871 24.3221 24.4341 14.7036L24.6859 14.8116C22.5063 19.8666 19.1446 24.504 16.7086 27.5041C14.0686 30.7538 11.9157 32.838 11.8945 32.8585Z" fill="#231F20"/>
<path d="M8.73336 31.1974L8.56165 30.9841C8.61637 30.9404 14.0242 26.5717 17.6007 20.8857L17.8326 21.0313C14.2301 26.7569 8.78808 31.1536 8.73336 31.1974Z" fill="#231F20"/>
<path d="M5.88401 29.4622L5.73761 29.2319C5.76019 29.2175 8.01225 27.7554 10.7316 24.6191L10.9368 24.7982C8.19012 27.9673 5.90658 29.4479 5.88401 29.4622Z" fill="#231F20"/>
<path d="M25.0649 13.9819V37.1659C25.0649 37.1659 24.5785 37.2117 24.2091 36.9478C24.2091 36.9478 24.4827 33.8854 24.7468 14.5903C24.7466 14.4708 24.7755 14.3529 24.8309 14.247C24.8863 14.141 24.9666 14.0501 25.0649 13.9819Z" fill="#1C1B1A"/>
<path d="M3.54438 26.9794C3.54438 26.9794 15.848 25.4598 24.5464 15.0511L24.5566 14.5903C24.5566 14.5903 16.5896 24.1446 2.97589 26.4687L3.54438 26.9794Z" fill="#1C1B1A"/>
<path d="M23.8821 36.5156L25.0786 35.7124L26.3346 36.4958L25.1286 36.8868L23.8821 36.5156Z" fill="#6B8D99"/>
<path d="M2.31232 25.4916L4.24833 26.1957H4.19908C4.8223 26.059 5.44483 25.8963 6.06189 25.724C6.67895 25.5518 7.29328 25.3651 7.9035 25.1669C9.12326 24.7684 10.3293 24.3275 11.5121 23.8285C12.1039 23.5797 12.6909 23.3192 13.2689 23.041C13.5597 22.9043 13.8449 22.7587 14.1329 22.6165C14.421 22.4743 14.7035 22.3226 14.984 22.166C16.1138 21.5533 17.201 20.8652 18.2383 20.1064C17.209 20.8765 16.1291 21.5764 15.0059 22.2016C14.7267 22.3622 14.4415 22.5099 14.1589 22.663C13.8764 22.8161 13.5884 22.9597 13.2983 23.0984C12.7223 23.3842 12.1354 23.6514 11.5477 23.9078C10.3683 24.4218 9.1643 24.8784 7.94591 25.292C7.33706 25.4975 6.72365 25.691 6.10567 25.8724C5.48998 26.0528 4.86745 26.2223 4.23739 26.3686L4.21276 26.3741L4.18813 26.3652L2.24323 25.6816L2.31232 25.4916Z" fill="#4B646B"/>
<path d="M47.94 25.6639L46.0053 26.3639L45.98 26.3728L45.9561 26.3673C45.4225 26.2456 44.8964 26.1082 44.371 25.9613C44.1083 25.8888 43.8484 25.8088 43.5863 25.7336L42.8065 25.4917C41.7694 25.1594 40.7455 24.7896 39.7348 24.3822C38.7224 23.981 37.7332 23.525 36.761 23.0356L36.0373 22.6589C35.7985 22.5291 35.5645 22.3903 35.3278 22.2563L34.9735 22.0512C34.8565 21.9829 34.7429 21.907 34.6273 21.8352L33.9377 21.4053L34.6335 21.8305C34.7498 21.8988 34.864 21.974 34.9817 22.0417L35.3388 22.2392C35.5769 22.3698 35.8129 22.5051 36.053 22.6316L36.7809 22.998C37.7578 23.4765 38.7518 23.9153 39.767 24.3016C40.7822 24.6878 41.8077 25.0494 42.8455 25.3666L43.6267 25.5976C43.888 25.6694 44.1487 25.7453 44.4114 25.8136C44.9354 25.9503 45.4635 26.0836 45.9917 26.1964L45.9431 26.1998L47.8681 25.4739L47.94 25.6639Z" fill="#6B8D99"/>
<path d="M12 23.5L14.5 22L25 27.5L35.5 22.5V22L38 23.5L25 30L12 23.5Z" fill="#525252"/>
<path d="M23.8821 36.789L25.0786 35.9858L26.3346 36.7692L25.1286 37.1602L23.8821 36.789Z" fill="#1C1B1A"/>
<path d="M24.9589 35.7629L25.0615 22.5933L25.1642 35.7629H24.9589Z" fill="#6B8D99"/>
<path d="M35.4092 22.7438V22.9496H35.4106V22.7432L35.4092 22.7438Z" fill="#3A3128"/>
<path d="M25.0581 27.7967L14.6077 22.376V10.8188L25.0581 16.2389V27.7967Z" fill="#787878"/>
<path d="M15.168 10.8188H14.6091V22.3766L15.168 22.6665V10.8188Z" fill="#5C5041"/>
<path d="M19.7542 13.1025H19.2945V24.8066L19.7542 25.0452V13.1025Z" fill="#51463B"/>
<path d="M15.168 10.8188V22.6665L15.3274 22.7492V10.8188H15.168Z" fill="#3A3128"/>
<path d="M24.099 15.7422V27.3L25.0561 27.7963V16.2385L24.099 15.7422Z" fill="#51463B"/>
<path d="M19.7543 13.0117V13.1026V25.0453L19.7727 25.0549L19.9144 25.1287V13.0944L19.7543 13.0117Z" fill="#3A3128"/>
<path d="M34.9495 11.3439H34.9509V10.8101H34.7915V22.7787L34.9495 22.6967V11.3439Z" fill="#3A3128"/>
<path d="M25.0581 27.7967L35.5078 22.376V10.8188L25.0581 16.2389V27.7967Z" fill="#CFCFCE"/>
<path d="M30.364 13.3022V25.0747L30.8401 24.8279V13.3022H30.364Z" fill="#6D6152"/>
<path d="M24.7735 17.4179C24.7735 17.4179 14.4729 15.022 8.7901 9.74411C8.7901 9.74411 15.2487 10.8795 24.7735 0.690918V17.4179Z" fill="#1C1B1A"/>
<path d="M38.1163 9.94317L26.0891 4.0385V1.80664L40.72 9.39495L38.1163 9.94317Z" fill="#38444D"/>
<path opacity="0.15" d="M25.0431 17.4362L25.0232 20.8103C25.0232 20.8103 17.1116 17.7281 14.6098 19.9695V13.3833L25.0431 17.4362Z" fill="#3A3431"/>
<path d="M30.364 25.0747V13.3022H30.2046V25.1574L30.364 25.0747Z" fill="#3A3128"/>
<path d="M25.8776 23.8678L34.8695 19.2045V18.5503L25.8776 23.2136V23.8678Z" fill="#6D6152"/>
<path d="M25.056 15.6768V27.8279L25.9337 27.3726V15.6768H25.056Z" fill="#6D6152"/>
<path d="M24.099 23.8683L15.235 19.2706V18.6294L24.099 23.2271V23.8683Z" fill="#51463B"/>
<path d="M11.1523 10.0272L23.8958 4.0385V1.80664L9.26556 9.39495L11.1523 10.0272Z" fill="#333D48"/>
<path d="M34.9509 11.3438V22.6958L35.5078 22.4066V11.3438H34.9509Z" fill="#6D6152"/>
<path d="M34.9495 11.3439H34.9509V10.8101H34.7915V22.7787L34.9495 22.6967V11.3439Z" fill="#3A3128"/>
<path opacity="0.2" d="M35.5078 15.0616C35.5078 15.0616 30.4618 14.4683 25.0465 20.9267L25.0349 13.1976L35.5078 13.0103V15.0616Z" fill="#3A3431"/>
<rect x="12" y="10" width="1" height="14" fill="url(#paint1_linear)"/>
<rect x="17" y="13" width="1" height="13.5" fill="url(#paint2_linear)"/>
<rect x="24.5" y="16" width="1" height="13.5" fill="url(#paint3_linear)"/>
<rect width="1" height="13.5" transform="matrix(-1 0 0 1 33 13)" fill="url(#paint4_linear)"/>
<rect width="1" height="13.5" transform="matrix(-1 0 0 1 38 10)" fill="url(#paint5_linear)"/>
<path d="M24.9274 17.2123C24.9274 17.2123 14.3574 14.7542 8.52948 9.33893C8.52948 9.33893 15.1557 10.501 24.9274 0.0512695V17.2123Z" fill="#293138"/>
<path d="M25.0294 17.4409C25.0294 17.4409 35.4086 15.0265 41.1353 9.70769C41.1353 9.70769 34.6267 10.852 25.0294 0.585449V17.4409Z" fill="#CFCFCE"/>
<path d="M24.9274 17.2123C24.9274 17.2123 35.4961 14.7542 41.3261 9.33893C41.3261 9.33893 34.6992 10.501 24.9274 0.0512695V17.2123Z" fill="#38444D"/>
<path d="M26.3353 16.7257C26.3353 16.7257 36.5285 13.4261 39.8368 10.3378L29.6553 6.48517C29.4231 6.39781 29.1742 6.36414 28.9272 6.38669C28.6802 6.40924 28.4415 6.48742 28.229 6.61537C28.0166 6.74332 27.8359 6.9177 27.7006 7.12543C27.5653 7.33315 27.4788 7.56881 27.4477 7.81472L26.3353 16.7257Z" fill="url(#paint6_linear)"/>
<g opacity="0.7">
<path opacity="0.33" d="M32.6045 13.2384C32.6045 13.2384 34.3681 13.4203 34.9749 12.1167L32.6045 13.2384Z" fill="black"/>
<path opacity="0.33" d="M31.4551 12.1086C31.4551 12.1086 33.2188 12.2904 33.8249 10.9868L31.4551 12.1086Z" fill="black"/>
<path opacity="0.33" d="M30.3654 10.7995C30.3654 10.7995 32.129 10.9813 32.7351 9.67773L30.3654 10.7995Z" fill="black"/>
<path opacity="0.33" d="M37.2153 11.2809C37.2153 11.2809 38.979 11.4627 39.5851 10.1592L37.2153 11.2809Z" fill="black"/>
<path opacity="0.33" d="M36.066 10.1501C36.066 10.1501 37.8296 10.3312 38.4378 9.02832L36.066 10.1501Z" fill="black"/>
<path opacity="0.33" d="M29.2708 9.49088C29.2708 9.49088 31.0344 9.67271 31.6412 8.36914L29.2708 9.49088Z" fill="black"/>
<path opacity="0.33" d="M35.2827 12.5871C35.2827 12.5871 37.0457 12.7689 37.6525 11.4653L35.2827 12.5871Z" fill="black"/>
<path opacity="0.33" d="M34.1327 11.4528C34.1327 11.4528 35.8963 11.6353 36.5031 10.3311L34.1327 11.4528Z" fill="black"/>
<path opacity="0.33" d="M33.0416 10.1447C33.0416 10.1447 34.8052 10.3265 35.4114 9.02295L33.0416 10.1447Z" fill="black"/>
<path opacity="0.33" d="M31.9498 8.83609C31.9498 8.83609 33.7134 9.01792 34.3202 7.71436L31.9498 8.83609Z" fill="black"/>
<path opacity="0.33" d="M28.181 8.18248C28.181 8.18248 29.9446 8.36431 30.5508 7.06006L28.181 8.18248Z" fill="black"/>
<path opacity="0.33" d="M27.0892 6.87369C27.0892 6.87369 28.8529 7.05552 29.4597 5.75195L27.0892 6.87369Z" fill="black"/>
<path opacity="0.33" d="M30.1663 13.8576C30.1663 13.8576 31.9299 14.0394 32.5367 12.7358L30.1663 13.8576Z" fill="black"/>
<path opacity="0.33" d="M29.0752 12.5495C29.0752 12.5495 30.8388 12.7313 31.4449 11.4277L29.0752 12.5495Z" fill="black"/>
<path opacity="0.33" d="M27.984 11.2409C27.984 11.2409 29.7497 11.4248 30.3537 10.1191L27.984 11.2409Z" fill="black"/>
<path opacity="0.33" d="M28.0258 15.5851C28.0258 15.5851 29.7894 15.7669 30.3955 14.4634L28.0258 15.5851Z" fill="black"/>
<path opacity="0.33" d="M26.9339 14.2765C26.9339 14.2765 28.6975 14.4584 29.3043 13.1548L26.9339 14.2765Z" fill="black"/>
<path opacity="0.33" d="M25.8428 12.9679C25.8428 12.9679 27.6064 13.1498 28.2125 11.8462L25.8428 12.9679Z" fill="black"/>
<path opacity="0.33" d="M26.8922 9.93277C26.8922 9.93277 28.6558 10.1146 29.2619 8.81104L26.8922 9.93277Z" fill="black"/>
<path opacity="0.33" d="M25.801 8.62223C25.801 8.62223 27.5646 8.80406 28.1708 7.50049L25.801 8.62223Z" fill="black"/>
</g>
<path d="M29.5951 16.3375C29.4446 16.1612 25.9057 11.9928 25.0383 9.41982L25.2975 9.33301C26.1479 11.8554 29.7668 16.1174 29.803 16.1598L29.5951 16.3375Z" fill="#231F20"/>
<path d="M27.3697 17.2004C27.358 17.1874 26.1663 15.8421 24.8385 13.6581L25.0718 13.5166C26.3866 15.6767 27.5626 17.0028 27.5742 17.0185L27.3697 17.2004Z" fill="#231F20"/>
<path d="M32.2446 15.3427C27.9128 11.2153 24.9356 4.72617 24.9062 4.66328L25.1552 4.5498C25.1846 4.61816 28.1413 11.0547 32.4334 15.1451L32.2446 15.3427Z" fill="#231F20"/>
<path d="M34.7512 14.221C34.6828 14.1588 28.2624 7.91712 25.1238 0.637789L25.3755 0.529785C28.4923 7.75922 34.8805 13.9619 34.9407 14.0228L34.7512 14.221Z" fill="#231F20"/>
<path d="M37.1305 12.9735C37.0894 12.9406 32.9916 9.6308 30.2798 5.31747L30.5111 5.17188C33.1989 9.44419 37.2611 12.7246 37.3015 12.7595L37.1305 12.9735Z" fill="#231F20"/>
<path d="M39.2758 11.6714C39.2587 11.6604 37.5375 10.5441 35.4681 8.15712L35.6733 7.97803C37.7154 10.3322 39.4058 11.4301 39.4229 11.441L39.2758 11.6714Z" fill="#231F20"/>
<path d="M41.1106 9.77477C41.1106 9.77477 31.8574 8.63184 25.3174 0.803601L25.3092 0.457031C25.3092 0.457031 31.2999 7.64272 41.5382 9.39061L41.1106 9.77477Z" fill="#302D2B"/>
<path d="M9.2498 9.24998L7.74683 8.71338L8.32626 9.74078L9.12598 9.96773L9.2498 9.24998Z" fill="#1C1B1A"/>
<path d="M40.6009 9.24998L42.1039 8.71338L41.5244 9.74078L40.724 9.96773L40.6009 9.24998Z" fill="#302D2B"/>
<path opacity="0.33" d="M17.5528 13.2384C17.5528 13.2384 15.7892 13.4203 15.183 12.1167L17.5528 13.2384Z" fill="#0D0C0C"/>
<path opacity="0.33" d="M18.7021 12.1086C18.7021 12.1086 16.9385 12.2904 16.3323 10.9868L18.7021 12.1086Z" fill="#0D0C0C"/>
<path opacity="0.33" d="M19.7933 10.8C19.7933 10.8 18.0296 10.9818 17.4235 9.67822L19.7933 10.8Z" fill="#0D0C0C"/>
<path opacity="0.33" d="M12.9419 11.2814C12.9419 11.2814 11.1783 11.4632 10.5722 10.1597L12.9419 11.2814Z" fill="#0D0C0C"/>
<path opacity="0.33" d="M14.0912 10.1505C14.0912 10.1505 12.3276 10.3324 11.7215 9.02881L14.0912 10.1505Z" fill="#0D0C0C"/>
<path opacity="0.33" d="M20.8851 9.49137C20.8851 9.49137 19.1214 9.6732 18.5153 8.36963L20.8851 9.49137Z" fill="#0D0C0C"/>
<path opacity="0.33" d="M14.8752 12.5871C14.8752 12.5871 13.1115 12.7689 12.5054 11.4653L14.8752 12.5871Z" fill="#0D0C0C"/>
<path opacity="0.33" d="M16.0245 11.4533C16.0245 11.4533 14.2609 11.6358 13.6548 10.3315L16.0245 11.4533Z" fill="#0D0C0C"/>
<path opacity="0.33" d="M17.1156 10.1452C17.1156 10.1452 15.352 10.327 14.7459 9.02344L17.1156 10.1452Z" fill="#0D0C0C"/>
<path opacity="0.33" d="M18.2075 8.83658C18.2075 8.83658 16.4439 9.01841 15.8378 7.71484L18.2075 8.83658Z" fill="#0D0C0C"/>
<path opacity="0.33" d="M21.9762 8.18297C21.9762 8.18297 20.2126 8.3648 19.6065 7.06055L21.9762 8.18297Z" fill="#0D0C0C"/>
<path opacity="0.33" d="M23.068 6.87418C23.068 6.87418 21.3044 7.05601 20.6983 5.75244L23.068 6.87418Z" fill="#0D0C0C"/>
<path opacity="0.33" d="M19.991 13.8581C19.991 13.8581 18.2273 14.0399 17.6212 12.7363L19.991 13.8581Z" fill="#0D0C0C"/>
<path opacity="0.33" d="M21.0821 12.55C21.0821 12.55 19.3185 12.7318 18.7123 11.4282L21.0821 12.55Z" fill="#0D0C0C"/>
<path opacity="0.33" d="M22.1739 11.2414C22.1739 11.2414 20.4103 11.4252 19.8042 10.1196L22.1739 11.2414Z" fill="#0D0C0C"/>
<path opacity="0.33" d="M22.1315 15.5856C22.1315 15.5856 20.3679 15.7674 19.7618 14.4639L22.1315 15.5856Z" fill="#0D0C0C"/>
<path opacity="0.33" d="M23.2234 14.277C23.2234 14.277 21.4598 14.4588 20.8536 13.1553L23.2234 14.277Z" fill="#0D0C0C"/>
<path opacity="0.33" d="M24.3145 12.9684C24.3145 12.9684 22.5509 13.1502 21.9448 11.8467L24.3145 12.9684Z" fill="#0D0C0C"/>
<path opacity="0.33" d="M23.265 9.93277C23.265 9.93277 21.5014 10.1146 20.8953 8.81104L23.265 9.93277Z" fill="#0D0C0C"/>
<path opacity="0.33" d="M24.3569 8.62271C24.3569 8.62271 22.5933 8.80454 21.9865 7.50098L24.3569 8.62271Z" fill="#0D0C0C"/>
<path d="M24.9274 0V17.4358C24.9274 17.4358 25.2934 17.47 25.5712 17.2718C25.5712 17.2718 25.3659 14.9681 25.1669 0.455941C25.1668 0.366269 25.145 0.277953 25.1033 0.19855C25.0616 0.119146 25.0012 0.0510199 24.9274 0Z" fill="#302D2B"/>
<path d="M20.2023 16.3375L19.9937 16.1598C20.0299 16.1174 23.6488 11.8533 24.4992 9.33301L24.7584 9.41982C23.891 11.9928 20.3521 16.1612 20.2023 16.3375Z" fill="#231F20"/>
<path d="M22.4298 17.2004L22.2245 17.0185C22.2362 17.0055 23.4121 15.6767 24.727 13.5166L24.9603 13.6581C23.6304 15.8421 22.4387 17.1874 22.4298 17.2004Z" fill="#231F20"/>
<path d="M17.5522 15.3429L17.3633 15.1446C21.6561 11.0548 24.6148 4.61767 24.6415 4.54932L24.8912 4.66279C24.8611 4.72636 21.8825 11.2155 17.5522 15.3429Z" fill="#231F20"/>
<path d="M15.0455 14.2209L14.856 14.0227C14.9196 13.9605 21.3051 7.75639 24.4218 0.52832L24.6729 0.636324C21.5342 7.91703 15.1098 14.1594 15.0455 14.2209Z" fill="#231F20"/>
<path d="M12.6662 12.9733L12.4952 12.76C12.5355 12.7272 16.5998 9.44536 19.2856 5.17236L19.5168 5.31796C16.805 9.63061 12.7073 12.9404 12.6662 12.9733Z" fill="#231F20"/>
<path d="M10.5209 11.6714L10.3724 11.441C10.3895 11.4301 12.0827 10.3322 14.122 7.97803L14.3272 8.15712C12.2592 10.5441 10.538 11.6604 10.5209 11.6714Z" fill="#231F20"/>
<path d="M24.9274 0V17.4358C24.9274 17.4358 24.5614 17.47 24.2837 17.2718C24.2837 17.2718 24.4889 14.9681 24.688 0.455941C24.6881 0.366269 24.7099 0.277953 24.7516 0.19855C24.7933 0.119146 24.8536 0.0510199 24.9274 0Z" fill="#1C1B1A"/>
<path d="M8.74287 9.77477C8.74287 9.77477 17.9961 8.63184 24.5361 0.803601L24.5436 0.457031C24.5436 0.457031 18.5536 7.64272 8.31531 9.39061L8.74287 9.77477Z" fill="#1C1B1A"/>
<path d="M24.0381 16.9464L24.9377 16.3428L25.8824 16.932L24.9753 17.2259L24.0381 16.9464Z" fill="#6B8D99"/>
<path d="M24.0381 17.1519L24.9377 16.5483L25.8824 17.1376L24.9753 17.4315L24.0381 17.1519Z" fill="#1C1B1A"/>
<path d="M24.8228 16.381L24.9254 6.47607L25.028 16.381H24.8228Z" fill="#6B8D99"/>
<path d="M42.1395 8.81004L40.683 9.33297L40.6577 9.34186L40.6344 9.33639C39.832 9.14978 39.0459 8.92283 38.2647 8.67196C37.4835 8.42109 36.7152 8.13946 35.9558 7.83254C35.1965 7.52561 34.4508 7.18383 33.7216 6.81402L33.1777 6.52965C32.9978 6.4319 32.822 6.32458 32.6441 6.22615L32.378 6.07303C32.2904 6.02039 32.2049 5.96434 32.118 5.90966L31.6002 5.58154L32.1242 5.90009C32.2117 5.95272 32.2979 6.00741 32.3862 6.05868L32.655 6.20633C32.8343 6.30408 33.0121 6.40593 33.1934 6.50026L33.7407 6.77369C34.4755 7.12983 35.2239 7.45726 35.988 7.74914C36.7521 8.04103 37.5224 8.30762 38.3037 8.54482C39.0849 8.78201 39.8771 8.99255 40.67 9.16003H40.6208L42.0676 8.61317L42.1395 8.81004Z" fill="#6B8D99"/>
<path d="M7.82489 8.63219L9.27998 9.16469H9.23073C10.1679 8.95962 11.0983 8.69097 12.0157 8.39704C12.9331 8.1031 13.8409 7.76884 14.7309 7.39561C15.1756 7.20968 15.6203 7.01486 16.0526 6.80637C16.2715 6.7052 16.4863 6.59515 16.7032 6.48851C16.9201 6.38187 17.1328 6.2684 17.3435 6.15083C18.1939 5.69265 19.0123 5.17767 19.7933 4.60938C19.0209 5.18912 18.2105 5.71642 17.3675 6.18774C17.1581 6.30873 16.9433 6.42015 16.7306 6.53568C16.5178 6.6512 16.3023 6.7592 16.0841 6.86447C15.651 7.0798 15.2118 7.28213 14.7679 7.47559C13.8785 7.86385 12.9748 8.21247 12.0588 8.52213C11.1428 8.83179 10.2117 9.11273 9.26835 9.33763L9.24509 9.34378L9.2191 9.3349L7.7558 8.82769L7.82489 8.63219Z" fill="#4B646B"/>
<path d="M12 23.5L25 30L38 23.5" stroke="#1C1B1A"/>
<path d="M45.1499 30.2998C45.5999 29.9665 46.7699 29.4998 47.8499 30.2998" stroke="url(#paint7_linear)"/>
<path d="M46.5 35V37" stroke="url(#paint8_linear)" stroke-width="0.3"/>
<path d="M45.5 34.5C45.8333 34.8333 46.7 35.3 47.5 34.5" stroke="url(#paint9_linear)"/>
<ellipse cx="46.5" cy="32.5" rx="3.5" ry="2.5" fill="url(#paint10_linear)"/>
<ellipse cx="46.5" cy="32.5" rx="3.5" ry="2.5" fill="url(#paint11_radial)"/>
<path d="M46.5 27V30.5" stroke="#1C1B1A" stroke-width="0.3"/>
<path d="M45.5 31C45 31.5 43.5 33 45.5 35" stroke="url(#paint12_linear)" stroke-width="0.4" stroke-linejoin="round"/>
<path d="M47.4892 31C47.9893 31.5 49.4892 33 47.4892 35" stroke="url(#paint13_linear)" stroke-width="0.4" stroke-linejoin="round"/>
<path d="M45 30C45.5 30.3333 46.8 30.8 48 30" stroke="url(#paint14_linear)"/>
<path d="M2.1499 30.2998C2.5999 29.9665 3.7699 29.4998 4.8499 30.2998" stroke="url(#paint15_linear)"/>
<path d="M3.5 35V37" stroke="url(#paint16_linear)" stroke-width="0.3"/>
<path d="M2.5 34.5C2.83333 34.8333 3.7 35.3 4.5 34.5" stroke="url(#paint17_linear)"/>
<ellipse cx="3.5" cy="32.5" rx="3.5" ry="2.5" fill="url(#paint18_linear)"/>
<ellipse cx="3.5" cy="32.5" rx="3.5" ry="2.5" fill="url(#paint19_radial)"/>
<path d="M3.5 27V30.5" stroke="#1C1B1A" stroke-width="0.3"/>
<path d="M2.50005 31C2 31.5 0.500014 33 2.50001 35" stroke="url(#paint20_linear)" stroke-width="0.4" stroke-linejoin="round"/>
<path d="M4.48921 31C4.98926 31.5 6.48924 33 4.48924 35" stroke="url(#paint21_linear)" stroke-width="0.4" stroke-linejoin="round"/>
<path d="M2 30C2.5 30.3333 3.8 30.8 5 30" stroke="url(#paint22_linear)"/>
<path d="M23.6499 40.2998C24.0999 39.9665 25.2699 39.4998 26.3499 40.2998" stroke="url(#paint23_linear)"/>
<path d="M25 45V47" stroke="url(#paint24_linear)" stroke-width="0.3"/>
<path d="M24 44.5C24.3333 44.8333 25.2 45.3 26 44.5" stroke="url(#paint25_linear)"/>
<ellipse cx="25" cy="42.5" rx="3.5" ry="2.5" fill="url(#paint26_linear)"/>
<ellipse cx="25" cy="42.5" rx="3.5" ry="2.5" fill="url(#paint27_radial)"/>
<path d="M25 37V40.5" stroke="#1C1B1A" stroke-width="0.3"/>
<path d="M24 41C23.5 41.5 22 43 24 45" stroke="url(#paint28_linear)" stroke-width="0.4" stroke-linejoin="round"/>
<path d="M25.9892 41C26.4893 41.5 27.9892 43 25.9892 45" stroke="url(#paint29_linear)" stroke-width="0.4" stroke-linejoin="round"/>
<path d="M23.5 40C24 40.3333 25.3 40.8 26.5 40" stroke="url(#paint30_linear)"/>
<defs>
<linearGradient id="paint0_linear" x1="33.2625" y1="28.3409" x2="36.9584" y2="33.4143" gradientUnits="userSpaceOnUse">
<stop stop-color="#596870" stop-opacity="0"/>
<stop offset="1" stop-color="#849DAA" stop-opacity="0.9"/>
</linearGradient>
<linearGradient id="paint1_linear" x1="13" y1="17" x2="12" y2="17" gradientUnits="userSpaceOnUse">
<stop stop-color="#8E713A"/>
<stop offset="0.770833" stop-color="#EFB546"/>
</linearGradient>
<linearGradient id="paint2_linear" x1="17" y1="20.5" x2="18" y2="20.5" gradientUnits="userSpaceOnUse">
<stop offset="0.119792" stop-color="#EFB546"/>
<stop offset="1" stop-color="#8E713A"/>
</linearGradient>
<linearGradient id="paint3_linear" x1="24.5" y1="23.5" x2="25.5" y2="23.5" gradientUnits="userSpaceOnUse">
<stop offset="0.119792" stop-color="#EFB546"/>
<stop offset="1" stop-color="#8E713A"/>
</linearGradient>
<linearGradient id="paint4_linear" x1="-5.59254e-08" y1="7.5" x2="1" y2="7.5" gradientUnits="userSpaceOnUse">
<stop offset="0.119792" stop-color="#EFB546"/>
<stop offset="1" stop-color="#8E713A"/>
</linearGradient>
<linearGradient id="paint5_linear" x1="-5.59254e-08" y1="7.5" x2="1" y2="7.5" gradientUnits="userSpaceOnUse">
<stop offset="0.119792" stop-color="#EFB546"/>
<stop offset="1" stop-color="#8E713A"/>
</linearGradient>
<linearGradient id="paint6_linear" x1="29.72" y1="7" x2="35.22" y2="15" gradientUnits="userSpaceOnUse">
<stop stop-color="#38444D" stop-opacity="0"/>
<stop offset="1" stop-color="#849DAA"/>
</linearGradient>
<linearGradient id="paint7_linear" x1="46.4999" y1="30.2998" x2="46.5" y2="29.5" gradientUnits="userSpaceOnUse">
<stop stop-color="#6D6433"/>
<stop offset="1" stop-color="#BDA977"/>
</linearGradient>
<linearGradient id="paint8_linear" x1="47" y1="35.5" x2="47" y2="37" gradientUnits="userSpaceOnUse">
<stop stop-color="#F4B845"/>
<stop offset="1" stop-color="#A27726"/>
</linearGradient>
<linearGradient id="paint9_linear" x1="46.5" y1="34.5" x2="46.5" y2="35.5" gradientUnits="userSpaceOnUse">
<stop stop-color="#61491C"/>
<stop offset="1" stop-color="#F4B845"/>
</linearGradient>
<linearGradient id="paint10_linear" x1="46.5" y1="31" x2="46.5" y2="35" gradientUnits="userSpaceOnUse">
<stop stop-color="#293138"/>
<stop offset="0.476562" stop-color="#404D58"/>
<stop offset="1" stop-color="#0C0F11"/>
</linearGradient>
<radialGradient id="paint11_radial" cx="0" cy="0" r="1" gradientUnits="userSpaceOnUse" gradientTransform="translate(45.5 32) rotate(172.875) scale(12.0934 16.9307)">
<stop stop-color="#293138" stop-opacity="0"/>
<stop offset="0.476562" stop-color="#6FB2ED"/>
</radialGradient>
<linearGradient id="paint12_linear" x1="44.9947" y1="31" x2="44.9947" y2="35" gradientUnits="userSpaceOnUse">
<stop stop-color="#F7BA45"/>
<stop offset="1" stop-color="#F7BA45" stop-opacity="0"/>
</linearGradient>
<linearGradient id="paint13_linear" x1="47.9946" y1="31" x2="47.9946" y2="35" gradientUnits="userSpaceOnUse">
<stop stop-color="#F7BA45"/>
<stop offset="1" stop-color="#F7BA45" stop-opacity="0"/>
</linearGradient>
<linearGradient id="paint14_linear" x1="46.5" y1="30" x2="46.5" y2="31" gradientUnits="userSpaceOnUse">
<stop stop-color="#FFC47E"/>
<stop offset="1" stop-color="#42392E"/>
</linearGradient>
<linearGradient id="paint15_linear" x1="3.4999" y1="30.2998" x2="3.5" y2="29.5" gradientUnits="userSpaceOnUse">
<stop stop-color="#6D6433"/>
<stop offset="1" stop-color="#BDA977"/>
</linearGradient>
<linearGradient id="paint16_linear" x1="4" y1="35.5" x2="4" y2="37" gradientUnits="userSpaceOnUse">
<stop stop-color="#F4B845"/>
<stop offset="1" stop-color="#A27726"/>
</linearGradient>
<linearGradient id="paint17_linear" x1="3.5" y1="34.5" x2="3.5" y2="35.5" gradientUnits="userSpaceOnUse">
<stop stop-color="#61491C"/>
<stop offset="1" stop-color="#F4B845"/>
</linearGradient>
<linearGradient id="paint18_linear" x1="3.5" y1="31" x2="3.5" y2="35" gradientUnits="userSpaceOnUse">
<stop stop-color="#293138"/>
<stop offset="0.476562" stop-color="#404D58"/>
<stop offset="1" stop-color="#0C0F11"/>
</linearGradient>
<radialGradient id="paint19_radial" cx="0" cy="0" r="1" gradientUnits="userSpaceOnUse" gradientTransform="translate(2.5 32) rotate(172.875) scale(12.0934 16.9307)">
<stop stop-color="#293138" stop-opacity="0"/>
<stop offset="0.476562" stop-color="#6FB2ED"/>
</radialGradient>
<linearGradient id="paint20_linear" x1="1.99465" y1="31" x2="1.99465" y2="35" gradientUnits="userSpaceOnUse">
<stop stop-color="#F7BA45"/>
<stop offset="1" stop-color="#F7BA45" stop-opacity="0"/>
</linearGradient>
<linearGradient id="paint21_linear" x1="4.9946" y1="31" x2="4.9946" y2="35" gradientUnits="userSpaceOnUse">
<stop stop-color="#F7BA45"/>
<stop offset="1" stop-color="#F7BA45" stop-opacity="0"/>
</linearGradient>
<linearGradient id="paint22_linear" x1="3.5" y1="30" x2="3.5" y2="31" gradientUnits="userSpaceOnUse">
<stop stop-color="#FFC47E"/>
<stop offset="1" stop-color="#42392E"/>
</linearGradient>
<linearGradient id="paint23_linear" x1="24.9999" y1="40.2998" x2="25" y2="39.5" gradientUnits="userSpaceOnUse">
<stop stop-color="#6D6433"/>
<stop offset="1" stop-color="#BDA977"/>
</linearGradient>
<linearGradient id="paint24_linear" x1="25.5" y1="45.5" x2="25.5" y2="47" gradientUnits="userSpaceOnUse">
<stop stop-color="#F4B845"/>
<stop offset="1" stop-color="#A27726"/>
</linearGradient>
<linearGradient id="paint25_linear" x1="25" y1="44.5" x2="25" y2="45.5" gradientUnits="userSpaceOnUse">
<stop stop-color="#61491C"/>
<stop offset="1" stop-color="#F4B845"/>
</linearGradient>
<linearGradient id="paint26_linear" x1="25" y1="41" x2="25" y2="45" gradientUnits="userSpaceOnUse">
<stop stop-color="#293138"/>
<stop offset="0.476562" stop-color="#404D58"/>
<stop offset="1" stop-color="#0C0F11"/>
</linearGradient>
<radialGradient id="paint27_radial" cx="0" cy="0" r="1" gradientUnits="userSpaceOnUse" gradientTransform="translate(24 42) rotate(172.875) scale(12.0934 16.9307)">
<stop stop-color="#293138" stop-opacity="0"/>
<stop offset="0.476562" stop-color="#6FB2ED"/>
</radialGradient>
<linearGradient id="paint28_linear" x1="23.4947" y1="41" x2="23.4947" y2="45" gradientUnits="userSpaceOnUse">
<stop stop-color="#F7BA45"/>
<stop offset="1" stop-color="#F7BA45" stop-opacity="0"/>
</linearGradient>
<linearGradient id="paint29_linear" x1="26.4946" y1="41" x2="26.4946" y2="45" gradientUnits="userSpaceOnUse">
<stop stop-color="#F7BA45"/>
<stop offset="1" stop-color="#F7BA45" stop-opacity="0"/>
</linearGradient>
<linearGradient id="paint30_linear" x1="25" y1="40" x2="25" y2="41" gradientUnits="userSpaceOnUse">
<stop stop-color="#FFC47E"/>
<stop offset="1" stop-color="#42392E"/>
</linearGradient>
</defs>
</svg>
