<svg width="46" height="38" viewBox="0 0 46 38" fill="none" xmlns="http://www.w3.org/2000/svg">
<path d="M22.6398 37.1422C22.6398 37.1422 8.944 33.9561 1.38739 26.9379C1.38739 26.9379 9.97563 28.4479 22.6398 14.9009V37.1422Z" fill="#1C1B1A"/>
<path d="M40.3819 27.2038L24.3896 19.3517V16.3843L43.8435 26.4744L40.3819 27.2038Z" fill="#5DADF8"/>
<path d="M4.52876 27.3159L21.4733 19.3517V16.3843L2.01947 26.4745L4.52876 27.3159Z" fill="#116ABD"/>
<path d="M22.845 36.8692C22.845 36.8692 8.79348 33.6004 1.04053 26.4004C1.04053 26.4004 9.85178 27.9493 22.845 14.0503V36.8692Z" fill="url(#paint0_linear)"/>
<path d="M22.9818 37.1707C22.9818 37.1707 36.7829 33.9579 44.3983 26.8878C44.3983 26.8878 35.7437 28.4094 22.9818 14.7578V37.1707Z" fill="#717171"/>
<path d="M22.845 36.8692C22.845 36.8692 36.8965 33.6004 44.6501 26.4004C44.6501 26.4004 35.8388 27.9493 22.845 14.0503V36.8692Z" fill="url(#paint1_linear)"/>
<path d="M24.7173 36.2217C24.7173 36.2217 38.266 31.8339 42.6703 27.7277C42.6703 27.7277 36.9984 26.2813 32.183 27.8993C27.7623 29.3854 24.7173 36.2217 24.7173 36.2217Z" fill="url(#paint2_linear)"/>
<g opacity="0.7">
<path opacity="0.35" d="M33.0532 31.5848C33.0532 31.5848 35.3983 31.8268 36.2048 30.0933L33.0532 31.5848Z" fill="#116ABD"/>
<path opacity="0.35" d="M31.5249 30.0814C31.5249 30.0814 33.87 30.3234 34.6766 28.5898L31.5249 30.0814Z" fill="#116ABD"/>
<path opacity="0.35" d="M30.0739 28.3421C30.0739 28.3421 32.419 28.5834 33.2249 26.8506L30.0739 28.3421Z" fill="#116ABD"/>
<path opacity="0.35" d="M39.1841 28.9818C39.1841 28.9818 41.5292 29.2231 42.3358 27.4902L39.1841 28.9818Z" fill="#116ABD"/>
<path opacity="0.35" d="M37.6545 27.4781C37.6545 27.4781 39.9996 27.7194 40.8055 25.9858L37.6545 27.4781Z" fill="#116ABD"/>
<path opacity="0.35" d="M28.6243 26.5999C28.6243 26.5999 30.9694 26.8419 31.776 25.1084L28.6243 26.5999Z" fill="#116ABD"/>
<path opacity="0.35" d="M36.614 30.7137C36.614 30.7137 38.9591 30.9557 39.7649 29.2222L36.614 30.7137Z" fill="#116ABD"/>
<path opacity="0.35" d="M35.0856 29.2108C35.0856 29.2108 37.4307 29.4528 38.2366 27.7192L35.0856 29.2108Z" fill="#116ABD"/>
<path opacity="0.35" d="M33.634 27.4706C33.634 27.4706 35.9791 27.7125 36.7856 25.979L33.634 27.4706Z" fill="#116ABD"/>
<path opacity="0.35" d="M32.1816 25.7313C32.1816 25.7313 34.5267 25.9733 35.3326 24.2397L32.1816 25.7313Z" fill="#116ABD"/>
<path opacity="0.35" d="M27.1713 24.8617C27.1713 24.8617 29.5164 25.1037 30.3222 23.3701L27.1713 24.8617Z" fill="#116ABD"/>
<path opacity="0.35" d="M25.7196 23.1219C25.7196 23.1219 28.0647 23.3632 28.8713 21.6304L25.7196 23.1219Z" fill="#116ABD"/>
<path opacity="0.35" d="M29.8112 32.4105C29.8112 32.4105 32.1563 32.6525 32.9629 30.9189L29.8112 32.4105Z" fill="#116ABD"/>
<path opacity="0.35" d="M28.3602 30.6683C28.3602 30.6683 30.7053 30.9103 31.5112 29.1768L28.3602 30.6683Z" fill="#116ABD"/>
<path opacity="0.35" d="M26.9086 28.9288C26.9086 28.9288 29.2537 29.1701 30.0609 27.4365L26.9086 28.9288Z" fill="#116ABD"/>
<path opacity="0.35" d="M26.9647 34.7054C26.9647 34.7054 29.3098 34.9474 30.1156 33.2139L26.9647 34.7054Z" fill="#116ABD"/>
<path opacity="0.35" d="M25.5137 32.9654C25.5137 32.9654 27.8581 33.2067 28.6647 31.4731L25.5137 32.9654Z" fill="#116ABD"/>
<path opacity="0.35" d="M24.062 31.225C24.062 31.225 26.4071 31.4669 27.213 29.7334L24.062 31.225Z" fill="#116ABD"/>
<path opacity="0.35" d="M25.4576 27.1883C25.4576 27.1883 27.8027 27.4303 28.6086 25.6968L25.4576 27.1883Z" fill="#116ABD"/>
<path opacity="0.35" d="M24.0066 25.4491C24.0066 25.4491 26.351 25.6911 27.1576 23.9575L24.0066 25.4491Z" fill="#116ABD"/>
</g>
<path d="M29.0854 35.6757C28.8856 35.4419 24.1851 29.9056 23.0352 26.4926L23.2944 26.4058C24.428 29.7689 29.2461 35.4419 29.294 35.4972L29.0854 35.6757Z" fill="#526F8A"/>
<path d="M26.1266 36.8232C26.1108 36.8054 24.5292 35.0199 22.7649 32.1202L22.9989 31.978C24.7488 34.8552 26.3154 36.6263 26.3304 36.6413L26.1266 36.8232Z" fill="#526F8A"/>
<path d="M32.6058 34.3497C26.8525 28.8681 22.897 20.2504 22.8573 20.1636L23.107 20.0508C23.146 20.1369 27.0803 28.7075 32.7946 34.1521L32.6058 34.3497Z" fill="#526F8A"/>
<path d="M35.9387 32.8585C35.9175 32.838 33.7639 30.7538 31.1247 27.5041C28.6886 24.504 25.3269 19.8666 23.1473 14.8116L23.3991 14.7036C27.5461 24.3235 36.0434 32.5796 36.1289 32.6617L35.9387 32.8585Z" fill="#526F8A"/>
<path d="M39.0992 31.1974C39.0452 31.1536 33.6025 26.7542 30.0007 21.0313L30.2326 20.8857C33.8104 26.573 39.2169 30.9404 39.2716 30.9841L39.0992 31.1974Z" fill="#526F8A"/>
<path d="M41.9486 29.4622C41.926 29.4479 39.6431 27.9673 36.8951 24.7982L37.1003 24.6191C39.8224 27.7588 42.0731 29.2175 42.0943 29.2319L41.9486 29.4622Z" fill="#526F8A"/>
<path d="M44.3635 26.9794C44.3635 26.9794 32.0599 25.4598 23.3635 15.0483L23.3567 14.5903C23.3567 14.5903 31.3183 24.1446 44.9319 26.4687L44.3635 26.9794Z" fill="#4F4F4F"/>
<path d="M1.99827 26.281L0 25.5674L0.770301 26.9338L1.83408 27.2353L1.99827 26.281Z" fill="#323232"/>
<path d="M43.6862 26.281L45.6844 25.5674L44.9141 26.9338L43.8497 27.2353L43.6862 26.281Z" fill="#4F4F4F"/>
<path opacity="0.33" d="M13.039 31.5853C13.039 31.5853 10.6939 31.8273 9.88733 30.0938L13.039 31.5853Z" fill="#0E3A63"/>
<path opacity="0.33" d="M14.5673 30.0819C14.5673 30.0819 12.2222 30.3239 11.4163 28.5903L14.5673 30.0819Z" fill="#0E3A63"/>
<path opacity="0.33" d="M16.0183 28.3421C16.0183 28.3421 13.6732 28.5834 12.8673 26.8506L16.0183 28.3421Z" fill="#0E3A63"/>
<path opacity="0.33" d="M6.90806 28.9817C6.90806 28.9817 4.56295 29.223 3.75708 27.4888L6.90806 28.9817Z" fill="#0E3A63"/>
<path opacity="0.33" d="M8.43638 27.4786C8.43638 27.4786 6.09127 27.7199 5.2854 25.9863L8.43638 27.4786Z" fill="#0E3A63"/>
<path opacity="0.33" d="M17.4734 26.6004C17.4734 26.6004 15.1283 26.8424 14.3217 25.1089L17.4734 26.6004Z" fill="#0E3A63"/>
<path opacity="0.33" d="M9.47825 30.7142C9.47825 30.7142 7.13314 30.9562 6.32727 29.2227L9.47825 30.7142Z" fill="#0E3A63"/>
<path opacity="0.33" d="M11.0066 29.2108C11.0066 29.2108 8.66146 29.4528 7.85559 27.7192L11.0066 29.2108Z" fill="#0E3A63"/>
<path opacity="0.33" d="M12.4582 27.471C12.4582 27.471 10.1131 27.713 9.30652 25.9795L12.4582 27.471Z" fill="#0E3A63"/>
<path opacity="0.33" d="M13.9092 25.7318C13.9092 25.7318 11.5641 25.9738 10.7582 24.2402L13.9092 25.7318Z" fill="#0E3A63"/>
<path opacity="0.33" d="M18.9209 24.8622C18.9209 24.8622 16.5758 25.1041 15.77 23.3706L18.9209 24.8622Z" fill="#0E3A63"/>
<path opacity="0.33" d="M20.3726 23.1224C20.3726 23.1224 18.0275 23.3637 17.2209 21.6309L20.3726 23.1224Z" fill="#0E3A63"/>
<path opacity="0.33" d="M16.281 32.4105C16.281 32.4105 13.9359 32.6525 13.1293 30.9189L16.281 32.4105Z" fill="#0E3A63"/>
<path opacity="0.33" d="M17.732 30.6688C17.732 30.6688 15.3869 30.9108 14.581 29.1772L17.732 30.6688Z" fill="#0E3A63"/>
<path opacity="0.33" d="M19.1837 28.9292C19.1837 28.9292 16.8385 29.1705 16.032 27.437L19.1837 28.9292Z" fill="#0E3A63"/>
<path opacity="0.33" d="M19.1275 34.7054C19.1275 34.7054 16.7824 34.9474 15.9766 33.2139L19.1275 34.7054Z" fill="#0E3A63"/>
<path opacity="0.33" d="M20.5785 32.9654C20.5785 32.9654 18.2341 33.2067 17.4276 31.4731L20.5785 32.9654Z" fill="#0E3A63"/>
<path opacity="0.33" d="M22.0302 31.2254C22.0302 31.2254 19.6851 31.4674 18.8792 29.7339L22.0302 31.2254Z" fill="#0E3A63"/>
<path opacity="0.33" d="M20.6346 27.1888C20.6346 27.1888 18.2895 27.4308 17.4836 25.6973L20.6346 27.1888Z" fill="#0E3A63"/>
<path opacity="0.33" d="M22.0862 25.4496C22.0862 25.4496 19.7411 25.6915 18.9346 23.958L22.0862 25.4496Z" fill="#0E3A63"/>
<path d="M22.845 13.9819V37.1659C22.845 37.1659 23.3321 37.2117 23.7015 36.9478C23.7015 36.9478 23.4278 33.8854 23.1638 14.5903C23.1639 14.4707 23.1349 14.3528 23.0794 14.2469C23.0239 14.1409 22.9434 14.05 22.845 13.9819Z" fill="#4F4F4F"/>
<path d="M16.5273 35.6758L16.322 35.4987C16.3699 35.442 21.1874 29.7683 22.3209 26.4072L22.5802 26.494C21.4275 29.9057 16.727 35.442 16.5273 35.6758Z" fill="#23415E"/>
<path d="M19.4867 36.8232L19.2815 36.6413C19.2972 36.6236 20.8631 34.8552 22.6131 31.978L22.847 32.1202C21.0841 35.0199 19.5025 36.8054 19.4867 36.8232Z" fill="#23415E"/>
<path d="M13.0069 34.3497L12.8215 34.1521C18.5365 28.7068 22.4673 20.139 22.5098 20.0508L22.7588 20.1636C22.7157 20.2504 18.7602 28.8681 13.0069 34.3497Z" fill="#23415E"/>
<path d="M9.67454 32.8585L9.48505 32.6617C9.56988 32.5796 18.0671 24.3221 22.2142 14.7036L22.4659 14.8116C20.2864 19.8666 16.9247 24.504 14.4886 27.5041C11.8486 30.7538 9.69575 32.838 9.67454 32.8585Z" fill="#23415E"/>
<path d="M6.51338 31.1974L6.34167 30.9841C6.3964 30.9404 11.8042 26.5717 15.3807 20.8857L15.6126 21.0313C12.0102 26.7569 6.56811 31.1536 6.51338 31.1974Z" fill="#23415E"/>
<path d="M3.66404 29.4622L3.51764 29.2319C3.54021 29.2175 5.79228 27.7554 8.5116 24.6191L8.71683 24.7982C5.97015 27.9673 3.68661 29.4479 3.66404 29.4622Z" fill="#23415E"/>
<path d="M22.8449 13.9819V37.1659C22.8449 37.1659 22.3586 37.2117 21.9891 36.9478C21.9891 36.9478 22.2628 33.8854 22.5268 14.5903C22.5267 14.4708 22.5555 14.3529 22.6109 14.247C22.6663 14.141 22.7466 14.0501 22.8449 13.9819Z" fill="#323232"/>
<path d="M22.739 35.7629L22.8416 22.5933L22.9442 35.7629H22.739Z" fill="#5B727B"/>
<path d="M1.32441 26.9794C1.32441 26.9794 13.628 25.4598 22.3264 15.0511L22.3367 14.5903C22.3367 14.5903 14.3696 24.1446 0.75592 26.4687L1.32441 26.9794Z" fill="#323232"/>
<path d="M21.6622 36.5156L22.8587 35.7124L24.1147 36.4958L22.9086 36.8868L21.6622 36.5156Z" fill="#5B727B"/>
<path d="M21.6622 36.789L22.8587 35.9858L24.1147 36.7692L22.9086 37.1602L21.6622 36.789Z" fill="#1C1B1A"/>
<path d="M45.72 25.6639L43.7854 26.3639L43.7601 26.3728L43.7361 26.3673C43.2025 26.2456 42.6764 26.1082 42.151 25.9613C41.8883 25.8888 41.6284 25.8088 41.3664 25.7336L40.5865 25.4917C39.5494 25.1594 38.5255 24.7896 37.5149 24.3822C36.5024 23.981 35.5132 23.525 34.5411 23.0356L33.8173 22.6589C33.5785 22.5291 33.3446 22.3903 33.1079 22.2563L32.7535 22.0512C32.6365 21.9829 32.523 21.907 32.4074 21.8352L31.7178 21.4053L32.4135 21.8305C32.5298 21.8988 32.6441 21.974 32.7617 22.0417L33.1188 22.2392C33.3569 22.3698 33.5929 22.5051 33.833 22.6316L34.5609 22.998C35.5378 23.4765 36.5318 23.9153 37.547 24.3016C38.5622 24.6878 39.5877 25.0494 40.6255 25.3666L41.4067 25.5976C41.6681 25.6694 41.9287 25.7453 42.1914 25.8136C42.7154 25.9503 43.2436 26.0836 43.7717 26.1964L43.7231 26.1998L45.6482 25.4739L45.72 25.6639Z" fill="#5B727B"/>
<path d="M0.092349 25.4916L2.02836 26.1957H1.97911C2.60233 26.059 3.22486 25.8963 3.84192 25.724C4.45898 25.5518 5.07331 25.3651 5.68353 25.1669C6.90329 24.7684 8.10936 24.3275 9.29218 23.8285C9.88393 23.5797 10.4709 23.3192 11.049 23.041C11.3397 22.9043 11.625 22.7587 11.913 22.6165C12.201 22.4743 12.4835 22.3226 12.764 22.166C13.8938 21.5533 14.981 20.8652 16.0183 20.1064C14.9891 20.8765 13.9092 21.5764 12.7859 22.2016C12.5068 22.3622 12.2215 22.5099 11.939 22.663C11.6564 22.8161 11.3684 22.9597 11.0784 23.0984C10.5024 23.3842 9.91539 23.6514 9.32775 23.9078C8.14835 24.4218 6.94433 24.8784 5.72594 25.292C5.11709 25.4975 4.50368 25.691 3.8857 25.8724C3.27001 26.0528 2.64748 26.2223 2.01742 26.3686L1.99279 26.3741L1.96816 26.3652L0.0232544 25.6816L0.092349 25.4916Z" fill="#556C75"/>
<path d="M33.1893 22.7438V22.9496H33.1906V22.7432L33.1893 22.7438Z" fill="#3A3128"/>
<path d="M22.8381 27.7967L12.3878 22.376V10.8188L22.8381 16.2389V27.7967Z" fill="#787878"/>
<path d="M12.948 10.8188H12.3891V22.3766L12.948 22.6665V10.8188Z" fill="#5C5041"/>
<path d="M17.5342 13.1025H17.0745V24.8066L17.5342 25.0452V13.1025Z" fill="#51463B"/>
<path d="M12.9481 10.8188V22.6665L13.1075 22.7492V10.8188H12.9481Z" fill="#3A3128"/>
<path d="M21.879 15.7422V27.3L22.8361 27.7963V16.2385L21.879 15.7422Z" fill="#51463B"/>
<path d="M17.5343 13.0117V13.1026V25.0453L17.5528 25.0549L17.6944 25.1287V13.0944L17.5343 13.0117Z" fill="#3A3128"/>
<path d="M32.7296 11.3439H32.7309V10.8101H32.5715V22.7787L32.7296 22.6967V11.3439Z" fill="#3A3128"/>
<path d="M22.8381 27.7967L33.2878 22.376V10.8188L22.8381 16.2389V27.7967Z" fill="#CFCFCE"/>
<path d="M22.5535 17.4179C22.5535 17.4179 12.253 15.022 6.57013 9.74411C6.57013 9.74411 13.0288 10.8795 22.5535 0.690918V17.4179Z" fill="#1C1B1A"/>
<path d="M35.8963 9.94317L23.8691 4.0385V1.80664L38.5 9.39495L35.8963 9.94317Z" fill="#5DADF8"/>
<path opacity="0.15" d="M22.8231 17.4362L22.8033 20.8103C22.8033 20.8103 14.8916 17.7281 12.3898 19.9695V13.3833L22.8231 17.4362Z" fill="#3A3431"/>
<path d="M8.93235 10.0272L21.6758 4.0385V1.80664L7.04559 9.39495L8.93235 10.0272Z" fill="#116ABD"/>
<path d="M28.144 13.3022V25.0747L28.6201 24.8279V13.3022H28.144Z" fill="#6D6152"/>
<path d="M32.731 11.3438V22.6958L33.2878 22.4066V11.3438H32.731Z" fill="#6D6152"/>
<path d="M32.7296 11.3439H32.7309V10.8101H32.5715V22.7787L32.7296 22.6967V11.3439Z" fill="#3A3128"/>
<path d="M22.8361 15.6768V27.8279L23.7138 27.3726V15.6768H22.8361Z" fill="#6D6152"/>
<path d="M22.7075 17.2123C22.7075 17.2123 12.1374 14.7542 6.30951 9.33893C6.30951 9.33893 12.9357 10.501 22.7075 0.0512695V17.2123Z" fill="#116ABD"/>
<path d="M28.144 25.0747V13.3022H27.9846V25.1574L28.144 25.0747Z" fill="#3A3128"/>
<path opacity="0.2" d="M33.2878 15.0616C33.2878 15.0616 28.2419 14.4683 22.8265 20.9267L22.8149 13.1976L33.2878 13.0103V15.0616Z" fill="#3A3431"/>
<path d="M22.8094 17.4409C22.8094 17.4409 33.1887 15.0265 38.9153 9.70769C38.9153 9.70769 32.4067 10.852 22.8094 0.585449V17.4409Z" fill="#717171"/>
<path d="M22.7075 17.2123C22.7075 17.2123 33.2762 14.7542 39.1061 9.33893C39.1061 9.33893 32.4792 10.501 22.7075 0.0512695V17.2123Z" fill="#5DADF8"/>
<path d="M24.1154 16.7257C24.1154 16.7257 34.3085 13.4261 37.6168 10.3378L27.4353 6.48517C27.2032 6.39781 26.9543 6.36414 26.7072 6.38669C26.4602 6.40924 26.2215 6.48742 26.0091 6.61537C25.7966 6.74332 25.6159 6.9177 25.4806 7.12543C25.3453 7.33315 25.2588 7.56881 25.2277 7.81472L24.1154 16.7257Z" fill="url(#paint3_linear)"/>
<path opacity="0.35" d="M30.3845 13.2384C30.3845 13.2384 32.1481 13.4203 32.7549 12.1167L30.3845 13.2384Z" fill="#116ABD"/>
<path opacity="0.35" d="M29.2352 12.1086C29.2352 12.1086 30.9988 12.2904 31.6049 10.9868L29.2352 12.1086Z" fill="#116ABD"/>
<path opacity="0.35" d="M28.1454 10.7995C28.1454 10.7995 29.909 10.9813 30.5151 9.67773L28.1454 10.7995Z" fill="#116ABD"/>
<path opacity="0.35" d="M34.9954 11.2809C34.9954 11.2809 36.759 11.4627 37.3651 10.1592L34.9954 11.2809Z" fill="#116ABD"/>
<path opacity="0.35" d="M33.846 10.1501C33.846 10.1501 35.6096 10.3312 36.2178 9.02832L33.846 10.1501Z" fill="#116ABD"/>
<path opacity="0.35" d="M27.0508 9.49088C27.0508 9.49088 28.8145 9.67271 29.4213 8.36914L27.0508 9.49088Z" fill="#116ABD"/>
<path opacity="0.35" d="M33.0627 12.5871C33.0627 12.5871 34.8257 12.7689 35.4325 11.4653L33.0627 12.5871Z" fill="#116ABD"/>
<path opacity="0.35" d="M31.9127 11.4528C31.9127 11.4528 33.6763 11.6353 34.2831 10.3311L31.9127 11.4528Z" fill="#116ABD"/>
<path opacity="0.35" d="M30.8217 10.1447C30.8217 10.1447 32.5853 10.3265 33.1914 9.02295L30.8217 10.1447Z" fill="#116ABD"/>
<path opacity="0.35" d="M29.7298 8.83609C29.7298 8.83609 31.4934 9.01792 32.1002 7.71436L29.7298 8.83609Z" fill="#116ABD"/>
<path opacity="0.35" d="M25.9611 8.18248C25.9611 8.18248 27.7247 8.36431 28.3308 7.06006L25.9611 8.18248Z" fill="#116ABD"/>
<path opacity="0.35" d="M24.8693 6.87369C24.8693 6.87369 26.6329 7.05552 27.2397 5.75195L24.8693 6.87369Z" fill="#116ABD"/>
<path opacity="0.35" d="M27.9463 13.8576C27.9463 13.8576 29.7099 14.0394 30.3167 12.7358L27.9463 13.8576Z" fill="#116ABD"/>
<path opacity="0.35" d="M26.8552 12.5495C26.8552 12.5495 28.6188 12.7313 29.2249 11.4277L26.8552 12.5495Z" fill="#116ABD"/>
<path opacity="0.35" d="M25.764 11.2409C25.764 11.2409 27.5297 11.4248 28.1338 10.1191L25.764 11.2409Z" fill="#116ABD"/>
<path opacity="0.35" d="M25.8058 15.5851C25.8058 15.5851 27.5694 15.7669 28.1755 14.4634L25.8058 15.5851Z" fill="#116ABD"/>
<path opacity="0.35" d="M24.7139 14.2765C24.7139 14.2765 26.4775 14.4584 27.0843 13.1548L24.7139 14.2765Z" fill="#116ABD"/>
<path opacity="0.35" d="M23.6228 12.9679C23.6228 12.9679 25.3864 13.1498 25.9925 11.8462L23.6228 12.9679Z" fill="#116ABD"/>
<path opacity="0.35" d="M24.6722 9.93277C24.6722 9.93277 26.4359 10.1146 27.042 8.81104L24.6722 9.93277Z" fill="#116ABD"/>
<path opacity="0.35" d="M23.5811 8.62223C23.5811 8.62223 25.3447 8.80406 25.9508 7.50049L23.5811 8.62223Z" fill="#116ABD"/>
<path d="M27.3751 16.3375C27.2246 16.1612 23.6857 11.9928 22.8183 9.41982L23.0776 9.33301C23.9279 11.8554 27.5468 16.1174 27.5831 16.1598L27.3751 16.3375Z" fill="#526F8A"/>
<path d="M25.1497 17.2004C25.1381 17.1874 23.9464 15.8421 22.6185 13.6581L22.8518 13.5166C24.1667 15.6767 25.3426 17.0028 25.3543 17.0185L25.1497 17.2004Z" fill="#526F8A"/>
<path d="M30.0246 15.3427C25.6929 11.2153 22.7156 4.72617 22.6862 4.66328L22.9352 4.5498C22.9646 4.61816 25.9213 11.0547 30.2134 15.1451L30.0246 15.3427Z" fill="#526F8A"/>
<path d="M32.5312 14.221C32.4628 14.1588 26.0425 7.91712 22.9038 0.637789L23.1556 0.529785C26.2723 7.75922 32.6605 13.9619 32.7207 14.0228L32.5312 14.221Z" fill="#526F8A"/>
<path d="M34.9105 12.9735C34.8694 12.9406 30.7717 9.6308 28.0599 5.31747L28.2911 5.17188C30.9789 9.44419 35.0412 12.7246 35.0815 12.7595L34.9105 12.9735Z" fill="#526F8A"/>
<path d="M37.0558 11.6714C37.0387 11.6604 35.3175 10.5441 33.2481 8.15712L33.4533 7.97803C35.4954 10.3322 37.1858 11.4301 37.2029 11.441L37.0558 11.6714Z" fill="#526F8A"/>
<path d="M38.8907 9.77477C38.8907 9.77477 29.6375 8.63184 23.0974 0.803601L23.0892 0.457031C23.0892 0.457031 29.0799 7.64272 39.3182 9.39061L38.8907 9.77477Z" fill="#4F4F4F"/>
<path d="M7.02983 9.24998L5.52686 8.71338L6.10629 9.74078L6.90601 9.96773L7.02983 9.24998Z" fill="#323232"/>
<path d="M38.3809 9.24998L39.8839 8.71338L39.3045 9.74078L38.5041 9.96773L38.3809 9.24998Z" fill="#4F4F4F"/>
<path opacity="0.33" d="M15.3328 13.2384C15.3328 13.2384 13.5692 13.4203 12.9631 12.1167L15.3328 13.2384Z" fill="#0E3A63"/>
<path opacity="0.33" d="M16.4821 12.1086C16.4821 12.1086 14.7185 12.2904 14.1124 10.9868L16.4821 12.1086Z" fill="#0E3A63"/>
<path opacity="0.33" d="M17.5733 10.8C17.5733 10.8 15.8097 10.9818 15.2036 9.67822L17.5733 10.8Z" fill="#0E3A63"/>
<path opacity="0.33" d="M10.722 11.2814C10.722 11.2814 8.95835 11.4632 8.35223 10.1597L10.722 11.2814Z" fill="#0E3A63"/>
<path opacity="0.33" d="M11.8713 10.1505C11.8713 10.1505 10.1076 10.3324 9.50153 9.02881L11.8713 10.1505Z" fill="#0E3A63"/>
<path opacity="0.33" d="M18.6651 9.49137C18.6651 9.49137 16.9015 9.6732 16.2953 8.36963L18.6651 9.49137Z" fill="#0E3A63"/>
<path opacity="0.33" d="M12.6552 12.5871C12.6552 12.5871 10.8916 12.7689 10.2855 11.4653L12.6552 12.5871Z" fill="#0E3A63"/>
<path opacity="0.33" d="M13.8045 11.4533C13.8045 11.4533 12.0409 11.6358 11.4348 10.3315L13.8045 11.4533Z" fill="#0E3A63"/>
<path opacity="0.33" d="M14.8957 10.1452C14.8957 10.1452 13.1321 10.327 12.5259 9.02344L14.8957 10.1452Z" fill="#0E3A63"/>
<path opacity="0.33" d="M15.9875 8.83658C15.9875 8.83658 14.2239 9.01841 13.6178 7.71484L15.9875 8.83658Z" fill="#0E3A63"/>
<path opacity="0.33" d="M19.7563 8.18297C19.7563 8.18297 17.9927 8.3648 17.3865 7.06055L19.7563 8.18297Z" fill="#0E3A63"/>
<path opacity="0.33" d="M20.8481 6.87418C20.8481 6.87418 19.0844 7.05601 18.4783 5.75244L20.8481 6.87418Z" fill="#0E3A63"/>
<path opacity="0.33" d="M17.771 13.8581C17.771 13.8581 16.0074 14.0399 15.4012 12.7363L17.771 13.8581Z" fill="#0E3A63"/>
<path opacity="0.33" d="M18.8621 12.55C18.8621 12.55 17.0985 12.7318 16.4924 11.4282L18.8621 12.55Z" fill="#0E3A63"/>
<path opacity="0.33" d="M19.954 11.2414C19.954 11.2414 18.1903 11.4252 17.5842 10.1196L19.954 11.2414Z" fill="#0E3A63"/>
<path opacity="0.33" d="M19.9115 15.5856C19.9115 15.5856 18.1479 15.7674 17.5418 14.4639L19.9115 15.5856Z" fill="#0E3A63"/>
<path opacity="0.33" d="M21.0034 14.277C21.0034 14.277 19.2398 14.4588 18.6337 13.1553L21.0034 14.277Z" fill="#0E3A63"/>
<path opacity="0.33" d="M22.0945 12.9684C22.0945 12.9684 20.3309 13.1502 19.7248 11.8467L22.0945 12.9684Z" fill="#0E3A63"/>
<path opacity="0.33" d="M21.045 9.93277C21.045 9.93277 19.2814 10.1146 18.6753 8.81104L21.045 9.93277Z" fill="#0E3A63"/>
<path opacity="0.33" d="M22.1369 8.62271C22.1369 8.62271 20.3733 8.80454 19.7665 7.50098L22.1369 8.62271Z" fill="#0E3A63"/>
<path d="M22.7075 0V17.4358C22.7075 17.4358 23.0735 17.47 23.3512 17.2718C23.3512 17.2718 23.146 14.9681 22.9469 0.455941C22.9468 0.366269 22.925 0.277953 22.8833 0.19855C22.8416 0.119146 22.7813 0.0510199 22.7075 0Z" fill="#4F4F4F"/>
<path d="M17.9823 16.3375L17.7737 16.1598C17.8099 16.1174 21.4288 11.8533 22.2792 9.33301L22.5385 9.41982C21.671 11.9928 18.1322 16.1612 17.9823 16.3375Z" fill="#23415E"/>
<path d="M20.2098 17.2004L20.0046 17.0185C20.0162 17.0055 21.1922 15.6767 22.507 13.5166L22.7403 13.6581C21.4104 15.8421 20.2187 17.1874 20.2098 17.2004Z" fill="#23415E"/>
<path d="M15.3322 15.3429L15.1434 15.1446C19.4361 11.0548 22.3949 4.61767 22.4215 4.54932L22.6712 4.66279C22.6411 4.72636 19.6626 11.2155 15.3322 15.3429Z" fill="#23415E"/>
<path d="M12.8255 14.2209L12.636 14.0227C12.6997 13.9605 19.0851 7.75639 22.2019 0.52832L22.4529 0.636324C19.3143 7.91703 12.8899 14.1594 12.8255 14.2209Z" fill="#23415E"/>
<path d="M10.4462 12.9733L10.2752 12.76C10.3156 12.7272 14.3798 9.44536 17.0656 5.17236L17.2968 5.31796C14.5851 9.63061 10.4873 12.9404 10.4462 12.9733Z" fill="#23415E"/>
<path d="M8.30092 11.6714L8.15247 11.441C8.16957 11.4301 9.86272 10.3322 11.902 7.97803L12.1073 8.15712C10.0392 10.5441 8.31802 11.6604 8.30092 11.6714Z" fill="#23415E"/>
<path d="M22.7075 0V17.4358C22.7075 17.4358 22.3415 17.47 22.0637 17.2718C22.0637 17.2718 22.269 14.9681 22.468 0.455941C22.4681 0.366269 22.4899 0.277953 22.5316 0.19855C22.5733 0.119146 22.6337 0.0510199 22.7075 0Z" fill="#323232"/>
<path d="M22.6028 16.381L22.7054 6.47607L22.808 16.381H22.6028Z" fill="#5B727B"/>
<path d="M6.5229 9.77477C6.5229 9.77477 15.7761 8.63184 22.3161 0.803601L22.3237 0.457031C22.3237 0.457031 16.3336 7.64272 6.09534 9.39061L6.5229 9.77477Z" fill="#323232"/>
<path d="M21.8181 16.9464L22.7177 16.3428L23.6625 16.932L22.7553 17.2259L21.8181 16.9464Z" fill="#5B727B"/>
<path d="M21.879 23.8683L13.0151 19.2706V18.6294L21.879 23.2271V23.8683Z" fill="#51463B"/>
<path d="M21.8181 17.1519L22.7177 16.5483L23.6625 17.1376L22.7553 17.4315L21.8181 17.1519Z" fill="#1C1B1A"/>
<path d="M39.9195 8.81004L38.463 9.33297L38.4377 9.34186L38.4145 9.33639C37.612 9.14978 36.826 8.92283 36.0447 8.67196C35.2635 8.42109 34.4952 8.13946 33.7359 7.83254C32.9765 7.52561 32.2308 7.18383 31.5016 6.81402L30.9577 6.52965C30.7778 6.4319 30.602 6.32458 30.4241 6.22615L30.158 6.07303C30.0705 6.02039 29.9849 5.96434 29.8981 5.90966L29.3802 5.58154L29.9042 5.90009C29.9918 5.95272 30.078 6.00741 30.1662 6.05868L30.4351 6.20633C30.6143 6.30408 30.7922 6.40593 30.9735 6.50026L31.5208 6.77369C32.2555 7.12983 33.0039 7.45726 33.768 7.74914C34.5322 8.04103 35.3025 8.30762 36.0837 8.54482C36.865 8.78201 37.6572 8.99255 38.45 9.16003H38.4008L39.8477 8.61317L39.9195 8.81004Z" fill="#5B727B"/>
<path d="M5.60492 8.63219L7.06001 9.16469H7.01075C7.94798 8.95962 8.87836 8.69097 9.79574 8.39704C10.7131 8.1031 11.6209 7.76884 12.5109 7.39561C12.9556 7.20968 13.4003 7.01486 13.8326 6.80637C14.0515 6.7052 14.2664 6.59515 14.4832 6.48851C14.7001 6.38187 14.9128 6.2684 15.1235 6.15083C15.9739 5.69265 16.7924 5.17767 17.5733 4.60938C16.8009 5.18912 15.9905 5.71642 15.1475 6.18774C14.9381 6.30873 14.7233 6.42015 14.5106 6.53568C14.2978 6.6512 14.0823 6.7592 13.8641 6.86447C13.4311 7.0798 12.9919 7.28213 12.5479 7.47559C11.6586 7.86385 10.7549 8.21247 9.83884 8.52213C8.92282 8.83179 7.99176 9.11273 7.04838 9.33763L7.02512 9.34378L6.99913 9.3349L5.53583 8.82769L5.60492 8.63219Z" fill="#556C75"/>
<path d="M23.6577 23.8678L32.6495 19.2045V18.5503L23.6577 23.2136V23.8678Z" fill="#6D6152"/>
<defs>
<linearGradient id="paint0_linear" x1="17" y1="24.5" x2="13.5" y2="29" gradientUnits="userSpaceOnUse">
<stop stop-color="#115B9F"/>
<stop offset="1" stop-color="#116ABD"/>
</linearGradient>
<linearGradient id="paint1_linear" x1="29" y1="24" x2="32.5" y2="28.5" gradientUnits="userSpaceOnUse">
<stop stop-color="#4C8ECB"/>
<stop offset="1" stop-color="#5DADF8"/>
</linearGradient>
<linearGradient id="paint2_linear" x1="30" y1="27" x2="33.4955" y2="33.0026" gradientUnits="userSpaceOnUse">
<stop stop-color="#5DADF8" stop-opacity="0"/>
<stop offset="1" stop-color="#A4DEFF"/>
</linearGradient>
<linearGradient id="paint3_linear" x1="32.5" y1="13.5" x2="27.5" y2="6" gradientUnits="userSpaceOnUse">
<stop stop-color="#A4DEFF"/>
<stop offset="1" stop-color="#5DADF8" stop-opacity="0"/>
</linearGradient>
</defs>
</svg>
