<svg width="50" height="33" viewBox="0 0 50 33" fill="none" xmlns="http://www.w3.org/2000/svg">
<rect width="28.7331" height="28.7331" transform="matrix(0.870078 0.492915 -0.870078 0.492915 25 4.31396)" fill="url(#paint0_radial)"/>
<path d="M7.49524 20.0692L25.2375 10.8584V8.15283L7.49524 17.3637V20.0692Z" fill="#514D4B"/>
<path d="M42.9738 20.0692L25.2375 10.8584V8.15283L42.9738 17.3637V20.0692Z" fill="#514D4B"/>
<path d="M25.2375 26.5743L41.5789 18.091V0L25.2375 8.48335V26.5743Z" fill="#CFCFCE"/>
<path d="M25.2375 26.5743L8.89014 18.091V0L25.2375 8.48335V26.5743Z" fill="#6B6B6B"/>
<path d="M9.76784 0H8.89606V19.4738H9.76784V0Z" fill="#5C5041"/>
<path d="M25.2315 7.60547H23.7344V27.0793H25.2315V7.60547Z" fill="#51463B"/>
<path d="M41.5788 0.82373H40.707V18.9147H41.5788V0.82373Z" fill="#6D6152"/>
<path d="M26.6023 7.60547H25.2314V27.0793H26.6023V7.60547Z" fill="#6D6152"/>
<path d="M16.9646 3.57715H16.2191V23.051H16.9646V3.57715Z" fill="#51463B"/>
<path d="M34.28 3.88965H33.2819V23.3635H34.28V3.88965Z" fill="#6D6152"/>
<path d="M10.0143 0H9.76782V19.4738H10.0143V0Z" fill="#3A3128"/>
<path d="M17.1871 3.43311H16.9406V22.9069H17.1871V3.43311Z" fill="#3A3128"/>
<path d="M25.2375 29.2616L7.49524 20.0507V17.3452L25.2375 26.55V29.2616Z" fill="#514D4B"/>
<path d="M33.5405 3.49316H33.288V22.967H33.5405V3.49316Z" fill="#3A3128"/>
<path d="M40.7132 1.56299H40.4606V21.0368H40.7132V1.56299Z" fill="#3A3128"/>
<path d="M25.2375 29.2616L42.9738 20.0507V17.3452L25.2375 26.55V29.2616Z" fill="#514D4B"/>
<path d="M24.8046 29.0092L7.49524 20.0509V17.8384L24.3898 26.5863C24.6423 26.7185 24.7986 26.9771 24.8046 27.2656V29.0092Z" fill="url(#paint1_linear)"/>
<path d="M23.7344 20.1113L9.74377 12.8484V11.8384L23.7344 19.1012V20.1113Z" fill="#51463B"/>
<path d="M26.5962 20.1108L40.707 12.7879V11.7598L26.5962 19.0827V20.1108Z" fill="#6D6152"/>
<path d="M16.225 15.2589L9.76782 11.9041V11.6636L16.225 15.0124V15.2589Z" fill="#3A3128"/>
<path d="M23.7344 19.1374L17.193 15.6983V15.4639L23.7344 18.9089V19.1374Z" fill="#3A3128"/>
<path d="M34.2798 15.1149L40.707 11.7781V11.5376L34.2798 14.8744V15.1149Z" fill="#3A3128"/>
<path d="M26.6022 19.083L33.2879 15.6139V15.3794L26.6022 18.8485V19.083Z" fill="#3A3128"/>
<path opacity="0.2" d="M41.5789 7.60563C41.5789 7.60563 32.9032 5.12256 25.2135 19.4979L25.1954 3.72169L41.5789 3.43311V7.60563Z" fill="#3A3431"/>
<path opacity="0.15" d="M25.1413 11.1709L25.2195 19.4979C25.2195 19.4979 12.8101 14.3875 8.89612 17.8987V4.01025L25.1413 11.1709Z" fill="#3A3431"/>
<defs>
<radialGradient id="paint0_radial" cx="0" cy="0" r="1" gradientUnits="userSpaceOnUse" gradientTransform="translate(14.3665 14.3665) rotate(86.7537) scale(18.9161 17.8165)">
<stop stop-opacity="0.833333"/>
<stop offset="1" stop-opacity="0"/>
</radialGradient>
<linearGradient id="paint1_linear" x1="7.49584" y1="23.4274" x2="24.8046" y2="23.4274" gradientUnits="userSpaceOnUse">
<stop stop-color="#231F20" stop-opacity="0"/>
<stop offset="0.14" stop-color="#272423" stop-opacity="0.25"/>
<stop offset="0.4" stop-color="#2D2B28" stop-opacity="0.61"/>
<stop offset="0.68" stop-color="#312F2B" stop-opacity="0.83"/>
<stop offset="1" stop-color="#32302C" stop-opacity="0.9"/>
</linearGradient>
</defs>
</svg>
