<svg width="46" height="24" viewBox="0 0 46 24" fill="none" xmlns="http://www.w3.org/2000/svg">
<path d="M22.8587 23.4964C22.8587 23.4964 9.16267 20.3099 1.60522 13.2815C1.60522 13.2815 10.1968 14.7906 22.8587 1.23291V23.4964Z" fill="#1C1B1A"/>
<path d="M40.6009 13.5523L24.6082 5.6942V2.72412L44.064 12.8188L40.6009 13.5523Z" fill="#DA3C5B"/>
<path d="M4.74363 13.6605L21.6923 5.6942V2.72412L2.23651 12.8188L4.74363 13.6605Z" fill="#B61F3D"/>
<path d="M23.0631 23.2259C23.0631 23.2259 9.01237 19.9552 1.25653 12.7465C1.25653 12.7465 10.0705 14.2977 23.0631 0.385254V23.2259Z" fill="#B61F3D"/>
<path d="M23.2014 23.5266C23.2014 23.5266 37.0055 20.31 44.6171 13.2335C44.6171 13.2335 35.9594 14.7546 23.2014 1.09473V23.5266Z" fill="#CFCFCE"/>
<path d="M23.063 23.2259C23.063 23.2259 37.1138 19.9552 44.8696 12.7465C44.8696 12.7465 36.0556 14.2977 23.063 0.385254V23.2259Z" fill="#DA3C5B"/>
<path d="M24.9329 22.5764C24.9329 22.5764 38.4846 18.1874 42.8856 14.075L29.3459 8.94654C28.2216 8.51967 26.9591 9.08482 26.5322 10.2151C26.4721 10.3775 26.43 10.5458 26.4059 10.7142L24.9329 22.5764Z" fill="url(#paint0_linear)"/>
<path opacity="0.35" d="M33.272 17.9344C33.272 17.9344 35.6168 18.1749 36.4225 16.4434L33.272 17.9344Z" fill="#631A28"/>
<path opacity="0.35" d="M31.7449 16.431C31.7449 16.431 34.0897 16.6715 34.8954 14.9399L31.7449 16.431Z" fill="#631A28"/>
<path opacity="0.35" d="M30.29 14.6873C30.29 14.6873 32.6348 14.9278 33.4404 13.1963L30.29 14.6873Z" fill="#631A28"/>
<path opacity="0.35" d="M39.4047 15.3309C39.4047 15.3309 41.7495 15.5714 42.5551 13.8398L39.4047 15.3309Z" fill="#631A28"/>
<path opacity="0.35" d="M37.8715 13.8279C37.8715 13.8279 40.2163 14.0684 41.022 12.3369L37.8715 13.8279Z" fill="#631A28"/>
<path opacity="0.35" d="M28.841 12.9505C28.841 12.9505 31.1858 13.191 31.9915 11.4595L28.841 12.9505Z" fill="#631A28"/>
<path opacity="0.35" d="M36.8313 17.0623C36.8313 17.0623 39.1761 17.3028 39.9817 15.5713L36.8313 17.0623Z" fill="#631A28"/>
<path opacity="0.35" d="M35.3043 15.5594C35.3043 15.5594 37.6491 15.7999 38.4547 14.0684L35.3043 15.5594Z" fill="#631A28"/>
<path opacity="0.35" d="M33.8492 13.8158C33.8492 13.8158 36.194 14.0563 36.9997 12.3247L33.8492 13.8158Z" fill="#631A28"/>
<path opacity="0.35" d="M32.4003 12.0785C32.4003 12.0785 34.7451 12.319 35.5507 10.5874L32.4003 12.0785Z" fill="#631A28"/>
<path opacity="0.35" d="M27.386 11.2069C27.386 11.2069 29.7308 11.4474 30.5364 9.71582L27.386 11.2069Z" fill="#631A28"/>
<path opacity="0.35" d="M25.9371 9.46321C25.9371 9.46321 28.2819 9.7037 29.0875 7.97217L25.9371 9.46321Z" fill="#631A28"/>
<path opacity="0.35" d="M30.0314 18.7581C30.0314 18.7581 32.3762 18.9986 33.1818 17.2671L30.0314 18.7581Z" fill="#631A28"/>
<path opacity="0.35" d="M28.5765 17.0203C28.5765 17.0203 30.9213 17.2608 31.7269 15.5293L28.5765 17.0203Z" fill="#631A28"/>
<path opacity="0.35" d="M27.1275 15.2767C27.1275 15.2767 29.4723 15.5172 30.2779 13.7856L27.1275 15.2767Z" fill="#631A28"/>
<path opacity="0.35" d="M27.1816 21.0604C27.1816 21.0604 29.5264 21.3009 30.332 19.5693L27.1816 21.0604Z" fill="#631A28"/>
<path opacity="0.35" d="M25.7326 19.3172C25.7326 19.3172 28.0774 19.5577 28.883 17.8262L25.7326 19.3172Z" fill="#631A28"/>
<path opacity="0.35" d="M24.2776 17.5736C24.2776 17.5736 26.6225 17.8141 27.4281 16.0825L24.2776 17.5736Z" fill="#631A28"/>
<path opacity="0.35" d="M25.6725 13.5335C25.6725 13.5335 28.0173 13.774 28.8229 12.0425L25.6725 13.5335Z" fill="#631A28"/>
<path opacity="0.35" d="M24.2236 11.7957C24.2236 11.7957 26.5684 12.0362 27.3741 10.3047L24.2236 11.7957Z" fill="#631A28"/>
<path d="M29.3159 22.0169C29.2678 21.9568 24.4159 16.2451 23.2676 12.8301L23.496 12.752C24.6324 16.1188 29.4482 21.8005 29.4963 21.8606L29.3159 22.0169Z" fill="#231F20"/>
<path d="M26.3579 23.1649C26.3398 23.1469 24.7586 21.3612 22.997 18.4573L23.2014 18.3311C24.951 21.2169 26.5202 22.9845 26.5382 23.0026L26.3579 23.1649Z" fill="#231F20"/>
<path d="M32.8331 20.6877C27.0794 15.2045 23.1293 6.58286 23.0872 6.49869L23.3037 6.39648C23.3397 6.48066 27.2778 15.0662 32.9955 20.5133L32.8331 20.6877Z" fill="#231F20"/>
<path d="M36.17 19.197C36.146 19.179 33.9936 17.0927 31.3542 13.84C28.9192 10.8399 25.5583 6.19843 23.3819 1.14209L23.6044 1.0459C25.7748 6.07818 29.1176 10.7016 31.5466 13.6897C34.1739 16.9304 36.3203 19.0046 36.3383 19.0226L36.17 19.197Z" fill="#231F20"/>
<path d="M39.3264 17.5373C39.2723 17.4953 33.8312 13.0943 30.2299 7.36454L30.4343 7.23828C34.0116 12.9319 39.4226 17.3029 39.4768 17.351L39.3264 17.5373Z" fill="#231F20"/>
<path d="M42.1762 15.8004C42.1522 15.7883 39.8675 14.3033 37.1259 11.1348L37.3063 10.9785C40.0299 14.1229 42.2845 15.5839 42.3025 15.602L42.1762 15.8004Z" fill="#231F20"/>
<path d="M44.5811 13.3226C44.5811 13.3226 32.28 11.8015 23.5802 1.38824L23.5682 0.925293C23.5682 0.925293 31.5345 10.4848 45.1523 12.8116L44.5811 13.3226Z" fill="#302D2B"/>
<path d="M2.21257 12.6256L0.216492 11.9102L0.986064 13.281L2.05024 13.5816L2.21257 12.6256Z" fill="#1C1B1A"/>
<path d="M43.9077 12.6256L45.9038 11.9102L45.1342 13.281L44.07 13.5816L43.9077 12.6256Z" fill="#302D2B"/>
<path opacity="0.33" d="M13.2571 17.9344C13.2571 17.9344 10.9123 18.1749 10.1067 16.4434L13.2571 17.9344Z" fill="#631A28"/>
<path opacity="0.33" d="M14.7842 16.431C14.7842 16.431 12.4394 16.6715 11.6338 14.9399L14.7842 16.431Z" fill="#631A28"/>
<path opacity="0.33" d="M16.2332 14.6873C16.2332 14.6873 13.8884 14.9278 13.0828 13.1963L16.2332 14.6873Z" fill="#631A28"/>
<path opacity="0.33" d="M7.12462 15.3309C7.12462 15.3309 4.77983 15.5714 3.97418 13.8398L7.12462 15.3309Z" fill="#631A28"/>
<path opacity="0.33" d="M8.65172 13.8279C8.65172 13.8279 6.30693 14.0684 5.50128 12.3369L8.65172 13.8279Z" fill="#631A28"/>
<path opacity="0.33" d="M17.6882 12.9505C17.6882 12.9505 15.3434 13.191 14.5378 11.4595L17.6882 12.9505Z" fill="#631A28"/>
<path opacity="0.33" d="M9.69781 17.0623C9.69781 17.0623 7.35301 17.3028 6.54736 15.5713L9.69781 17.0623Z" fill="#631A28"/>
<path opacity="0.33" d="M11.225 15.5594C11.225 15.5594 8.88023 15.7999 8.07458 14.0684L11.225 15.5594Z" fill="#631A28"/>
<path opacity="0.33" d="M12.674 13.8158C12.674 13.8158 10.3292 14.0563 9.52356 12.3247L12.674 13.8158Z" fill="#631A28"/>
<path opacity="0.33" d="M14.1289 12.0785C14.1289 12.0785 11.7841 12.319 10.9785 10.5874L14.1289 12.0785Z" fill="#631A28"/>
<path opacity="0.33" d="M19.1372 11.2069C19.1372 11.2069 16.7924 11.4474 15.9868 9.71582L19.1372 11.2069Z" fill="#631A28"/>
<path opacity="0.33" d="M20.5921 9.46321C20.5921 9.46321 18.2474 9.7037 17.4417 7.97217L20.5921 9.46321Z" fill="#631A28"/>
<path opacity="0.33" d="M16.4977 18.7581C16.4977 18.7581 14.1529 18.9986 13.3473 17.2671L16.4977 18.7581Z" fill="#631A28"/>
<path opacity="0.33" d="M17.9467 17.0203C17.9467 17.0203 15.6019 17.2608 14.7963 15.5293L17.9467 17.0203Z" fill="#631A28"/>
<path opacity="0.33" d="M19.4017 15.2767C19.4017 15.2767 17.0569 15.5172 16.2513 13.7856L19.4017 15.2767Z" fill="#631A28"/>
<path opacity="0.33" d="M19.3476 21.0604C19.3476 21.0604 17.0029 21.3009 16.1972 19.5693L19.3476 21.0604Z" fill="#631A28"/>
<path opacity="0.33" d="M20.7965 19.3172C20.7965 19.3172 18.4517 19.5577 17.6461 17.8262L20.7965 19.3172Z" fill="#631A28"/>
<path opacity="0.33" d="M22.2455 17.5736C22.2455 17.5736 19.9007 17.8141 19.0951 16.0825L22.2455 17.5736Z" fill="#631A28"/>
<path opacity="0.33" d="M20.8507 13.5335C20.8507 13.5335 18.5059 13.774 17.7003 12.0425L20.8507 13.5335Z" fill="#631A28"/>
<path opacity="0.33" d="M22.3056 11.7957C22.3056 11.7957 19.9609 12.0362 19.1552 10.3047L22.3056 11.7957Z" fill="#631A28"/>
<path d="M23.0632 0.318359V23.5198C23.0632 23.5198 23.5502 23.5679 23.9169 23.3033C23.9169 23.3033 23.6404 20.2371 23.3818 0.9256C23.3818 0.685109 23.2616 0.456642 23.0632 0.318359Z" fill="#302D2B"/>
<path d="M16.7322 22.0169L16.5519 21.8606C16.6 21.8065 21.4218 16.1249 22.5521 12.752L22.7806 12.8301C21.6323 16.2451 16.7803 21.9628 16.7322 22.0169Z" fill="#231F20"/>
<path d="M19.6903 23.1649L19.5099 23.0026C19.5279 22.9845 21.0911 21.2109 22.8467 18.3311L23.0511 18.4573C21.2835 21.3612 19.7083 23.1469 19.6903 23.1649Z" fill="#231F20"/>
<path d="M13.215 20.6877L13.0467 20.5133C18.7644 15.0602 22.6964 6.48066 22.7385 6.39648L22.9549 6.49869C22.9189 6.58286 18.9628 15.2045 13.215 20.6877Z" fill="#231F20"/>
<path d="M9.87818 19.197L9.70984 19.0226C9.73389 19.0046 11.8743 16.9243 14.5076 13.6837C16.9306 10.6956 20.2794 6.07217 22.4439 1.0459L22.6663 1.14209C20.4899 6.19843 17.129 10.8399 14.688 13.84C12.0546 17.0927 9.90223 19.179 9.87818 19.197Z" fill="#231F20"/>
<path d="M6.72184 17.5373L6.57153 17.351C6.62564 17.3089 12.0367 12.9319 15.614 7.23828L15.8184 7.36454C12.2171 13.0943 6.77595 17.4892 6.72184 17.5373Z" fill="#231F20"/>
<path d="M3.87196 15.8004L3.73969 15.596C3.76373 15.5839 6.01834 14.1169 8.7359 10.9785L8.91626 11.1348C6.17466 14.3033 3.896 15.7823 3.87196 15.8004Z" fill="#231F20"/>
<path d="M23.0632 0.318359V23.5198C23.0632 23.5198 22.5762 23.5679 22.2095 23.3033C22.2095 23.3033 22.486 20.2371 22.7446 0.9256C22.7446 0.685109 22.8648 0.456642 23.0632 0.318359Z" fill="#1C1B1A"/>
<path d="M1.53921 13.3226C1.53921 13.3226 13.8404 11.8015 22.5401 1.38824L22.5522 0.925293C22.5522 0.925293 14.5859 10.4848 0.97406 12.8116L1.53921 13.3226Z" fill="#1C1B1A"/>
<path d="M21.8788 22.8706L23.0752 22.0649L24.3318 22.8526L23.1233 23.2434L21.8788 22.8706Z" fill="#554841"/>
<path d="M21.8788 23.1414L23.0752 22.3418L24.3318 23.1234L23.1233 23.5142L21.8788 23.1414Z" fill="#1C1B1A"/>
<path d="M22.9669 22.1195L23.0571 8.93457L23.1473 22.1195H22.9669Z" fill="#7F665B"/>
<path d="M45.9339 11.9945L43.9979 12.6979L43.9739 12.7039L43.9559 12.6979C43.4208 12.5777 42.8977 12.4394 42.3686 12.2951C42.1041 12.223 41.8455 12.1448 41.587 12.0666L40.8054 11.8261C39.7653 11.4955 38.7432 11.1227 37.7331 10.7199C36.7231 10.3171 35.731 9.86013 34.757 9.37313L34.0356 8.99436C33.7951 8.86209 33.5606 8.72381 33.3261 8.59154L32.9714 8.38712C32.8572 8.31497 32.7429 8.24282 32.6227 8.17068L31.9313 7.73779L32.6287 8.16466C32.7429 8.23681 32.8572 8.30896 32.9774 8.37509L33.3321 8.5735C33.5726 8.70577 33.8071 8.83804 34.0476 8.9643L34.7751 9.33105C35.7491 9.80602 36.7471 10.2509 37.7632 10.6417C38.7793 11.0325 39.8014 11.3933 40.8415 11.7119L41.6231 11.9464C41.8816 12.0185 42.1462 12.0967 42.4107 12.1628C42.9338 12.3011 43.4628 12.4334 43.9919 12.5476H43.9498L45.8738 11.8201L45.9339 11.9945Z" fill="#9B7B70"/>
<path d="M0.306644 11.8502L2.2426 12.5536H2.20051C2.82579 12.4153 3.44506 12.253 4.06432 12.0787C4.68359 11.9043 5.29684 11.7179 5.90408 11.5195C6.51132 11.3211 7.11856 11.1107 7.71979 10.8882C8.32102 10.6658 8.92225 10.4313 9.51145 10.1788C10.1007 9.92627 10.6899 9.66774 11.267 9.39117C11.5556 9.25289 11.8442 9.1086 12.1328 8.9643C12.4214 8.82001 12.704 8.6697 12.9805 8.51338C14.1109 7.90013 15.1931 7.20872 16.2332 6.45117C15.2051 7.22074 14.1229 7.92418 12.9986 8.54946C12.722 8.71179 12.4334 8.85608 12.1508 9.0124C11.8683 9.16872 11.5797 9.307 11.2911 9.44528C10.7139 9.72786 10.1307 9.99841 9.54151 10.2509C8.95231 10.5034 8.35709 10.7499 7.75587 10.9784C7.15464 11.2069 6.5474 11.4233 5.94016 11.6338C5.33292 11.8442 4.71365 12.0306 4.1004 12.2109C3.48714 12.3913 2.86187 12.5596 2.23058 12.7039L2.20653 12.7099L2.18248 12.7039L0.246521 12.0185L0.306644 11.8502Z" fill="#3D3732"/>
<defs>
<linearGradient id="paint0_linear" x1="27" y1="8.5" x2="34.8651" y2="19.6328" gradientUnits="userSpaceOnUse">
<stop stop-color="#DA3C5B" stop-opacity="0"/>
<stop offset="1" stop-color="#FF8788" stop-opacity="0.86"/>
</linearGradient>
</defs>
</svg>
