<svg xmlns="http://www.w3.org/2000/svg" xmlns:xlink="http://www.w3.org/1999/xlink" fill="none" height="589" width="375"><style><![CDATA[.B{fill:#c4c4c4}.C{opacity:.4}.D{opacity:.5}.E{color-interpolation-filters:sRGB}.F{flood-opacity:0}]]></style><g transform="translate(0 -30)" clip-path="url(#X)"><path fill="#f0f4eb" d="M0 519h375v100H0z"/><path fill="#eff3ea" d="M0 469h375v50H0z"/><path fill="#ebf1e6" d="M0 398h375v71H0z"/><path fill="#e0edd5" d="M0 349h375v49H0z"/><path fill="#c9deb6" d="M0 278h375v71H0z"/><path fill="#bac9ac" d="M0 207h375v71H0z"/><path fill="#dfdfdf" d="M0 151h375v56H0z"/><path fill="#ebebeb" d="M0 113h375v38H0z"/><path fill="#f4f4f4" d="M0 30h375v83H0z"/><g filter="url(#C)"><path fill="url(#H)" d="M237.93 148.918c4.42-4.13 7.274-13.918 7.274-13.918s.77-3.84 2.853-5.04c2.082-1.172 4.935-.293 6.76-5.626s2.082-8 4.42-8.293 5.45 2.374 5.45 2.374l3.1 2.96s2.08-1.494 4.42 5.333c2.34 6.798 3.1 9.465 5.192 4.132s1.568-5.626 2.853-8c1.31-2.373 2.082-2.08 3.367-2.96s2.596 8.585 2.853-1.495 0-12.424 0-12.424l2.853-3.545.77-5.04c.514-3.252-.77-2.08 0-5.626s1.465-2.022 1.465-2.022.334-1.406 5.295.234c2.288.762 3.778-1.114 5.14-2.022 2.75-1.846 4.626-3.223 4.986-.03.745 6.388-2.34 7.413 1.028 9.465 3.367 2.08 2.34 1.787 6.76 2.666s4.163-1.172 5.192 3.546 2.338 7.706 2.338 7.706.257 2.96 5.706 1.172 8.56-4.747 8.56-4.747l7.274.293 9.356.88s2.596-5.92 6.502-2.08 5.45 5.04 7.788 6.798c2.34 1.788 2.853 3.253 6.503 2.374V198H213s12.21-26.93 14.29-27.837 5.963-1.495 7.273-6.505c1.31-5.04 1.825-9.172 2.34-10.96l1.028-3.78z"/></g><mask height="162" width="252" y="80" x="0" maskUnits="userSpaceOnUse" id="A"><path d="M0 80h252v162H0z" class="B"/></mask><g mask="url(#A)"><g filter="url(#D)"><path fill="url(#I)" d="M-15.97 133.4c.38-.586 6.48-7.482 8.6-7.277 2.16.206 3.123.206 5.487-3.345s4.904-6.515 4.904-6.515l6.86-1.584 4.904 1.584s4.115-2.376 6.48 1.174 2.16 3.756 5.487 2.964 2.744-.792 6.86-.998 3.91-.587 7.24-2.17 4.904-3.55 8.6-3.756c3.736-.206 1.372 2.17 5.69-3.756s6.07-11.24 10.186-9.86 3.736 0 6.275-3.14 2.364-4.138 5.692-6.7 1.956-5.722 5.867-2.964 5.487 1.966 8.026 2.758.584 1.585 3.123 6.104 5.867.792 8.23 5.898c2.364 5.135.584 7.1 6.275 6.31s5.283-1.966 10.566 0 9.982 1.966 13.3 5.31-.993 3.55 6.86 4.138 7.85-1.585 11.178.998c3.328 2.553.788 5.898 8.815 8.275s5.867.792 9.807 4.93c3.91 4.137 8.027 10.828 8.027 10.828s7.442 11.033 13.31 17.518c5.867 6.515 6.86 2.553 11.354 13.38s2.948 11.62 5.487 17.724 5.692 15.963 7.443 15.758-231 0-231 0V133.4z"/></g></g><path fill="url(#J)" d="M375 207H0v246c158.5 181 319.5 70.5 375 0z"/><path fill="url(#K)" d="M375 389C211.8 207.8 56.5 313.5 0 389v107h375z"/><g filter="url(#E)" style="mix-blend-mode:multiply"><use xlink:href="#Y" fill-opacity=".35" fill="#58664e"/></g><g filter="url(#F)"><path fill-opacity=".5" fill="#879b77" d="M150.5 238C71.43 229.913 26.833 221.5 1 220.5v84C91.5 291.833 238.5 247 150.5 238z"/></g><g filter="url(#G)"><path fill-opacity=".45" fill="#829176" d="M210.588 238.5L374 221v84c-98.922-12.667-259.6-57.5-163.412-66.5z"/></g><path fill="url(#L)" d="M56.6 210.62c.824-1.68 9.448-12.255 11.645-15.587s3.873-3.057 4.724-8.895c.824-5.84 1.95-10.024 3.872-11.4s3.598-1.102 5.822-5.84.275-4.46 3.323-6.113 1.95-.276 6.948-3.332 4.45-4.186 8.047-3.883 3.323 3.056 5.273 4.736 3.873-.55 6.097.827c2.225 1.404 3.324 4.736 4.45.826 1.098-3.883 2.773-.55 1.4-5.012-1.4-4.462-4.45-3.057-1.675-6.665s1.098-2.506 5.548-6.113 3.323-5.563 5.547-8.345 0-5.838 3.598-4.185c3.598 1.68 3.598 2.946 6.097-.47s-.55-5.92 3.598-3.7c4.175 2.23 6.097-.936 5 3.7s-1.4 7.16-.275 9.39 3.048 2.506 4.998-1.404c1.95-3.883 1.1-20.02 4.45-23.656 3.323-3.608 3.048-2.23 4.723-6.665s-.274-3.056 2.5-8.62 3.872-6.967 6.646-9.75 4.175-8.62 7.772-6.664 3.406 4.46 5.438 3.608c2.033-.826 2.335-5.287 3.983-6.967S190.926 74 190.926 74s3.598.826 3.873 5.287.274 6.39 3.323 11.126-.275 6.967 6.097 8.07 3.598 4.737 9.722 3.607c6.097-1.1 3.873-3.332 8.047.276s2.225 4.737 6.372 6.39c4.174 1.68 2.225 7.518 4.45 13.08s-.275 5.012 3.873 11.125c4.174 6.114 1.4 5.563 6.948 7.518s3.048 1.405 9.448 3.333c6.37 1.955 7.223 2.23 10.27 3.607 3.05 1.405 5.823-2.78 5.548.826s-3.323 5.563-2.5 9.17 3.872 4.186 8.32 7.242 5 1.68 9.723 6.114c4.724 4.46 4.174 3.883 6.948 7.243 2.774 3.332.55 3.332 4.724 7.518s4.45 5.838 8.322 2.506 6.097-9.75 5.822-.55c-.275 9.17-.824 7.243 2.225 15.587s5.547 1.68 10.546 13.907h-270c0-2.23 3.57-6.36 3.57-6.36z"/><path fill="url(#M)" d="M187 225.922c.262-.782 5.807-8.417 10.568-9.485 4.76-1.043 10.046 0 10.046 0l8.71-2.372 7.14-4.742 6.88-3.674s.785-1.33 4.5-2.11 2.38-.26 6.88-.26 4.76 2.372 10.046 0 8.71-6.045 8.71-6.045 2.903-3.414 8.187-3.153 11.903.26 11.903.26 9-2.892 11.64-5.524.523-3.153 6.88-5.264c6.33-2.1 4.238 0 7.926-2.892s5.807-8.417 5.807-8.417-1.046-2.632 3.977-2.37 5.545 1.042 10.045 1.042 2.642-3.465 5.546-1.068 2.118 3.18 4.76 7.4l4.5 7.375s-3.165 1.59 4.238 3.96 6.33 1.33 12.164 1.33c5.807 0 5.546-1.6 10.045-3.153 4.5-1.6 3.636-5.004 8.45-6.306 4.813-1.33 8.45-.782 8.45-.782V226H187z"/><g style="mix-blend-mode:multiply" class="C"><path fill="url(#N)" d="M174 106.5c-73.6 17.6-147 25.333-174.5 27V185c94 .4 176.5-15.833 206-24z"/></g><g style="mix-blend-mode:multiply" class="D"><path fill="url(#O)" d="M169.5 170c97.6-41.2 178.333-52.833 206.5-53.5v77c-85.6 7.2-131.5 25.5-206.5 33-40.667-1.667-97.6-15.3 0-56.5z"/></g><path fill="url(#P)" d="M0 157.5c1.797-.266 8.217-3.61 9.775-3.61s3.857-.265 5.654 1.804 3.355-4.14 4.386-5.44 3.355-2.335 4.624-3.37c1.295-1.035 3.09-3.874 4.122-5.943s3.355-3.105 6.182-2.574 2.563.265 4.888 2.574c2.325 2.335.502 1.54 4.12-.504 3.593-2.07 2.325-5.175 6.182-2.203s3.593 3.237 5.918 4.007 2.563 2.44 2.563 5.625c0 3.158-2.06 2.653 0 5.493s2.06-.77 5.416 4.14 5.416 10.083 7.45 12.39c2.06 2.335 3.593 3.37 6.684 4.405s3.593-.504 7.213 2.335c3.593 2.84 5.654 4.404 9.273 4.404 3.593 0 3.593-2.07 7.45-1.804s-.766 4.14 6.183 4.91 5.918-1.54 9.51 1.54c3.593 3.104 3.09 3.37 5.918 7.243s5.152.77 6.684 6.21-.502 6.713 4.888 8.518c5.416 1.804 9.775 2.07 13.13 9.048s6.95 12.656 9.274 14.726S167 242 167 242H.026v-84.5z"/><g filter="url(#E)" style="mix-blend-mode:soft-light"><use xlink:href="#Y" fill-opacity=".3" fill="#58664e"/></g><g style="mix-blend-mode:multiply"><path fill="url(#Q)" d="M182 254c-49.6-20.8-142-35.667-182-40.5V313l43-6z"/></g><g style="mix-blend-mode:multiply"><use xlink:href="#Z" fill="url(#R)"/></g><g style="mix-blend-mode:multiply"><use xlink:href="#Z" fill="url(#S)"/></g><g opacity=".3" style="mix-blend-mode:soft-light" class="B"><path d="M233.6 138.008c-85.137 15.574-66.5 4.667-47.5-7 21.5-12 58.5-18.266 71-18H375v9.492l-76 17c-12.667 2.167-33.3 4.4-14.5-4s-26.107-1.828-50.9 2.508z"/></g><g style="mix-blend-mode:soft-light" class="D"><path fill="url(#T)" d="M202.5 203.5C160 197 124 209 79.5 209c-17.5-5.5 8-12-2.5-13.5-6.446-.92-50.167.333-77 6V213c65.2 9.2 109.833 19.167 124 23l33 6c13-3.5 77.152-33.66 45.5-38.5z"/></g><g opacity=".3" style="mix-blend-mode:soft-light" class="B"><path d="M253.5 169c20.4-6.8 17.833-10.833 14-12 10.5-.666 32.7.1 37.5 8.5S281.333 176 266.5 176c-13.167 0-34.2-1.4-13-7z"/></g><g style="mix-blend-mode:soft-light" class="D B"><path d="M168.23 116.622c-13.027-4.254-11.388-6.776-8.94-7.506-6.705-.417-20.882.062-23.947 5.316S150.457 121 159.93 121c8.408 0 21.84-.876 8.3-4.378z"/></g><g style="mix-blend-mode:soft-light" class="D B"><path d="M58.5 171c12.5-7.002 12.736-8.943 9.85-9.855 7.91-.52 13.15 1.855 17.65 5.355 5.918 4.603-5.5 10-17.65 13-9.628 2.377-27.653 1.473-9.85-8.5z"/></g><g opacity=".3" style="mix-blend-mode:soft-light" class="B"><path d="M117.68 158.2l.562-.31-.562.31c-1.898 1.177-2.455 3.005 7.8 2.82 14.007-.253 28.112 1.228 15.876 5.594s-29.184 4.22-30.416 1.04c-1.202-3.098-.285-5.5 6.75-9.455z"/></g><mask height="75" width="175" y="156" x="200" maskUnits="userSpaceOnUse" id="B"><path d="M200 156h175v75H200z" class="B"/></mask><g mask="url(#B)" class="B"><g style="mix-blend-mode:soft-light" class="D"><path d="M335.5 176c71.653-31.568 53 1.833 33 18-44.5 3.5-134.5 23-165 29l33.5-20c37.5-21.43 42.5-18.042 32-9s-5 13.5 66.5-18z"/></g></g><g class="C"><use xlink:href="#a" fill="url(#U)" transform="matrix(.870078 .492915 -.870078 .492915 287 278)"/><use xlink:href="#a" fill="url(#U)" transform="matrix(.870078 .492915 -.870078 .492915 167 346)"/><use xlink:href="#a" fill="url(#U)" transform="matrix(.870078 .492915 -.870078 .492915 227 312)"/><use xlink:href="#a" fill="url(#U)" transform="matrix(.870078 .492915 -.870078 .492915 107 380)"/><use xlink:href="#a" fill="url(#U)" transform="matrix(.870078 .492915 -.870078 .492915 257 295)"/><use xlink:href="#a" fill="url(#U)" transform="matrix(.870078 .492915 -.870078 .492915 137 363)"/><use xlink:href="#a" fill="url(#U)" transform="matrix(.870078 .492915 -.870078 .492915 197 329)"/><use xlink:href="#a" fill="url(#U)" transform="matrix(.870078 .492915 -.870078 .492915 77 397)"/><use xlink:href="#a" fill="url(#U)" transform="matrix(.870078 .492915 -.870078 .492915 142 311)"/><use xlink:href="#a" fill="url(#U)" transform="matrix(.870078 .492915 -.870078 .492915 202 277)"/><use xlink:href="#a" fill="url(#U)" transform="matrix(.870078 .492915 -.870078 .492915 82 345)"/><use xlink:href="#a" fill="url(#U)" transform="matrix(.870078 .492915 -.870078 .492915 232 260)"/><use xlink:href="#a" fill="url(#U)" transform="matrix(.870078 .492915 -.870078 .492915 112 328)"/><use xlink:href="#a" fill="url(#U)" transform="matrix(.870078 .492915 -.870078 .492915 172 294)"/><use xlink:href="#a" fill="url(#U)" transform="matrix(.870078 .492915 -.870078 .492915 52 362)"/><use xlink:href="#a" fill="url(#V)" transform="matrix(.870078 .492915 -.870078 .492915 109 279)"/><use xlink:href="#a" fill="url(#V)" transform="matrix(.870078 .492915 -.870078 .492915 49 313)"/><use xlink:href="#a" fill="url(#V)" transform="matrix(.870078 .492915 -.870078 .492915 79 296)"/><use xlink:href="#a" fill="url(#V)" transform="matrix(.870078 .492915 -.870078 .492915 139 262)"/><use xlink:href="#a" fill="url(#U)" transform="matrix(.870078 .492915 -.870078 .492915 38 273)"/><use xlink:href="#a" fill="url(#U)" transform="matrix(.870078 .492915 -.870078 .492915 68 256)"/><use xlink:href="#a" fill="url(#U)" transform="matrix(.870078 .492915 -.870078 .492915 336 301)"/><use xlink:href="#a" fill="url(#U)" transform="matrix(.870078 .492915 -.870078 .492915 216 369)"/><use xlink:href="#a" fill="url(#U)" transform="matrix(.870078 .492915 -.870078 .492915 276 335)"/><use xlink:href="#a" fill="url(#U)" transform="matrix(.870078 .492915 -.870078 .492915 156 403)"/><use xlink:href="#a" fill="url(#U)" transform="matrix(.870078 .492915 -.870078 .492915 306 318)"/><use xlink:href="#a" fill="url(#U)" transform="matrix(.870078 .492915 -.870078 .492915 186 386)"/><use xlink:href="#a" fill="url(#U)" transform="matrix(.870078 .492915 -.870078 .492915 246 352)"/><use xlink:href="#a" fill="url(#U)" transform="matrix(.870078 .492915 -.870078 .492915 126 420)"/><use xlink:href="#a" fill="url(#U)" transform="matrix(.870078 .492915 -.870078 .492915 305 371)"/><use xlink:href="#a" fill="url(#U)" transform="matrix(.870078 .492915 -.870078 .492915 245 405)"/><use xlink:href="#a" fill="url(#U)" transform="matrix(.870078 .492915 -.870078 .492915 275 388)"/><use xlink:href="#a" fill="url(#U)" transform="matrix(.870078 .492915 -.870078 .492915 335 354)"/><use xlink:href="#a" fill="url(#U)" transform="matrix(.870078 .492915 -.870078 .492915 215 422)"/><use xlink:href="#a" fill="url(#W)" transform="matrix(.870078 .492915 -.870078 .492915 300 424)"/><use xlink:href="#a" fill="url(#W)" transform="matrix(.870078 .492915 -.870078 .492915 330 407)"/></g></g><defs><filter filterUnits="userSpaceOnUse" height="116" width="165" y="84" x="211" id="C" class="E"><feFlood class="F"/><feBlend in="SourceGraphic"/><feGaussianBlur stdDeviation="1"/></filter><filter filterUnits="userSpaceOnUse" height="125" width="235" y="84" x="-18" id="D" class="E"><feFlood class="F"/><feBlend in="SourceGraphic"/><feGaussianBlur stdDeviation="1"/></filter><filter filterUnits="userSpaceOnUse" height="314" width="474" y="111" x="-49.5" id="E" class="E"><feFlood class="F"/><feBlend in="SourceGraphic"/><feGaussianBlur stdDeviation="25"/></filter><filter filterUnits="userSpaceOnUse" height="114" width="206.569" y="205.5" x="-14" id="F" class="E"><feFlood class="F"/><feBlend in="SourceGraphic"/><feGaussianBlur stdDeviation="7.5"/></filter><filter filterUnits="userSpaceOnUse" height="114" width="223" y="206" x="166" id="G" class="E"><feFlood class="F"/><feBlend in="SourceGraphic"/><feGaussianBlur stdDeviation="7.5"/></filter><linearGradient y2="189.988" x2="291.374" y1="91" x1="289.101" id="H" xlink:href="#b"><stop stop-opacity=".08" stop-color="#1f3139"/><stop stop-opacity=".15" stop-color="#17242a" offset=".307"/><stop stop-opacity=".14" stop-color="#030506" offset=".734"/><stop stop-opacity=".22" offset="1"/></linearGradient><linearGradient y2="183.5" x2="83" y1="86" x1="94" id="I" xlink:href="#b"><stop stop-opacity=".1" stop-color="#1f3139"/><stop stop-opacity=".17" stop-color="#162328" offset=".344"/><stop stop-opacity=".13" stop-color="#06090b" offset=".698"/><stop stop-opacity=".3" stop-color="#020405" offset=".87"/><stop stop-opacity=".3" offset="1"/></linearGradient><radialGradient gradientTransform="matrix(0,238,-259.102,0,188,296)" r="1" cy="0" cx="0" id="J" xlink:href="#b"><stop stop-color="#a7bf9b"/><stop stop-opacity=".646" stop-color="#a5bc9a" offset=".631"/><stop stop-opacity="0" stop-color="#a5bc9a" offset="1"/></radialGradient><radialGradient gradientTransform="matrix(0,85.5,-170.161,0,187,383)" r="1" cy="0" cx="0" id="K" xlink:href="#b"><stop stop-opacity=".82" stop-color="#cee9c2" offset=".318"/><stop stop-opacity="0" stop-color="#cee9c2" offset="1"/></radialGradient><linearGradient y2="218" x2="183" y1="84.5" x1="174.5" id="L" xlink:href="#b"><stop stop-color="#bec4c7"/><stop stop-color="#9fa5a3" offset=".323"/><stop stop-color="#92988a" offset=".714"/><stop stop-color="#98a885" offset="1"/></linearGradient><linearGradient y2="226" x2="276" y1="185" x1="274" id="M" xlink:href="#b"><stop stop-color="#828789"/><stop stop-opacity=".96" stop-color="#7d8588" offset=".203"/><stop stop-opacity=".896" stop-color="#868d91" offset=".487"/><stop stop-color="#93a788" offset="1"/></linearGradient><linearGradient y2="110" x2="180.5" y1="194" x1="0" id="N" xlink:href="#b"><stop stop-color="#adaca8"/><stop stop-opacity=".74" stop-color="#adaca8" offset=".469"/><stop stop-opacity="0" stop-color="#adaca8" offset="1"/></linearGradient><linearGradient y2="227" x2="183" y1="101.5" x1="369.5" id="O" xlink:href="#b"><stop stop-color="#898884"/><stop stop-opacity=".402" stop-color="#898884" offset=".478"/><stop stop-opacity="0" stop-color="#898884" offset="1"/></linearGradient><linearGradient y2="232" x2="90" y1="149.5" x1="102" id="P" xlink:href="#b"><stop stop-color="#5a6569"/><stop stop-color="#7e8073" offset=".7"/><stop stop-color="#899385" offset="1"/><stop stop-color="#8a9b81" offset="1"/></linearGradient><linearGradient y2="277" x2="85" y1="207" x1="36" id="Q" xlink:href="#b"><stop stop-color="#807e78"/><stop stop-opacity="0" stop-color="#807e78" offset="1"/></linearGradient><linearGradient y2="305.333" x2="285.252" y1="122" x1="388.049" id="R" xlink:href="#b"><stop stop-color="#859e77"/><stop stop-opacity="0" stop-color="#807d77" offset="1"/></linearGradient><linearGradient y2="305.333" x2="285.252" y1="122" x1="388.049" id="S" xlink:href="#b"><stop stop-color="#788077"/><stop stop-opacity="0" stop-color="#807d77" offset="1"/></linearGradient><linearGradient y2="235" x2="107" y1="182.5" x1="126" id="T" xlink:href="#b"><stop stop-color="#d5d5d5"/><stop stop-opacity="0" stop-color="#fff" offset="1"/><stop stop-opacity="0" stop-color="#dadada" offset="1"/></linearGradient><radialGradient gradientTransform="matrix(1.0711869,18.885746,-17.78791,1.0089184,14.3665,14.3665)" r="1" cy="0" cx="0" id="U" xlink:href="#b"><stop stop-color="#8fa381"/><stop stop-opacity="0" stop-color="#6d7e60" offset="1"/></radialGradient><radialGradient gradientTransform="matrix(1.0711869,18.885746,-17.78791,1.0089184,14.3665,14.3665)" r="1" cy="0" cx="0" id="V" xlink:href="#b"><stop stop-color="#8da27f"/><stop stop-opacity="0" stop-color="#6d7e60" offset="1"/></radialGradient><radialGradient gradientTransform="matrix(1.0711869,18.885746,-17.78791,1.0089184,14.3665,14.3665)" r="1" cy="0" cx="0" id="W" xlink:href="#b"><stop stop-color="#8fa381"/><stop stop-color="#8fa381" offset="0"/><stop stop-opacity="0" stop-color="#6d7e60" offset="1"/></radialGradient><clipPath id="X"><path fill="#fff" d="M0 0h375v667H0z"/></clipPath><path id="Y" d="M181.5 279c-88.8 2.8-157.667 65.167-181 96V161c27.667 16.833 102.6 47.3 181 52.5s161.333-35.667 193-52.5v173.5c-27.333-19.667-104.2-58.3-193-55.5z"/><path id="Z" d="M181.268 246c57.818-16.8 153.246-38.333 193.732-47v133c-226.456-32-223.51-70.667-193.732-86z"/><path id="a" d="M0 0h28.733v28.733H0z"/><linearGradient id="b" gradientUnits="userSpaceOnUse"/></defs></svg>
